<?xml version="1.0" standalone="no"?>
<!DOCTYPE svg PUBLIC "-//W3C//DTD SVG 20010904//EN"
 "http://www.w3.org/TR/2001/REC-SVG-20010904/DTD/svg10.dtd">
<svg version="1.0" xmlns="http://www.w3.org/2000/svg"
 width="236.000000pt" height="333.000000pt" viewBox="0 0 236.000000 333.000000"
 preserveAspectRatio="xMidYMid meet">

<g transform="translate(0.000000,333.000000) scale(0.100000,-0.100000)"
fill="#000000" stroke="none">
<path d="M1027 2995 c-24 -49 -21 -58 4 -12 24 46 38 40 41 -16 l1 -42 4 38
c4 35 -9 67 -26 67 -4 0 -15 -16 -24 -35z"/>
<path d="M996 2925 c-9 -26 -7 -32 5 -12 6 10 9 21 6 23 -2 3 -7 -2 -11 -11z"/>
<path d="M1063 2865 c0 -22 2 -30 4 -17 2 12 2 30 0 40 -3 9 -5 -1 -4 -23z"/>
<path d="M1119 2808 c-8 -7 -21 -22 -29 -33 -7 -11 -1 -8 14 8 46 46 56 37 31
-33 -8 -23 -15 -48 -14 -54 1 -16 37 85 38 107 1 20 -19 22 -40 5z"/>
<path d="M510 2781 c-6 -12 -37 -84 -69 -160 -46 -111 -69 -151 -111 -199 -30
-34 -57 -59 -61 -56 -5 2 -31 42 -58 88 -56 92 -77 114 -92 99 -6 -6 0 -31 18
-71 14 -34 28 -60 30 -58 2 2 -8 30 -22 61 -24 56 -26 73 -8 62 5 -3 33 -43
61 -89 29 -46 62 -95 74 -110 17 -22 19 -30 9 -42 -7 -8 -11 -25 -8 -38 4 -21
4 -20 6 4 0 16 9 32 21 38 26 14 37 37 132 265 84 202 103 237 94 170 l-5 -40
10 38 c13 46 -2 73 -21 38z m-172 -403 c-22 -40 -43 -53 -43 -26 0 15 59 88
63 77 2 -5 -7 -28 -20 -51z"/>
<path d="M824 2755 c-3 -8 1 -36 10 -62 21 -61 21 -58 -17 -82 -19 -11 -53
-48 -77 -82 -40 -57 -45 -61 -74 -55 -21 4 -26 3 -16 -4 8 -5 33 -12 55 -16
l40 -7 -60 -28 c-79 -37 -65 -36 28 1 128 51 148 34 35 -31 -40 -22 -152 -88
-248 -145 -97 -57 -183 -104 -191 -104 -10 0 -27 25 -44 66 -17 40 -31 61 -35
54 -5 -8 -27 11 -64 56 -83 100 -117 114 -71 29 14 -26 25 -57 26 -69 0 -19 1
-19 8 -2 6 15 14 9 49 -38 44 -57 46 -76 12 -76 -22 0 -54 -54 -46 -77 5 -11
1 -13 -17 -7 -53 16 -63 51 -22 78 14 9 25 21 25 27 0 5 -14 -3 -31 -19 -42
-39 -35 -75 16 -92 19 -6 42 -21 51 -33 15 -20 16 -20 10 -2 -9 29 29 -21 45
-58 10 -24 9 -31 -5 -45 -13 -13 -20 -14 -34 -5 -18 11 -18 14 -7 48 3 11 -1
7 -11 -10 -16 -28 -16 -30 5 -43 14 -10 21 -26 22 -51 l1 -36 8 38 c8 44 23
63 40 52 9 -6 8 -10 -4 -17 -9 -5 -16 -17 -16 -26 1 -16 2 -16 14 0 7 10 16
15 19 11 11 -10 8 -25 -3 -18 -16 10 -12 -11 5 -25 16 -14 21 -80 5 -80 -5 0
-7 -14 -3 -32 8 -47 -10 -25 -35 42 -12 30 -21 50 -21 43 -1 -6 9 -37 21 -68
20 -53 20 -58 5 -91 -9 -18 -20 -34 -25 -34 -13 0 -8 -88 6 -102 7 -7 27 -18
45 -24 29 -10 33 -16 38 -60 l6 -49 1 47 2 47 44 -16 c24 -9 51 -13 60 -10 10
4 31 37 48 74 18 40 44 80 64 96 28 23 34 36 34 66 0 45 51 131 78 131 33 0
91 -58 106 -108 8 -26 15 -39 15 -29 2 34 -27 84 -65 115 -21 18 -33 32 -26
32 23 0 83 -65 97 -105 8 -22 14 -31 14 -20 1 39 -43 97 -94 125 -27 16 -61
31 -75 34 -15 4 -9 -2 15 -14 30 -15 34 -19 13 -15 -14 3 -34 7 -45 11 -11 3
-10 0 5 -9 21 -12 22 -15 7 -27 -26 -22 -55 -86 -55 -123 0 -32 -14 -57 -33
-57 -4 0 -6 10 -3 23 7 27 -10 -8 -59 -117 -40 -89 -32 -87 -158 -44 -67 24
-87 39 -87 67 0 11 4 11 18 -2 27 -25 123 -54 152 -48 19 5 34 25 67 91 23 47
42 95 42 106 1 12 -10 50 -24 85 -13 35 -24 59 -25 52 0 -7 9 -35 20 -63 26
-67 25 -80 -10 -151 -33 -64 -51 -79 -75 -59 -12 10 -15 10 -15 -3 0 -9 -8
-18 -17 -20 -17 -4 -17 -5 0 -6 9 0 17 -7 17 -15 0 -12 -8 -12 -50 2 -66 21
-78 48 -51 117 12 30 21 42 22 30 1 -17 2 -16 9 5 11 35 11 60 0 35 -6 -13 -7
1 -4 41 7 69 -11 145 -53 228 l-25 49 32 -7 c18 -3 50 -6 71 -6 34 0 39 -3 39
-23 0 -13 7 -32 15 -43 14 -18 14 -18 15 8 0 15 5 30 12 34 8 5 9 -2 5 -23 -4
-22 -2 -30 9 -30 17 0 17 7 3 44 -14 37 -25 43 -89 43 -104 1 -170 28 -157 64
6 15 9 14 26 -3 22 -22 56 -30 146 -34 55 -2 61 -4 82 -36 26 -39 30 -34 8 9
-17 34 -31 38 -132 42 -53 3 -77 9 -92 22 -44 40 -7 64 44 30 20 -13 33 -14
65 -6 36 9 42 8 55 -11 8 -12 15 -16 15 -9 0 8 16 12 44 12 39 0 48 4 67 31
12 18 28 48 34 67 11 31 29 44 150 114 76 43 139 77 140 76 8 -10 35 -69 35
-77 0 -5 -17 -12 -37 -14 -22 -2 -7 -4 34 -5 46 -1 73 -6 76 -14 3 -8 6 -6 6
5 1 13 -7 17 -31 17 -30 0 -35 5 -55 50 -12 28 -18 52 -12 55 5 4 9 13 9 22 0
12 -7 14 -33 10 -19 -3 -47 -2 -64 1 l-31 7 49 62 c60 76 96 103 110 82 5 -8
9 -36 9 -63 l0 -48 38 33 c20 19 51 44 67 56 17 12 27 23 23 23 -4 0 -32 -20
-63 -45 l-55 -45 0 32 c0 18 -12 70 -27 115 -28 85 -27 106 4 82 16 -13 17
-12 4 4 -17 21 -30 22 -37 2z m-648 -467 c24 -31 44 -64 44 -74 0 -17 -83 82
-124 150 l-20 31 28 -25 c16 -14 48 -51 72 -82z m309 -113 c-31 -54 -55 -59
-55 -12 0 26 7 36 38 54 20 11 39 17 40 12 2 -5 -8 -29 -23 -54z m-237 1 c-11
-26 -28 -35 -28 -16 0 6 5 10 10 10 6 0 10 15 10 33 1 26 3 29 10 15 7 -11 6
-25 -2 -42z m146 -21 c-14 -14 -30 -23 -36 -19 -5 3 3 14 19 24 40 26 46 24
17 -5z m-24 -137 c0 -7 -5 -20 -10 -28 -8 -12 -10 -9 -10 13 0 15 5 27 10 27
6 0 10 -6 10 -12z m-130 -366 c0 -5 -7 -17 -15 -28 -14 -18 -14 -17 -4 9 12
27 19 34 19 19z m-10 -73 c0 -6 -4 -7 -10 -4 -5 3 -10 11 -10 16 0 6 5 7 10 4
6 -3 10 -11 10 -16z m180 -13 c0 -8 -31 -36 -41 -36 -5 0 -9 8 -8 18 0 10 3
12 6 5 3 -10 8 -9 20 2 14 15 23 19 23 11z"/>
<path d="M482 2562 c-18 -75 -32 -144 -31 -152 0 -8 6 8 12 35 l12 50 55 6 55
6 -53 1 c-46 2 -53 5 -49 20 19 67 39 164 35 167 -2 3 -19 -57 -36 -133z"/>
<path d="M1145 2612 c43 -23 55 -37 85 -99 44 -90 54 -101 96 -109 65 -12 87
-64 37 -82 -16 -6 -21 -11 -12 -11 8 -1 24 5 34 13 16 12 18 19 10 43 -8 22
-21 31 -60 43 -48 15 -52 19 -85 87 -44 87 -54 99 -101 124 -58 29 -61 22 -4
-9z"/>
<path d="M1495 2498 c-62 -64 -43 -55 33 16 l42 40 0 -29 c0 -22 -14 -44 -52
-85 l-53 -55 58 55 c47 45 57 60 57 87 0 20 -5 33 -12 33 -7 0 -40 -28 -73
-62z"/>
<path d="M1317 2487 l-17 -32 24 29 25 30 4 -40 4 -39 1 43 c2 51 -15 56 -41
9z"/>
<path d="M600 2490 c8 -5 20 -10 25 -10 6 0 3 5 -5 10 -8 5 -19 10 -25 10 -5
0 -3 -5 5 -10z"/>
<path d="M1201 2433 c0 -11 3 -13 6 -5 2 6 10 9 15 6 7 -4 8 -2 4 4 -11 18
-26 14 -25 -5z"/>
<path d="M1180 2421 c0 -6 4 -13 10 -16 6 -3 7 1 4 9 -7 18 -14 21 -14 7z"/>
<path d="M171 2408 c-1 -11 51 -129 56 -125 2 2 -10 33 -26 68 -16 35 -30 61
-30 57z"/>
<path d="M441 2363 c0 -18 -6 -33 -13 -33 -6 0 -9 -3 -5 -6 3 -3 49 8 102 26
53 18 94 34 92 36 -2 2 -37 -7 -77 -21 -40 -14 -77 -25 -81 -25 -4 0 -10 12
-12 28 -4 25 -4 25 -6 -5z"/>
<path d="M990 2246 l-115 -63 -3 30 c-3 23 3 36 20 49 l23 19 -31 -15 c-26
-13 -30 -19 -26 -45 6 -41 -7 -55 -79 -81 -48 -18 -66 -32 -89 -66 -36 -51
-36 -52 -8 -56 36 -5 34 -36 -3 -56 -18 -9 -44 -28 -59 -42 -14 -14 -19 -19
-10 -12 9 6 25 12 36 12 40 0 121 -49 172 -103 53 -56 53 -57 78 -40 l26 16
-6 -39 c-5 -36 -5 -37 4 -9 7 22 6 41 -6 72 -17 44 -12 92 6 63 6 -8 10 -31
11 -50 1 -28 2 -31 7 -13 l7 23 30 -20 c17 -11 34 -20 39 -20 5 0 -6 10 -24
23 -18 12 -42 34 -53 49 -17 23 -18 30 -7 43 11 13 10 15 -3 10 -25 -10 -41
-60 -29 -93 8 -23 7 -33 -5 -45 -14 -14 -21 -10 -69 39 -33 35 -76 65 -115 83
l-61 28 30 12 c34 14 45 34 36 63 -10 32 62 89 196 158 67 34 124 59 127 56 3
-2 -2 -15 -11 -28 -9 -12 -16 -29 -16 -38 0 -8 10 4 21 28 12 24 37 55 55 70
31 25 45 52 27 52 -5 -1 -60 -29 -123 -64z m120 46 c0 -5 -15 -17 -34 -27 -19
-11 -32 -23 -29 -28 3 -6 1 -7 -5 -3 -20 12 -268 -122 -307 -165 -48 -53 -75
-53 -39 0 19 30 39 44 82 61 31 11 118 54 192 95 151 83 140 78 140 67z"/>
<path d="M1238 2291 c-61 -20 -143 -67 -173 -101 -31 -34 -5 -22 42 20 55 48
73 52 40 8 -14 -18 -36 -55 -50 -83 -28 -56 -60 -90 -76 -80 -14 8 -14 -11 0
-36 14 -26 2 -58 -24 -69 -22 -9 -22 -9 -1 -9 13 -1 25 8 32 24 9 19 20 25 44
26 l33 2 -35 6 c-41 7 -52 34 -21 51 12 6 37 42 56 80 49 98 86 137 148 155
48 14 53 14 64 -1 11 -15 12 -14 10 5 -2 25 -14 26 -89 2z"/>
<path d="M1468 2303 c33 -3 42 -8 42 -23 0 -11 -11 -27 -25 -36 -14 -9 -23
-19 -20 -22 10 -11 55 42 55 65 0 21 -4 23 -47 21 l-48 -1 43 -4z"/>
<path d="M1332 2240 c0 -14 2 -19 5 -12 2 6 2 18 0 25 -3 6 -5 1 -5 -13z"/>
<path d="M132 2225 c0 -16 2 -22 5 -12 2 9 2 23 0 30 -3 6 -5 -1 -5 -18z"/>
<path d="M282 2215 c0 -16 2 -22 5 -12 2 9 2 23 0 30 -3 6 -5 -1 -5 -18z"/>
<path d="M785 2221 c27 -6 31 -11 27 -41 -1 -5 -10 -10 -20 -10 -24 0 -117
-47 -133 -67 -8 -8 9 -1 36 16 26 17 64 34 82 37 61 11 69 75 9 73 l-31 -1 30
-7z"/>
<path d="M1396 2199 c-29 -15 -41 -18 -46 -9 -4 7 -10 -2 -14 -23 -6 -34 -57
-91 -104 -116 -17 -9 -21 -8 -25 7 -4 14 -5 13 -6 -4 -1 -12 -12 -24 -28 -31
l-28 -11 31 5 c37 6 43 -4 55 -92 l8 -60 -4 60 c-2 33 -7 72 -10 87 -6 21 -3
27 13 32 11 4 39 25 61 46 l41 40 16 -33 c10 -17 20 -43 25 -57 5 -17 8 -19 8
-7 1 10 -10 40 -24 67 -14 27 -25 52 -25 55 0 2 26 18 58 34 31 17 53 30 47
30 -5 0 -27 -9 -49 -20z"/>
<path d="M1984 2124 c-41 -42 -84 -90 -97 -108 -12 -17 23 15 77 72 54 56 102
102 106 102 5 0 11 -8 13 -17 4 -14 5 -12 6 5 2 40 -28 24 -105 -54z"/>
<path d="M180 2136 c0 -2 7 -9 15 -16 9 -7 15 -8 15 -2 0 5 -7 12 -15 16 -8 3
-15 4 -15 2z"/>
<path d="M1003 2105 c0 -22 2 -30 4 -17 2 12 2 30 0 40 -3 9 -5 -1 -4 -23z"/>
<path d="M1181 2110 c14 -31 19 -36 19 -24 0 6 -7 19 -16 30 -14 18 -14 18 -3
-6z"/>
<path d="M308 2103 c6 -2 18 -2 25 0 6 3 1 5 -13 5 -14 0 -19 -2 -12 -5z"/>
<path d="M1785 2069 c-11 -16 -1 -19 13 -3 7 8 8 14 3 14 -5 0 -13 -5 -16 -11z"/>
<path d="M2105 2047 c3 -7 -8 -31 -26 -53 -31 -39 -84 -134 -74 -134 2 0 14
19 26 43 12 23 37 61 55 84 36 43 41 58 24 68 -5 3 -7 0 -5 -8z"/>
<path d="M1765 2010 c-4 -17 -5 -34 -2 -36 2 -3 7 10 11 27 3 18 4 34 2 36 -2
3 -7 -10 -11 -27z"/>
<path d="M1118 2003 c7 -3 16 -2 19 1 4 3 -2 6 -13 5 -11 0 -14 -3 -6 -6z"/>
<path d="M431 1974 c0 -11 3 -14 6 -6 3 7 2 16 -1 19 -3 4 -6 -2 -5 -13z"/>
<path d="M843 1973 c15 -2 37 -2 50 0 12 2 0 4 -28 4 -27 0 -38 -2 -22 -4z"/>
<path d="M1381 1957 c-2 -54 -72 -117 -164 -148 -29 -10 -43 -18 -32 -19 27 0
124 46 152 72 27 25 29 21 42 -77 7 -59 9 -63 9 -25 1 25 -3 65 -9 89 -7 32
-7 53 2 72 6 16 9 34 6 41 -3 8 -6 6 -6 -5z"/>
<path d="M557 1927 c-27 -25 -37 -46 -47 -92 -12 -55 -13 -58 -23 -35 -5 14
-18 54 -28 90 -9 36 -18 58 -18 50 -1 -20 21 -99 51 -180 l24 -65 0 70 c-1 93
17 139 62 170 20 14 31 25 25 25 -6 0 -27 -15 -46 -33z"/>
<path d="M1752 1930 c0 -19 2 -27 5 -17 2 9 2 25 0 35 -3 9 -5 1 -5 -18z"/>
<path d="M375 1914 c3 -24 -2 -37 -21 -55 -14 -13 -35 -41 -45 -61 -30 -58
-22 -59 11 -1 33 57 71 89 95 79 9 -3 15 0 15 8 0 7 -10 12 -22 12 -15 -1 -24
7 -30 24 -7 22 -7 21 -3 -6z"/>
<path d="M411 1924 c0 -11 3 -14 6 -6 3 7 2 16 -1 19 -3 4 -6 -2 -5 -13z"/>
<path d="M1740 1840 c0 -49 0 -50 -49 -75 -69 -34 -72 -45 -14 -45 56 0 82
-15 124 -73 16 -22 29 -36 29 -30 0 14 -46 73 -72 91 -12 9 -41 19 -63 22
l-40 6 32 17 c39 21 43 21 43 2 0 -8 1 -15 3 -15 1 0 22 7 47 15 l45 15 -41
-6 -40 -5 4 65 c2 37 2 66 -2 66 -3 0 -6 -22 -6 -50z"/>
<path d="M221 1840 c0 -14 28 -72 29 -59 0 4 -7 22 -15 40 -8 19 -14 27 -14
19z"/>
<path d="M1050 1790 c25 -8 117 -13 109 -6 -2 2 -33 6 -69 9 -39 3 -55 2 -40
-3z"/>
<path d="M2004 1759 l-31 -31 -34 21 c-19 12 -41 21 -49 21 -8 0 4 -9 26 -19
47 -21 71 -51 80 -98 3 -18 11 -33 16 -33 13 0 44 -37 68 -82 48 -90 4 -178
-100 -199 l-35 -7 37 -1 c28 -1 46 6 71 29 40 35 44 36 49 13 2 -9 4 16 5 56
3 81 -7 109 -62 176 -18 23 -40 58 -49 80 l-16 39 32 33 c17 18 30 33 27 33
-2 0 -18 -14 -35 -31z"/>
<path d="M1838 1773 c6 -2 18 -2 25 0 6 3 1 5 -13 5 -14 0 -19 -2 -12 -5z"/>
<path d="M1219 1660 c-3 -47 -9 -94 -12 -105 -4 -11 0 -5 8 13 11 23 15 56 13
105 l-3 72 -6 -85z"/>
<path d="M1574 1701 c-43 -26 -91 -87 -111 -141 -9 -25 -37 -67 -61 -94 -24
-28 -51 -64 -59 -80 -10 -20 -18 -26 -21 -18 -2 8 -13 -6 -24 -30 -31 -69 -90
-121 -152 -132 -34 -6 -47 -16 -20 -16 28 1 95 34 127 63 15 14 27 23 28 19 0
-4 5 9 12 28 10 28 18 36 41 38 21 3 25 6 16 12 -26 16 73 145 130 170 23 10
23 10 2 6 -19 -4 -22 -1 -16 17 19 64 72 130 129 160 17 9 26 16 20 17 -5 0
-24 -9 -41 -19z"/>
<path d="M902 1640 c0 -59 -5 -89 -26 -137 -14 -35 -26 -68 -26 -75 1 -7 14
22 31 65 l31 78 19 -24 c21 -28 78 -57 106 -56 10 0 3 5 -16 11 -79 22 -103
54 -112 148 l-7 65 0 -75z"/>
<path d="M1371 1694 c-2 -42 -34 -115 -61 -142 -33 -33 -88 -52 -185 -62 -65
-7 -67 -7 -20 -9 67 -1 161 24 201 54 35 27 78 123 71 159 l-4 21 -2 -21z"/>
<path d="M773 1620 c0 -41 2 -58 4 -37 2 20 2 54 0 75 -2 20 -4 3 -4 -38z"/>
<path d="M753 1625 c0 -22 2 -30 4 -17 2 12 2 30 0 40 -3 9 -5 -1 -4 -23z"/>
<path d="M271 1608 c-1 -9 6 -24 15 -32 21 -22 31 -20 12 2 -9 9 -18 24 -21
32 -4 12 -6 12 -6 -2z"/>
<path d="M2002 1575 c0 -16 2 -22 5 -12 2 9 2 23 0 30 -3 6 -5 -1 -5 -18z"/>
<path d="M742 1545 c0 -16 2 -22 5 -12 2 9 2 23 0 30 -3 6 -5 -1 -5 -18z"/>
<path d="M1842 1550 c0 -14 2 -19 5 -12 2 6 2 18 0 25 -3 6 -5 1 -5 -13z"/>
<path d="M2223 1554 c-17 -9 -40 -25 -50 -36 -15 -18 -12 -17 22 5 85 54 115
41 48 -20 l-38 -35 43 32 c64 48 46 89 -25 54z"/>
<path d="M1325 1477 c-4 -36 -5 -71 -3 -79 3 -7 8 20 12 60 4 41 5 76 3 79 -3
2 -8 -25 -12 -60z"/>
<path d="M1986 1522 c-4 -11 -16 -32 -27 -46 -19 -24 -22 -25 -42 -11 -12 8
-28 15 -37 15 -8 -1 0 -7 18 -15 17 -8 32 -17 32 -20 0 -8 -63 -45 -79 -45 -8
0 -11 6 -7 16 9 22 19 110 12 103 -3 -3 -8 -25 -11 -48 -3 -24 -15 -66 -27
-93 -24 -56 -97 -126 -110 -106 -5 8 -7 -1 -7 -22 0 -22 3 -29 7 -19 4 9 24
31 46 49 21 19 50 52 63 74 l25 39 25 -32 c13 -17 30 -31 36 -31 7 0 18 -21
25 -47 15 -55 15 -60 8 -128 l-5 -50 9 48 c10 57 16 65 32 49 26 -26 99 -2
130 42 4 6 9 5 12 -4 11 -37 16 -43 10 -15 -3 17 -6 53 -6 80 l0 50 -8 -50
c-23 -133 -173 -138 -175 -5 0 34 -3 40 -22 40 -23 0 -58 39 -45 50 4 4 23 17
43 29 l37 21 31 -26 c17 -14 31 -21 31 -14 0 6 -13 18 -29 28 l-29 16 25 44
c14 23 23 45 20 48 -3 3 -8 -3 -11 -14z"/>
<path d="M1565 1516 c59 -26 99 -88 129 -201 3 -11 3 -2 1 19 -10 87 -91 197
-145 196 -8 -1 -1 -7 15 -14z"/>
<path d="M763 1485 c0 -22 2 -30 4 -17 2 12 2 30 0 40 -3 9 -5 -1 -4 -23z"/>
<path d="M732 1490 c0 -14 2 -19 5 -12 2 6 2 18 0 25 -3 6 -5 1 -5 -13z"/>
<path d="M1788 1463 c-20 -22 -71 -124 -65 -129 2 -2 16 22 32 53 15 32 34 66
43 76 8 9 13 17 10 17 -3 0 -12 -8 -20 -17z"/>
<path d="M321 1445 c-2 -57 -22 -104 -52 -129 -17 -14 -26 -26 -21 -26 38 0
88 100 79 158 -4 26 -4 26 -6 -3z"/>
<path d="M715 1415 c-3 -26 -4 -49 -2 -51 3 -3 8 16 12 41 3 26 4 49 2 51 -3
3 -8 -16 -12 -41z"/>
<path d="M752 1415 c0 -16 2 -22 5 -12 2 9 2 23 0 30 -3 6 -5 -1 -5 -18z"/>
<path d="M160 1410 c-30 -30 -27 -83 6 -109 15 -12 36 -21 48 -20 17 1 15 2
-7 9 -16 5 -35 14 -43 21 -22 18 -16 99 7 99 5 0 4 -11 -3 -25 -16 -35 12 -75
52 -75 30 0 70 39 70 69 0 9 -8 0 -18 -19 -21 -44 -73 -55 -92 -20 -15 29 -4
59 26 66 13 3 24 10 24 15 0 17 -50 9 -70 -11z"/>
<path d="M1192 1385 c-2 -27 -13 -77 -27 -110 -13 -33 -18 -51 -10 -41 25 33
46 113 42 158 l-4 43 -1 -50z"/>
<path d="M2245 1419 c4 -12 -4 -23 -29 -39 -20 -12 -36 -25 -36 -29 0 -14 25
-61 33 -61 12 0 8 12 -10 32 -17 19 -16 21 22 53 33 28 38 36 27 47 -11 11
-12 10 -7 -3z"/>
<path d="M842 1390 c0 -14 2 -19 5 -12 2 6 2 18 0 25 -3 6 -5 1 -5 -13z"/>
<path d="M730 1311 c-7 -38 -10 -80 -6 -95 8 -31 39 -50 68 -40 18 5 20 12 15
58 -6 46 -5 49 8 32 50 -67 -38 -143 -96 -85 -19 19 -21 29 -16 98 4 56 3 65
-3 36 -16 -75 -12 -114 16 -141 20 -20 33 -25 60 -22 l34 4 1 -46 2 -45 7 55
c5 30 11 74 15 97 6 32 4 46 -8 57 -29 29 -38 19 -31 -33 7 -53 -2 -67 -36
-56 -28 9 -35 49 -20 122 7 35 10 66 8 69 -3 2 -11 -27 -18 -65z"/>
<path d="M831 1344 c0 -11 3 -14 6 -6 3 7 2 16 -1 19 -3 4 -6 -2 -5 -13z"/>
<path d="M1385 1328 c56 -30 117 -106 136 -168 6 -20 7 -21 8 -5 2 51 -110
186 -153 185 -6 0 -2 -6 9 -12z"/>
<path d="M840 1303 c0 -33 68 -99 115 -112 22 -6 65 -10 95 -10 51 2 50 2 -22
9 -94 9 -143 36 -169 94 -14 30 -19 35 -19 19z"/>
<path d="M2038 1293 c5 -21 7 -23 10 -9 2 10 0 22 -6 28 -6 6 -7 0 -4 -19z"/>
<path d="M2168 1293 c7 -3 16 -2 19 1 4 3 -2 6 -13 5 -11 0 -14 -3 -6 -6z"/>
<path d="M1292 1235 c0 -16 2 -22 5 -12 2 9 2 23 0 30 -3 6 -5 -1 -5 -18z"/>
<path d="M1632 1233 c-24 -35 -74 -133 -67 -133 2 0 17 24 31 53 15 28 35 64
46 80 11 15 17 27 14 27 -2 0 -13 -12 -24 -27z"/>
<path d="M1686 1187 c-15 -60 -126 -197 -159 -197 -8 0 -22 -18 -32 -39 -41
-92 -150 -153 -281 -159 -60 -3 -90 0 -120 13 l-39 18 43 9 c23 5 42 14 42 19
0 6 -7 6 -19 -1 -11 -5 -31 -10 -45 -10 -42 0 -40 -19 6 -40 60 -27 165 -27
248 2 49 16 75 33 114 74 28 29 87 90 131 136 77 79 131 165 122 191 -2 6 -7
-1 -11 -16z"/>
<path d="M1303 1140 c0 -36 2 -50 4 -32 2 17 2 47 0 65 -2 17 -4 3 -4 -33z"/>
<path d="M2117 1145 c-7 -45 -41 -92 -70 -98 -22 -4 -22 -4 0 -6 28 -1 70 49
79 95 3 19 4 37 2 40 -3 2 -8 -11 -11 -31z"/>
<path d="M2050 1154 c0 -10 5 -26 10 -34 8 -11 9 -7 4 15 -8 37 -14 45 -14 19z"/>
<path d="M1532 1099 c-1 -20 -4 -52 -7 -70 l-5 -34 11 33 c5 19 8 50 6 70 l-4
37 -1 -36z"/>
<path d="M1945 1085 c4 -11 7 -42 6 -68 -2 -54 19 -97 47 -96 13 0 14 2 2 6
-27 10 -40 36 -40 80 0 42 1 43 28 38 23 -5 24 -4 6 4 -12 5 -30 20 -39 33
-15 19 -16 20 -10 3z"/>
<path d="M1163 1020 c1 -36 -3 -81 -7 -100 -5 -19 -6 -32 -2 -29 14 13 25 110
17 151 -8 41 -8 40 -8 -22z"/>
<path d="M1291 1047 c-3 -64 -51 -138 -116 -178 -16 -11 -25 -19 -19 -19 6 0
29 13 51 29 49 35 97 125 90 168 l-4 28 -2 -28z"/>
<path d="M820 1050 c0 -8 13 -42 28 -75 42 -88 130 -160 174 -142 7 3 2 6 -12
6 -60 2 -125 68 -166 168 -13 32 -24 51 -24 43z"/>
<path d="M1396 989 c-41 -27 -79 -55 -83 -62 -8 -13 28 9 92 57 23 17 51 36
61 43 10 6 16 12 12 12 -3 1 -40 -22 -82 -50z"/>
<path d="M2097 1010 c-9 -46 -32 -78 -60 -83 -18 -4 -17 -5 6 -6 24 -1 31 5
48 44 11 25 19 54 17 63 -2 10 -7 1 -11 -18z"/>
<path d="M2050 983 c-3 -23 -2 -39 3 -34 5 5 7 24 5 42 -3 33 -4 33 -8 -8z"/>
<path d="M1829 876 c-35 -29 -77 -68 -94 -87 -16 -18 8 0 55 41 114 99 115
100 109 100 -3 0 -34 -24 -70 -54z"/>
<path d="M1897 778 c-15 -34 -25 -63 -23 -65 2 -2 15 24 30 58 15 33 26 62 24
64 -2 2 -16 -24 -31 -57z"/>
<path d="M1779 784 c-62 -52 -107 -100 -151 -164 -18 -25 -36 -48 -42 -52 -7
-5 -7 -8 -1 -8 6 0 31 28 55 61 25 34 81 95 124 135 90 84 97 96 15 28z"/>
<path d="M2073 745 c0 -22 2 -30 4 -17 2 12 2 30 0 40 -3 9 -5 -1 -4 -23z"/>
<path d="M1946 690 c-71 -103 -127 -171 -136 -165 -5 3 -11 1 -15 -5 -4 -6
-11 -8 -16 -5 -5 4 -9 2 -9 -4 0 -5 12 -8 26 -7 28 3 64 44 143 161 56 82 63
95 58 95 -2 0 -25 -32 -51 -70z"/>
<path d="M2033 690 c0 -36 2 -50 4 -32 2 17 2 47 0 65 -2 17 -4 3 -4 -33z"/>
<path d="M2052 614 c-7 -49 -15 -102 -17 -119 l-5 -30 10 30 c13 40 33 181 28
196 -2 7 -10 -28 -16 -77z"/>
<path d="M1678 600 c-3 -19 -5 -36 -3 -38 4 -5 95 33 95 40 0 5 -16 1 -36 -7
-46 -19 -42 -20 -46 13 -3 25 -4 25 -10 -8z"/>
<path d="M2022 570 c0 -14 2 -19 5 -12 2 6 2 18 0 25 -3 6 -5 1 -5 -13z"/>
<path d="M1891 514 c0 -11 3 -14 6 -6 3 7 2 16 -1 19 -3 4 -6 -2 -5 -13z"/>
<path d="M1881 468 c-1 -32 14 -36 41 -11 19 17 19 16 14 -12 -5 -24 -4 -26 3
-10 5 11 10 28 10 38 1 17 -1 17 -26 -3 l-28 -22 -6 24 c-7 22 -7 22 -8 -4z"/>
<path d="M2016 429 c-8 -42 0 -50 9 -9 4 17 5 34 2 36 -2 3 -7 -10 -11 -27z"/>
<path d="M1945 410 c-16 -7 -17 -9 -3 -9 9 -1 20 4 23 9 7 11 7 11 -20 0z"/>
<path d="M1992 346 c-8 -20 -18 -34 -23 -31 -5 4 -9 1 -9 -4 0 -6 4 -11 10
-11 12 0 42 58 38 71 -2 6 -9 -6 -16 -25z"/>
</g>
</svg>
