<?xml version="1.0" standalone="no"?>
<!DOCTYPE svg PUBLIC "-//W3C//DTD SVG 20010904//EN"
 "http://www.w3.org/TR/2001/REC-SVG-20010904/DTD/svg10.dtd">
<svg version="1.0" xmlns="http://www.w3.org/2000/svg"
 width="545.000000pt" height="458.000000pt" viewBox="0 0 545.000000 458.000000"
 preserveAspectRatio="xMidYMid meet">

<g transform="translate(0.000000,458.000000) scale(0.100000,-0.100000)"
fill="#000000" stroke="none">
<path d="M1388 4555 c-58 -13 -142 -35 -184 -50 -83 -29 -279 -120 -379 -177
-33 -19 -85 -39 -115 -45 -88 -18 -214 -71 -293 -123 -126 -82 -275 -252 -292
-332 -8 -34 3 -50 120 -178 43 -47 119 -130 169 -185 50 -55 125 -136 166
-180 192 -204 339 -407 523 -722 l36 -62 -31 -38 c-45 -55 -86 -152 -100 -234
-11 -63 -17 -75 -46 -97 -41 -31 -75 -32 -167 -2 -59 19 -92 23 -210 23 -162
0 -245 -18 -385 -83 -47 -21 -94 -41 -105 -44 -13 -4 -31 -28 -48 -65 -44 -97
-37 -106 53 -71 64 25 63 25 55 -9 -11 -53 34 -54 101 -1 l38 31 96 -6 c120
-9 238 7 355 47 64 22 119 33 190 38 55 4 102 5 105 3 3 -3 5 -59 6 -126 2
-265 78 -431 292 -644 52 -52 91 -98 86 -102 -5 -5 -45 -20 -89 -35 -89 -29
-125 -50 -125 -71 0 -16 24 -23 90 -27 48 -3 46 -1 37 -63 -1 -6 31 -9 83 -7
114 3 170 11 170 24 0 7 -36 9 -107 7 -79 -3 -107 -1 -110 9 -3 7 8 15 26 18
67 14 22 34 -76 34 -34 0 -65 5 -68 10 -3 6 -4 10 -2 10 2 0 50 16 107 35 106
37 121 37 164 4 25 -19 25 -22 11 -50 -9 -16 -13 -34 -10 -39 8 -13 45 -13
100 2 42 11 46 10 70 -12 33 -31 32 -44 -11 -76 -32 -25 -37 -26 -45 -12 -12
22 -54 30 -107 21 -60 -11 -48 -29 15 -25 49 3 54 2 63 -22 5 -14 15 -26 21
-26 7 0 48 23 91 51 l79 50 88 -20 c49 -12 150 -24 233 -29 139 -8 147 -9 194
-39 27 -17 66 -39 86 -49 42 -20 58 -53 58 -119 0 -66 39 -513 51 -580 20
-118 29 -121 96 -35 25 33 51 60 56 60 5 0 30 -18 54 -41 64 -59 77 -52 85 50
6 74 13 103 21 90 111 -171 146 -200 167 -144 12 31 30 31 78 2 20 -13 63 -34
95 -47 70 -29 85 -21 67 35 -14 44 -199 322 -326 491 -49 66 -90 122 -92 127
-2 4 8 7 22 7 43 0 74 18 92 52 14 28 16 52 11 168 -4 74 -15 178 -27 231
l-20 97 35 58 c19 32 50 93 67 136 50 123 17 114 848 227 182 25 294 37 537
56 283 22 282 22 381 -27 80 -41 84 -42 97 -24 8 10 16 24 18 29 2 7 52 -3
133 -26 171 -48 214 -55 214 -33 0 20 -47 65 -112 107 -53 35 -59 46 -25 54
12 2 54 12 92 20 168 37 295 88 273 110 -35 35 -1206 97 -2089 111 -235 4
-431 9 -436 13 -4 3 -20 24 -34 46 -75 115 -174 192 -312 245 -90 35 -303 170
-311 198 -19 68 -38 338 -63 878 l-17 384 27 28 c30 31 35 67 12 76 -21 8 -19
29 10 86 14 27 25 59 25 71 0 19 -4 21 -40 16 -25 -3 -43 0 -49 7 -6 7 -22 69
-36 138 -27 139 -39 178 -55 178 -15 0 -20 -16 -39 -137 l-16 -108 -170 -7
c-94 -3 -255 -13 -360 -22 -230 -19 -215 -19 -215 -1 0 51 86 159 185 233 33
24 60 49 60 56 0 6 -22 12 -54 14 l-54 3 63 58 c46 42 62 62 57 74 -8 21 -17
21 -149 -8z m86 -33 c-17 -15 -50 -43 -72 -63 -58 -50 -55 -63 13 -57 30 3 55
2 55 -1 0 -3 -15 -16 -33 -28 -61 -42 -137 -127 -164 -183 -33 -69 -30 -65
-48 -50 -20 17 -32 5 -15 -15 15 -19 16 -18 -39 -34 -84 -24 -25 -29 134 -10
181 21 702 42 755 31 l34 -8 -89 -61 c-133 -91 -135 -93 -135 -107 0 -8 16
-17 36 -21 20 -3 33 -10 28 -15 -5 -4 -49 -20 -99 -35 -161 -48 -320 -141
-382 -222 -27 -35 -28 -41 -28 -147 0 -101 3 -118 33 -191 37 -95 123 -237
247 -413 95 -134 207 -252 510 -538 88 -83 179 -175 202 -205 87 -113 150
-226 186 -336 39 -116 72 -282 59 -295 -4 -4 -31 9 -59 29 -71 49 -83 42 -83
-47 l0 -71 -32 3 -33 3 4 96 c5 161 -49 313 -164 451 -79 97 -215 178 -297
178 -36 0 -17 -19 35 -34 100 -29 237 -139 300 -243 53 -85 107 -256 107 -338
0 -34 -13 -31 -31 7 -8 17 -20 34 -28 36 -16 5 -14 -5 15 -80 22 -58 14 -70
-40 -58 -61 13 -71 30 -69 108 l2 67 -20 -25 c-21 -25 -22 -51 -3 -124 7 -28
6 -29 -22 -22 -139 34 -255 152 -310 316 -15 43 -19 84 -19 193 0 75 -3 137
-7 137 -25 0 -37 -180 -18 -281 24 -127 134 -296 225 -345 19 -10 35 -21 35
-24 0 -4 -36 -12 -80 -19 l-79 -13 -73 42 c-208 119 -389 289 -595 557 -52 68
-103 128 -115 134 -32 17 -61 3 -90 -43 l-28 -42 0 31 c0 36 42 202 66 262 17
43 34 54 34 22 0 -34 20 -75 31 -64 19 19 -38 164 -122 308 -184 315 -322 497
-593 785 -105 112 -269 290 -301 328 l-27 33 51 -20 c53 -22 218 -65 286 -77
45 -7 70 -21 135 -74 51 -42 96 -60 152 -60 55 0 94 20 164 82 44 40 75 58
110 67 90 23 114 39 114 77 0 108 -176 372 -315 472 l-30 22 43 -6 c26 -4 42
-3 42 4 0 14 -25 22 -71 22 -21 0 -39 4 -39 8 0 15 300 158 405 192 90 30 234
68 260 69 17 0 16 -3 -11 -27z m625 -264 c6 -35 14 -75 17 -90 5 -25 3 -28
-20 -28 -13 0 -28 5 -31 10 -9 15 5 181 15 175 4 -2 13 -33 19 -67z m-1223
-59 c61 -47 177 -182 221 -256 14 -25 37 -75 50 -110 28 -77 24 -84 -48 -108
-68 -23 -91 -18 -101 23 -5 19 -32 57 -62 88 -46 47 -57 54 -92 54 -54 0 -134
-48 -216 -131 l-67 -67 -88 19 c-86 19 -261 72 -296 90 -22 12 -22 51 1 78 17
22 18 22 77 6 96 -25 305 -47 344 -35 53 15 138 70 150 97 9 20 7 35 -15 84
-31 69 -82 119 -148 144 -26 10 -43 21 -39 25 13 12 109 41 161 49 67 10 105
-1 168 -50z m-266 -67 c55 -34 110 -112 110 -156 0 -29 -6 -36 -67 -70 -66
-37 -70 -38 -143 -32 -97 8 -263 36 -273 46 -5 4 -6 18 -2 30 10 30 117 133
190 182 53 35 65 39 100 34 22 -4 60 -19 85 -34z m1533 -62 c4 -16 14 -20 46
-20 23 0 41 -2 41 -4 0 -2 -11 -28 -25 -58 -29 -61 -32 -93 -9 -106 14 -8 12
-14 -11 -48 l-27 -39 6 -195 c12 -332 51 -945 66 -1029 12 -66 25 -82 115
-133 38 -23 72 -43 75 -45 13 -12 -33 -23 -96 -23 l-71 0 -97 82 c-81 69 -94
85 -82 94 20 14 10 24 -24 24 -47 0 -63 30 -56 102 3 35 13 248 21 473 8 226
20 518 25 650 l10 240 33 27 c38 33 53 35 60 8z m-127 -207 c-4 -82 -18 -388
-30 -681 -13 -293 -26 -535 -29 -538 -22 -22 -347 415 -425 571 -54 107 -82
195 -89 275 -7 83 16 133 87 189 96 76 197 123 373 176 48 14 87 30 87 36 0 5
-16 19 -35 30 -19 12 -35 22 -35 24 0 7 84 65 93 65 6 0 7 -55 3 -147z m-1184
-50 c-64 -61 -92 -117 -92 -183 0 -29 -5 -50 -11 -50 -17 0 -98 59 -109 81
-15 26 13 71 76 123 62 52 110 76 152 76 l34 0 -50 -47z m101 -11 c26 -28 48
-91 41 -115 -16 -54 -112 -120 -166 -115 -31 3 -33 6 -36 45 -4 55 30 134 75
173 39 34 63 38 86 12z m183 -1470 c-19 -60 -41 -154 -49 -208 l-14 -99 -12
60 c-16 72 -9 153 19 227 24 65 81 158 87 141 2 -7 -12 -61 -31 -121z m1375 4
c76 -17 184 -68 249 -120 51 -40 140 -144 140 -163 0 -15 -47 -17 -102 -4 -29
7 -38 6 -38 -4 0 -20 48 -24 445 -30 204 -3 456 -10 560 -15 105 -5 375 -17
600 -25 226 -9 471 -20 545 -25 74 -6 209 -15 300 -21 91 -5 172 -13 180 -16
22 -8 -10 -19 -204 -68 -93 -24 -173 -48 -179 -54 -7 -7 -1 -14 17 -21 39 -14
161 -103 149 -107 -6 -2 -68 12 -137 32 -151 42 -164 43 -176 10 -5 -14 -12
-25 -14 -25 -3 0 -31 16 -63 35 -82 50 -121 59 -202 46 -36 -6 -138 -15 -226
-21 -164 -11 -743 -79 -895 -105 -47 -8 -134 -21 -194 -30 -59 -8 -126 -20
-147 -25 -58 -16 -105 -62 -129 -128 -35 -92 -78 -167 -131 -224 l-50 -53 6
35 c11 63 17 239 10 257 -11 24 -24 -41 -24 -117 -1 -69 -24 -160 -56 -222
-34 -65 -33 -93 1 -53 74 88 126 127 145 108 15 -15 41 -256 37 -351 -3 -94
-15 -112 -75 -112 -25 0 -44 11 -85 50 -29 28 -54 46 -56 40 -2 -5 30 -56 72
-112 236 -321 396 -550 430 -616 15 -29 15 -32 0 -32 -9 0 -53 20 -98 45 -46
25 -88 45 -95 45 -6 0 -16 -11 -21 -25 -5 -14 -13 -25 -18 -25 -22 0 -142 170
-142 201 0 28 -23 19 -31 -12 -4 -13 -8 -53 -8 -89 -1 -73 -9 -110 -23 -110
-5 0 -27 17 -49 38 -23 20 -46 37 -52 37 -6 0 -33 -28 -58 -63 -46 -61 -47
-62 -53 -35 -11 55 -26 203 -51 510 -13 171 -29 323 -35 338 -10 25 -14 27
-48 21 -84 -16 -171 -25 -227 -26 -61 0 -290 35 -333 51 l-24 9 19 32 c18 31
24 34 101 44 113 16 213 48 302 96 143 76 240 169 240 229 0 21 6 29 30 38 29
10 30 12 30 75 0 37 4 66 8 66 4 0 24 -12 43 -26 19 -14 47 -32 63 -41 l29
-15 -6 98 c-10 163 -70 346 -162 490 -51 80 -182 240 -217 265 -15 11 -28 25
-28 30 0 14 136 11 211 -5z m-1733 -225 c93 -20 112 -32 96 -59 -15 -24 -127
-79 -204 -99 -94 -26 -381 -23 -459 3 -30 11 -56 24 -58 30 -5 15 136 87 210
109 135 39 285 45 415 16z m450 2 c11 -10 60 -70 108 -133 182 -236 394 -436
567 -534 l78 -44 -78 -42 c-43 -23 -101 -59 -129 -81 -27 -21 -81 -51 -120
-66 -77 -32 -86 -50 -36 -73 31 -15 31 -17 16 -38 -22 -31 -43 -28 -113 19
-102 68 -328 305 -309 325 3 2 25 0 49 -5 64 -15 105 -13 120 5 12 14 9 30
-20 111 -35 101 -122 303 -147 341 -21 32 -48 27 -89 -15 l-37 -38 7 70 c7 78
28 134 69 183 32 37 37 38 64 15z m-196 -38 c5 -21 6 -40 3 -44 -7 -6 -138
-21 -143 -16 -14 13 100 106 123 101 5 -1 13 -20 17 -41z m-875 -130 c4 -12
-65 -40 -74 -31 -4 3 2 15 12 26 19 21 56 24 62 5z m103 -34 c0 -14 -41 -41
-52 -35 -14 9 12 44 32 44 11 0 20 -4 20 -9z m980 -133 c49 -105 120 -288 120
-309 0 -17 -102 -5 -147 18 -20 10 -43 29 -52 42 -16 24 -15 24 14 16 17 -4
37 -8 45 -9 25 -2 15 56 -24 138 -39 81 -63 96 -84 54 -9 -20 -11 -16 -11 29
-1 45 4 57 30 88 17 19 38 35 46 35 9 0 34 -41 63 -102z m-30 -195 c0 -20 -34
-15 -64 8 -29 23 -35 73 -15 112 11 19 14 16 45 -44 18 -35 33 -70 34 -76z
m1240 -176 c16 -8 26 -23 28 -40 3 -23 -9 -40 -65 -96 -124 -124 -318 -200
-553 -217 -90 -7 -167 7 -176 31 -8 19 32 91 78 141 71 77 211 149 348 178 84
18 306 20 340 3z m-760 -226 c0 -16 -30 -33 -47 -26 -17 6 -17 7 1 21 22 16
46 19 46 5z m-10 -126 l23 -24 -29 -12 c-37 -14 -94 -24 -94 -16 0 9 61 77 69
77 4 0 18 -11 31 -25z m159 -52 c-27 -37 -53 -63 -61 -63 -10 0 -11 64 -1 73
3 4 22 7 41 7 31 0 33 -2 21 -17z m614 -110 c12 -22 17 -83 7 -83 -16 0 -120
63 -120 72 0 4 21 9 48 11 26 2 50 4 54 5 4 1 9 -1 11 -5z"/>
<path d="M420 3572 c0 -4 20 -24 44 -45 36 -30 45 -33 50 -21 7 17 49 12 74
-8 17 -15 -3 -38 -34 -38 -31 0 -31 -16 0 -24 34 -8 52 1 66 35 17 40 4 53
-67 69 -32 7 -70 19 -85 26 -30 16 -48 18 -48 6z"/>
<path d="M868 3715 c-30 -27 -38 -41 -38 -69 0 -43 14 -53 45 -32 32 21 57 70
53 103 -4 38 -18 37 -60 -2z"/>
</g>
</svg>
