<?xml version="1.0" standalone="no"?>
<!DOCTYPE svg PUBLIC "-//W3C//DTD SVG 20010904//EN"
 "http://www.w3.org/TR/2001/REC-SVG-20010904/DTD/svg10.dtd">
<svg version="1.0" xmlns="http://www.w3.org/2000/svg"
 width="300.000000pt" height="300.000000pt" viewBox="0 0 300.000000 300.000000"
 preserveAspectRatio="xMidYMid meet">

<g transform="translate(0.000000,300.000000) scale(0.100000,-0.100000)"
fill="#000000" stroke="none">
<path d="M1051 2906 c-11 -28 -39 -173 -43 -225 l-3 -33 -42 64 c-51 77 -113
140 -113 115 0 -29 41 -210 56 -247 13 -32 12 -39 -6 -75 -11 -21 -20 -56 -20
-77 0 -34 -6 -42 -70 -94 -63 -50 -78 -74 -49 -74 6 0 8 4 5 8 -3 5 24 33 59
63 55 47 64 59 65 89 1 38 31 113 50 125 6 4 2 -12 -10 -35 -12 -23 -20 -50
-17 -60 2 -9 0 -24 -5 -33 -7 -13 -5 -15 5 -11 8 3 19 16 26 30 15 34 14 42
-4 18 -13 -18 -14 -18 -15 -1 0 39 59 127 87 127 9 0 13 17 13 58 0 58 25 228
40 266 6 17 13 9 43 -45 44 -79 60 -120 50 -128 -4 -4 -19 -19 -33 -36 -16
-19 -18 -24 -6 -15 18 14 19 13 13 -10 -4 -14 -9 -50 -12 -80 -5 -52 -4 -51 9
15 8 39 19 84 26 100 l12 30 15 -40 c8 -22 17 -52 19 -68 2 -15 10 -40 18 -56
13 -25 13 -30 -2 -46 -16 -17 -16 -18 0 -6 14 10 18 9 27 -8 16 -30 13 -52
-11 -78 -12 -13 -16 -23 -10 -23 6 0 17 9 25 20 18 26 27 16 27 -31 0 -60 -35
-158 -70 -194 -20 -21 -28 -35 -21 -39 6 -4 11 -1 11 7 0 24 114 112 215 166
22 11 32 21 24 21 -9 0 -51 -22 -93 -50 -42 -27 -78 -50 -81 -50 -13 0 33 101
59 130 17 19 21 26 8 16 -27 -23 -28 -22 -46 37 -13 44 -13 46 8 50 17 3 15 5
-6 6 -38 2 -37 32 3 65 17 14 27 26 23 26 -4 0 -20 -12 -36 -27 -21 -20 -29
-23 -32 -12 -3 8 -22 64 -41 124 -36 109 -90 220 -119 245 -13 10 -17 8 -25
-14z m-100 -193 c32 -46 59 -91 58 -101 0 -9 -13 -27 -30 -40 -37 -30 -38 -21
-2 13 15 14 22 25 16 25 -7 0 -15 -4 -18 -10 -12 -19 -25 -10 -40 26 -8 19
-23 47 -33 62 -11 15 -22 44 -26 65 -4 21 -10 46 -13 55 -13 34 27 -10 88 -95z
m-17 -105 c9 -24 11 -40 5 -44 -14 -8 -15 -7 -33 56 -13 45 -14 52 -2 40 8 -8
21 -32 30 -52z"/>
<path d="M1047 2763 c-4 -3 -6 -25 -6 -47 l2 -41 6 35 7 35 12 -40 c14 -47 15
-65 4 -65 -10 0 -36 -70 -28 -77 3 -3 10 7 16 22 10 27 11 27 26 9 13 -17 14
-15 10 26 -4 41 -33 150 -40 150 -1 0 -6 -3 -9 -7z"/>
<path d="M2120 2670 c-8 -5 -34 -10 -58 -10 -38 0 -102 -22 -102 -36 0 -2 13
2 30 11 16 8 46 15 66 15 21 0 52 5 70 12 38 14 79 0 116 -39 l23 -25 -27 -22
c-16 -12 -28 -27 -28 -34 0 -14 -56 -16 -65 -2 -3 6 -11 10 -16 10 -6 0 -4 -7
5 -15 20 -21 75 -20 83 2 4 9 18 27 32 39 l26 22 -25 27 c-45 48 -97 66 -130
45z"/>
<path d="M1031 2644 c0 -11 3 -14 6 -6 3 7 2 16 -1 19 -3 4 -6 -2 -5 -13z"/>
<path d="M1415 2630 c-3 -6 1 -7 9 -4 18 7 21 14 7 14 -6 0 -13 -4 -16 -10z"/>
<path d="M1918 2613 c6 -2 18 -2 25 0 6 3 1 5 -13 5 -14 0 -19 -2 -12 -5z"/>
<path d="M1627 2589 c7 -7 15 -10 18 -7 3 3 -2 9 -12 12 -14 6 -15 5 -6 -5z"/>
<path d="M1874 2578 c-11 -13 -24 -30 -29 -38 -6 -9 -2 -7 8 5 10 11 27 28 39
38 11 9 16 17 11 17 -5 0 -18 -10 -29 -22z"/>
<path d="M1455 2570 c17 -4 39 -11 50 -14 13 -5 12 -2 -5 8 -14 8 -36 15 -50
15 -23 -1 -22 -2 5 -9z"/>
<path d="M1721 2545 c0 -11 6 -29 14 -39 8 -11 15 -15 15 -10 0 6 -4 14 -9 20
-5 5 -11 18 -14 29 l-5 20 -1 -20z"/>
<path d="M2060 2550 c-13 -8 -12 -10 3 -10 9 0 17 5 17 10 0 12 -1 12 -20 0z"/>
<path d="M1571 2547 c2 -1 13 -9 24 -17 19 -14 19 -14 6 3 -7 9 -18 17 -24 17
-6 0 -8 -1 -6 -3z"/>
<path d="M978 2523 c-18 -21 -31 -43 -25 -43 2 0 13 14 25 30 25 33 24 41 0
13z"/>
<path d="M1962 2512 c-15 -15 -58 -45 -96 -66 -38 -20 -76 -46 -85 -58 -15
-18 -20 -19 -39 -7 -17 11 -24 11 -34 1 -11 -11 -10 -12 5 -6 9 3 24 1 32 -6
12 -10 21 -7 50 19 39 34 106 71 129 71 8 0 16 -6 19 -12 2 -7 3 -6 2 2 -3 29
25 70 53 76 45 10 48 12 19 13 -19 1 -38 -8 -55 -27z"/>
<path d="M1111 2526 c2 -2 20 -6 39 -10 25 -4 31 -3 20 4 -14 9 -69 15 -59 6z"/>
<path d="M1626 2507 c3 -10 9 -15 12 -12 3 3 0 11 -7 18 -10 9 -11 8 -5 -6z"/>
<path d="M1325 2500 c11 -5 29 -8 40 -8 16 0 15 2 -5 8 -34 11 -60 11 -35 0z"/>
<path d="M1443 2480 c14 -11 31 -20 39 -20 8 0 19 -5 26 -12 9 -9 12 -9 12 0
0 7 -13 15 -30 18 -16 4 -35 13 -41 20 -6 8 -16 14 -22 14 -5 0 2 -9 16 -20z"/>
<path d="M1810 2490 c-9 -6 -10 -10 -3 -10 6 0 15 5 18 10 8 12 4 12 -15 0z"/>
<path d="M1395 2460 c-4 -6 1 -7 11 -3 13 5 15 3 9 -7 -5 -9 -4 -11 3 -6 7 4
12 11 12 17 0 12 -27 12 -35 -1z"/>
<path d="M1020 2426 c-47 -25 -59 -35 -45 -38 38 -7 74 3 68 19 -3 8 0 19 8
24 21 13 32 11 25 -7 -8 -21 11 -8 24 17 15 28 -3 24 -80 -15z m10 -15 c0 -5
-10 -11 -22 -14 -22 -6 -22 -6 -4 8 23 17 26 18 26 6z"/>
<path d="M1360 2440 c-8 -5 -12 -12 -9 -15 4 -3 12 1 19 10 14 17 11 19 -10 5z"/>
<path d="M1657 2435 c2 -7 13 -11 24 -8 25 7 24 10 -5 15 -16 3 -23 1 -19 -7z"/>
<path d="M2143 2443 c9 -2 23 -2 30 0 6 3 -1 5 -18 5 -16 0 -22 -2 -12 -5z"/>
<path d="M2088 2433 c7 -3 16 -2 19 1 4 3 -2 6 -13 5 -11 0 -14 -3 -6 -6z"/>
<path d="M1376 2388 c-14 -23 -24 -44 -22 -45 2 -2 32 10 67 27 35 16 53 29
39 27 -14 -2 -36 -9 -48 -16 -31 -17 -37 -8 -17 23 10 14 15 26 12 26 -3 0
-17 -19 -31 -42z"/>
<path d="M1148 2413 c-16 -2 -28 -8 -28 -13 0 -5 17 -4 38 2 61 17 57 21 -10
11z"/>
<path d="M1491 2394 c0 -11 3 -14 6 -6 3 7 2 16 -1 19 -3 4 -6 -2 -5 -13z"/>
<path d="M1888 2403 c-47 -4 -79 -25 -58 -38 5 -3 10 1 10 9 0 12 11 16 43 17
23 1 56 5 72 9 26 7 27 8 5 7 -14 0 -46 -2 -72 -4z"/>
<path d="M2280 2400 c0 -6 7 -10 15 -10 8 0 15 2 15 4 0 2 -7 6 -15 10 -8 3
-15 1 -15 -4z"/>
<path d="M2328 2383 c6 -2 18 -2 25 0 6 3 1 5 -13 5 -14 0 -19 -2 -12 -5z"/>
<path d="M1067 2369 c7 -7 15 -10 18 -7 3 3 -2 9 -12 12 -14 6 -15 5 -6 -5z"/>
<path d="M2378 2373 c7 -3 16 -2 19 1 4 3 -2 6 -13 5 -11 0 -14 -3 -6 -6z"/>
<path d="M988 2363 c12 -2 30 -2 40 0 9 3 -1 5 -23 4 -22 0 -30 -2 -17 -4z"/>
<path d="M1452 2309 l-33 -62 50 5 c28 3 48 2 46 -2 -10 -17 -193 -115 -244
-131 -31 -10 -49 -18 -40 -18 22 -1 129 36 146 51 8 6 46 30 86 53 l71 42 19
-23 c14 -18 28 -24 57 -24 24 0 40 -5 44 -15 4 -11 21 -15 59 -15 30 0 74 7
97 15 23 8 62 15 86 15 31 0 57 8 86 26 23 15 54 30 68 35 18 5 20 8 6 8 -10
1 -41 -12 -68 -29 -34 -21 -61 -30 -92 -30 -24 0 -63 -7 -86 -15 -51 -18 -137
-20 -142 -3 -2 6 -26 14 -54 17 -46 6 -50 9 -70 49 -12 24 -31 53 -42 65 -10
12 -17 28 -15 35 11 28 -4 8 -35 -49z m65 -16 c3 -8 0 -19 -8 -24 -17 -11 -72
-12 -67 -1 29 60 31 61 50 51 11 -6 22 -17 25 -26z"/>
<path d="M2420 2363 c8 -3 24 -10 35 -15 20 -9 20 -9 1 6 -11 9 -27 16 -35 15
-14 0 -14 -1 -1 -6z"/>
<path d="M923 2353 c9 -2 23 -2 30 0 6 3 -1 5 -18 5 -16 0 -22 -2 -12 -5z"/>
<path d="M1120 2346 c14 -8 31 -15 39 -16 16 0 7 13 -12 16 -7 1 -21 5 -32 9
-14 4 -12 2 5 -9z"/>
<path d="M1600 2353 c8 -3 29 -12 47 -20 17 -8 44 -13 60 -10 24 3 23 4 -8 6
-20 0 -42 8 -49 16 -7 8 -24 15 -39 14 -15 0 -20 -3 -11 -6z"/>
<path d="M1404 2292 c-60 -92 -66 -102 -61 -102 7 0 99 141 95 145 -2 2 -17
-18 -34 -43z"/>
<path d="M1763 2333 c9 -2 23 -2 30 0 6 3 -1 5 -18 5 -16 0 -22 -2 -12 -5z"/>
<path d="M2461 2322 c-1 -7 11 -29 25 -47 18 -23 24 -41 20 -57 l-6 -23 11 22
c10 19 8 28 -13 55 -14 18 -27 40 -31 48 -4 10 -6 11 -6 2z"/>
<path d="M812 2272 c5 -20 3 -22 -15 -18 -12 3 -8 -1 10 -9 17 -8 70 -22 117
-31 69 -14 86 -21 86 -35 0 -9 5 -19 12 -21 7 -3 13 -15 13 -29 1 -13 7 -34
13 -46 17 -30 15 -33 -13 -33 -18 0 -26 7 -31 25 -3 14 -4 31 -1 39 3 8 -3 22
-14 32 -15 13 -16 19 -7 26 9 5 9 8 1 8 -6 0 -20 3 -30 7 -14 5 -12 -1 8 -23
16 -17 28 -44 31 -66 l4 -37 -42 4 c-23 2 -54 7 -68 11 -14 3 -26 3 -26 -1 0
-9 98 -105 107 -105 4 0 16 -7 27 -16 12 -9 -8 11 -44 46 l-65 62 40 -6 c22
-4 61 -9 88 -13 42 -5 47 -8 47 -31 0 -14 -10 -37 -22 -50 l-23 -25 22 12 c38
19 46 87 19 160 -20 54 -20 57 1 40 14 -12 14 -10 -1 14 -10 15 -23 27 -30 27
-6 0 -4 5 4 10 12 8 10 10 -10 10 -14 0 -56 7 -95 15 -53 11 -76 21 -94 42
-23 26 -24 27 -19 5z"/>
<path d="M1008 2273 c6 -2 18 -2 25 0 6 3 1 5 -13 5 -14 0 -19 -2 -12 -5z"/>
<path d="M2104 2273 c27 -4 91 -44 108 -68 16 -21 7 6 -11 36 -13 20 -21 26
-24 17 -5 -10 -8 -9 -17 5 -8 12 -22 17 -48 16 -33 -2 -34 -2 -8 -6z"/>
<path d="M1083 2184 c3 -11 8 -32 12 -48 6 -27 5 -28 -11 -15 -15 12 -15 10 1
-13 17 -22 21 -24 27 -10 10 26 9 44 -2 37 -6 -4 -10 6 -10 24 0 16 -5 33 -11
37 -7 4 -9 0 -6 -12z"/>
<path d="M1131 2182 c-7 -13 -10 -26 -7 -30 3 -3 6 1 7 9 1 8 4 3 8 -11 9 -33
20 -5 11 30 l-6 25 -13 -23z"/>
<path d="M2220 2180 c0 -11 89 -44 97 -36 3 3 0 6 -8 6 -8 0 -31 9 -52 19 -20
10 -37 15 -37 11z"/>
<path d="M2475 2144 c-9 -15 -12 -23 -6 -20 11 7 35 46 28 46 -3 0 -12 -12
-22 -26z"/>
<path d="M1415 2121 c1 -22 15 -46 42 -74 54 -57 83 -101 83 -126 0 -12 4 -21
9 -21 5 0 14 -13 21 -29 6 -16 23 -44 36 -62 20 -27 21 -34 9 -43 -23 -18 -36
-91 -36 -202 0 -103 -1 -104 -18 -82 -39 50 -53 89 -49 142 3 28 8 60 12 71 6
16 6 17 -3 5 -8 -12 -11 -4 -11 31 0 31 -7 55 -20 71 -10 14 -16 28 -13 32 3
3 -3 6 -13 6 -25 0 -129 92 -149 131 -17 32 -20 85 -5 94 6 3 10 11 10 18 0 6
-7 2 -15 -9 -28 -37 -12 -107 38 -162 28 -30 14 -42 -55 -49 -48 -4 -58 -2
-85 21 -31 26 -60 87 -49 104 3 5 -3 17 -14 27 -16 14 -17 20 -8 27 10 6 8 8
-4 8 -22 0 -23 -13 -3 -30 8 -7 15 -24 15 -37 0 -39 31 -94 64 -114 38 -23 97
-24 142 -3 39 18 36 20 117 -55 l37 -35 0 -107 c0 -92 4 -119 31 -200 23 -70
29 -103 25 -134 -12 -76 -19 -76 -90 -6 -36 36 -63 68 -60 73 3 4 -2 8 -11 8
-10 0 -13 5 -9 12 4 7 3 8 -5 4 -15 -9 -12 -13 84 -110 96 -98 128 -154 133
-233 5 -73 -1 -76 -63 -38 -48 30 -74 33 -27 4 36 -24 41 -33 12 -24 -12 4
-20 2 -20 -5 0 -6 4 -9 9 -5 17 10 65 -40 58 -59 -4 -11 -12 -14 -19 -10 -8 5
-7 0 2 -11 14 -17 15 -16 24 15 8 28 7 35 -15 51 -26 20 -19 25 12 8 17 -8 23
-7 34 7 11 16 13 10 20 -42 9 -83 21 -97 21 -24 -1 33 -4 60 -7 60 -4 0 -10
24 -13 53 -4 29 -14 66 -21 81 -19 35 -19 40 -1 33 8 -3 -2 11 -24 33 l-38 38
15 54 c16 52 12 101 -12 173 -5 15 -1 13 15 -7 12 -16 25 -28 28 -28 4 0 5 48
3 107 -3 103 11 213 28 213 12 0 101 -97 101 -110 0 -13 -1 -13 -45 6 -61 25
-50 10 16 -21 82 -40 90 -51 42 -64 -75 -19 -77 -20 -32 -16 l46 4 37 -100
c21 -55 35 -107 32 -115 -3 -9 20 -59 54 -117 33 -55 60 -97 60 -91 0 5 -22
47 -50 94 -27 47 -50 96 -50 109 0 14 -17 69 -37 125 -25 68 -33 101 -25 104
17 5 15 42 -2 42 -8 0 -27 24 -44 53 -16 28 -50 77 -74 107 -25 30 -63 93 -86
140 -22 47 -61 108 -86 137 -25 28 -46 57 -46 65 0 7 -4 19 -9 27 -6 9 -8 3
-6 -18z"/>
<path d="M2355 2124 c16 -8 45 -13 65 -11 34 4 34 4 -7 5 -23 1 -45 7 -48 12
-3 6 -14 10 -23 10 -11 0 -6 -6 13 -16z"/>
<path d="M1472 2114 c10 -10 20 -16 22 -13 3 3 -5 11 -17 18 -21 13 -21 12 -5
-5z"/>
<path d="M1340 2100 c-11 -7 -5 -8 20 -4 43 8 51 14 19 14 -13 0 -31 -5 -39
-10z"/>
<path d="M1543 2103 c9 -2 23 -2 30 0 6 3 -1 5 -18 5 -16 0 -22 -2 -12 -5z"/>
<path d="M1740 2103 c14 -3 29 -9 35 -14 5 -5 16 -9 25 -9 8 0 2 7 -14 15 -15
8 -38 14 -50 14 -18 -2 -17 -2 4 -6z"/>
<path d="M1175 2090 c-4 -6 -10 -8 -14 -6 -3 3 -7 -4 -7 -15 0 -13 7 -19 21
-18 11 0 14 3 8 6 -9 3 -10 10 -3 24 11 19 6 27 -5 9z"/>
<path d="M1668 2093 c6 -2 18 -2 25 0 6 3 1 5 -13 5 -14 0 -19 -2 -12 -5z"/>
<path d="M2107 2065 c-15 -14 -24 -25 -19 -25 5 0 17 9 27 20 20 23 83 28 103
8 8 -8 12 -8 12 -1 0 32 -86 30 -123 -2z"/>
<path d="M1850 2076 c0 -2 15 -6 34 -8 19 -2 32 0 30 4 -5 8 -64 12 -64 4z"/>
<path d="M2248 2053 c8 -3 11 -17 7 -41 -5 -36 -5 -36 5 -7 11 34 7 55 -12 54
-11 0 -11 -2 0 -6z"/>
<path d="M1968 2033 c12 -2 32 -2 45 0 12 2 2 4 -23 4 -25 0 -35 -2 -22 -4z"/>
<path d="M2050 2030 c-9 -6 -10 -10 -3 -10 6 0 15 5 18 10 8 12 4 12 -15 0z"/>
<path d="M874 2003 c10 -12 15 -26 12 -32 -9 -14 14 -91 27 -91 5 0 6 8 1 18
-4 9 -8 32 -9 50 -1 21 -11 42 -26 55 l-23 22 18 -22z"/>
<path d="M1550 2010 c8 -5 20 -10 25 -10 6 0 3 5 -5 10 -8 5 -19 10 -25 10 -5
0 -3 -5 5 -10z"/>
<path d="M1600 2000 c-10 -6 -2 -7 25 -3 49 7 58 13 19 13 -16 0 -36 -5 -44
-10z"/>
<path d="M1728 1993 c6 -2 18 -2 25 0 6 3 1 5 -13 5 -14 0 -19 -2 -12 -5z"/>
<path d="M2067 1989 c7 -7 15 -10 18 -7 3 3 -2 9 -12 12 -14 6 -15 5 -6 -5z"/>
<path d="M1360 1956 c19 -21 49 -44 65 -52 17 -8 21 -9 11 -2 -11 7 -40 31
-65 53 l-46 39 35 -38z"/>
<path d="M2206 1917 c-27 -27 -40 -44 -29 -39 29 16 83 68 83 81 0 14 4 17
-54 -42z"/>
<path d="M933 1918 c-5 -23 -7 -50 -4 -58 3 -8 9 10 12 40 9 67 4 78 -8 18z"/>
<path d="M1878 1930 c12 -5 22 -15 22 -21 0 -7 3 -9 6 -6 10 10 -16 37 -35 36
-11 0 -9 -3 7 -9z"/>
<path d="M1468 1883 c7 -3 16 -2 19 1 4 3 -2 6 -13 5 -11 0 -14 -3 -6 -6z"/>
<path d="M1520 1880 c-9 -6 -10 -10 -3 -10 6 0 15 5 18 10 8 12 4 12 -15 0z"/>
<path d="M1930 1883 c14 -3 29 -9 35 -14 5 -5 16 -9 25 -9 8 0 2 7 -14 15 -15
8 -38 14 -50 14 -18 -2 -17 -2 4 -6z"/>
<path d="M2113 1863 c9 -2 23 -2 30 0 6 3 -1 5 -18 5 -16 0 -22 -2 -12 -5z"/>
<path d="M2038 1853 c12 -2 30 -2 40 0 9 3 -1 5 -23 4 -22 0 -30 -2 -17 -4z"/>
<path d="M891 1772 c0 -47 3 -71 9 -67 6 4 10 -6 10 -22 0 -20 -3 -24 -9 -14
-7 11 -10 9 -13 -9 -2 -15 -32 -49 -83 -91 -68 -58 -87 -69 -130 -74 -64 -9
-77 -16 -65 -35 8 -13 10 -12 10 3 0 11 8 17 24 17 13 0 32 3 42 7 13 5 11 -3
-10 -30 -22 -28 -32 -35 -42 -27 -10 9 -11 6 -7 -10 5 -17 -17 -44 -116 -138
-66 -65 -121 -124 -121 -132 1 -11 4 -10 15 5 32 43 180 184 183 175 2 -6 17
9 32 34 16 24 45 63 66 85 49 55 161 144 173 137 5 -3 21 13 36 36 22 34 26
47 20 77 -4 20 -11 61 -15 91 l-7 55 -2 -73z"/>
<path d="M1204 1826 c-27 -19 -79 -95 -70 -103 3 -3 6 -1 6 6 0 6 21 34 46 61
49 52 53 60 18 36z"/>
<path d="M923 1775 c0 -33 2 -45 4 -27 2 18 2 45 0 60 -2 15 -4 0 -4 -33z"/>
<path d="M1531 1734 c0 -11 3 -14 6 -6 3 7 2 16 -1 19 -3 4 -6 -2 -5 -13z"/>
<path d="M1148 1694 c11 -22 41 -50 45 -43 1 2 -11 18 -27 34 -20 20 -25 23
-18 9z"/>
<path d="M1390 1640 c-19 -6 -20 -8 -6 -9 15 -1 16 -4 6 -16 -16 -19 5 -29 47
-22 27 4 27 4 -4 6 -37 1 -40 7 -16 33 17 19 13 21 -27 8z"/>
<path d="M1248 1633 c7 -3 16 -2 19 1 4 3 -2 6 -13 5 -11 0 -14 -3 -6 -6z"/>
<path d="M1298 1623 c12 -2 30 -2 40 0 9 3 -1 5 -23 4 -22 0 -30 -2 -17 -4z"/>
<path d="M885 1580 c-13 -14 -21 -17 -26 -9 -4 8 -13 1 -23 -19 -24 -47 -20
-49 19 -12 l35 34 0 -32 c0 -35 -19 -84 -30 -77 -4 3 -10 -13 -13 -34 -5 -44
-30 -100 -55 -127 -10 -11 -25 -45 -35 -78 -9 -32 -19 -61 -22 -64 -12 -12
-14 7 -4 37 6 18 9 34 6 37 -3 3 -12 -20 -21 -50 -16 -55 -18 -56 -54 -57 -31
-2 -33 -3 -9 -6 16 -3 43 2 61 11 28 13 36 25 51 78 10 35 25 72 33 83 13 18
14 17 8 -15 -26 -139 -35 -207 -42 -291 -6 -93 -6 -98 22 -145 15 -27 43 -69
61 -93 36 -48 39 -64 22 -140 -10 -48 -12 -51 -37 -46 -20 4 -18 2 8 -9 28
-11 34 -18 32 -37 -1 -13 -13 -35 -26 -48 -27 -26 -23 -31 -46 58 -6 23 -14
41 -16 38 -3 -3 0 -24 6 -47 6 -24 9 -54 5 -67 -6 -25 -7 -24 -58 24 -62 59
-105 88 -115 79 -4 -4 -8 -56 -8 -114 l-2 -107 -46 -13 c-25 -7 -46 -18 -46
-24 0 -7 4 -7 13 0 18 15 77 27 118 23 66 -5 172 56 148 86 -9 9 -8 17 1 28 7
8 16 13 20 10 12 -8 70 63 70 85 0 11 -5 20 -11 20 -8 0 -9 12 -4 38 23 115
23 112 2 139 -15 18 -17 28 -9 31 21 7 13 20 -43 75 -51 49 -55 57 -55 98 0
57 26 251 39 292 6 18 17 61 25 97 20 91 55 180 71 180 7 0 16 10 19 23 5 17
12 6 30 -53 22 -74 60 -157 90 -195 25 -32 18 -8 -9 34 -14 21 -35 62 -46 91
l-20 53 36 53 c19 30 33 54 30 54 -2 0 -16 -17 -30 -37 l-25 -38 -2 40 c-1 39
-1 38 -7 -10 l-7 -50 -8 43 c-5 29 -4 48 3 55 6 6 11 15 11 21 0 5 -16 -6 -36
-25 l-36 -34 6 38 c8 43 6 44 -19 17z m-25 -808 c-6 -2 -18 4 -25 14 -24 31
-17 39 11 13 14 -13 20 -25 14 -27z m-116 -320 l59 -60 -54 -31 c-30 -17 -69
-31 -86 -31 -30 0 -33 3 -35 33 0 17 -2 46 -3 62 -2 17 0 51 2 77 l6 47 26
-19 c14 -10 52 -45 85 -78z"/>
<path d="M1791 1596 c2 -2 36 -6 74 -9 54 -4 61 -4 30 3 -40 9 -112 13 -104 6z"/>
<path d="M1065 1570 c-4 -12 -4 -24 -1 -27 3 -4 6 2 6 12 0 17 3 16 28 -6 l27
-24 -25 30 c-14 17 -26 31 -27 33 0 2 -4 -6 -8 -18z"/>
<path d="M1318 1553 c7 -3 16 -2 19 1 4 3 -2 6 -13 5 -11 0 -14 -3 -6 -6z"/>
<path d="M1395 1550 c-3 -6 1 -7 9 -4 18 7 21 14 7 14 -6 0 -13 -4 -16 -10z"/>
<path d="M1052 1505 c0 -16 2 -22 5 -12 2 9 2 23 0 30 -3 6 -5 -1 -5 -18z"/>
<path d="M1180 1520 c0 -5 5 -10 11 -10 5 0 7 5 4 10 -3 6 -8 10 -11 10 -2 0
-4 -4 -4 -10z"/>
<path d="M2040 1524 c0 -3 33 -21 73 -40 70 -34 71 -34 29 -29 -24 3 -71 8
-105 11 l-62 5 94 -35 c52 -19 132 -58 178 -85 46 -28 82 -47 79 -42 -9 14
-143 92 -203 118 -56 24 -57 24 -18 19 22 -3 65 -8 95 -11 l55 -7 -55 27 c-93
45 -160 74 -160 69z"/>
<path d="M1139 1486 c9 -18 18 -29 20 -24 2 5 14 -1 27 -13 22 -21 24 -21 23
-3 0 10 -5 28 -10 39 -7 16 -8 14 -4 -10 l5 -30 -35 38 c-19 20 -37 37 -39 37
-2 0 4 -15 13 -34z"/>
<path d="M1248 1468 c3 -12 7 -17 10 -10 2 7 9 9 15 5 7 -4 6 1 -2 10 -19 24
-30 21 -23 -5z"/>
<path d="M902 1455 c0 -16 2 -22 5 -12 2 9 2 23 0 30 -3 6 -5 -1 -5 -18z"/>
<path d="M764 1444 c-21 -14 -57 -44 -80 -65 -22 -22 -43 -36 -47 -33 -4 4 -7
-1 -7 -11 0 -14 9 -9 43 21 23 22 63 55 90 73 43 32 53 41 43 41 -2 0 -21 -12
-42 -26z"/>
<path d="M1043 1415 c0 -27 2 -38 4 -22 2 15 2 37 0 50 -2 12 -4 0 -4 -28z"/>
<path d="M1290 1455 c0 -7 61 -37 66 -33 2 3 -12 12 -31 21 -19 9 -35 15 -35
12z"/>
<path d="M1722 1378 l2 -73 5 70 6 70 34 -53 c18 -29 36 -51 38 -48 11 11 -59
106 -79 106 -4 0 -7 -33 -6 -72z"/>
<path d="M1161 1424 c0 -11 3 -14 6 -6 3 7 2 16 -1 19 -3 4 -6 -2 -5 -13z"/>
<path d="M1261 1424 c0 -11 3 -14 6 -6 3 7 2 16 -1 19 -3 4 -6 -2 -5 -13z"/>
<path d="M893 1340 c0 -41 2 -58 4 -37 2 20 2 54 0 75 -2 20 -4 3 -4 -38z"/>
<path d="M1176 1375 c6 -34 21 -55 38 -55 6 0 4 5 -4 10 -8 5 -20 24 -27 42
-13 32 -13 32 -7 3z"/>
<path d="M1349 1344 c41 -19 80 -39 88 -45 9 -8 13 -8 13 -1 0 12 -139 82
-161 81 -8 0 19 -16 60 -35z"/>
<path d="M1231 1317 c16 -13 118 -63 113 -56 -6 10 -98 59 -110 59 -4 0 -5 -2
-3 -3z"/>
<path d="M1712 1257 c-1 -34 2 -49 13 -53 26 -10 17 -34 -12 -35 -25 -2 -25
-2 -5 -6 13 -3 29 0 36 6 10 9 25 5 57 -14 24 -13 49 -25 54 -25 6 0 -12 13
-40 28 -93 52 -94 53 -98 102 l-3 45 -2 -48z"/>
<path d="M2370 1271 c40 -35 37 -37 -14 -16 -21 9 -36 11 -36 5 0 -5 4 -10 8
-10 11 0 124 -101 119 -106 -2 -3 -17 0 -32 6 -15 6 -29 9 -31 7 -2 -2 25 -30
59 -63 57 -55 58 -55 12 -6 -54 57 -54 62 6 31 40 -20 40 -20 30 0 -6 11 -34
39 -62 63 -48 40 -54 62 -10 38 32 -17 25 3 -11 31 -56 42 -74 52 -38 20z"/>
<path d="M1461 1229 c0 -30 4 -76 9 -104 6 -35 6 -19 3 50 -6 108 -14 142 -12
54z"/>
<path d="M1672 1250 c0 -14 2 -19 5 -12 2 6 2 18 0 25 -3 6 -5 1 -5 -13z"/>
<path d="M890 1232 c-8 -16 -28 -54 -44 -83 -27 -50 -28 -55 -16 -106 15 -70
70 -179 115 -228 l36 -40 -39 55 c-41 57 -82 143 -102 218 -11 41 -9 46 30
119 22 42 39 80 38 85 -2 6 -10 -4 -18 -20z"/>
<path d="M674 1225 c-3 -8 -4 -20 -2 -27 3 -7 7 -1 10 15 6 29 1 36 -8 12z"/>
<path d="M1352 1230 c5 -15 47 -199 54 -235 2 -11 17 -36 34 -55 l31 -35 -31
49 c-16 28 -30 59 -30 70 0 29 -47 206 -56 214 -4 4 -5 0 -2 -8z"/>
<path d="M1648 1189 c-17 -18 -17 -19 6 -19 19 0 23 4 19 20 -3 11 -6 20 -7
19 0 0 -9 -9 -18 -20z"/>
<path d="M540 1193 c0 -14 69 -78 76 -70 4 4 -1 10 -11 14 -18 6 -18 7 1 15
17 7 16 8 -4 4 -15 -3 -28 4 -42 21 -11 14 -20 21 -20 16z"/>
<path d="M467 1123 c18 -2 50 -2 70 0 21 2 7 4 -32 4 -38 0 -55 -2 -38 -4z"/>
<path d="M1880 1120 c8 -5 24 -10 34 -10 26 0 18 6 -19 14 -22 5 -26 4 -15 -4z"/>
<path d="M1152 1079 c15 -13 11 -21 -53 -88 l-71 -74 7 -52 c6 -49 4 -54 -21
-74 -20 -15 -22 -21 -10 -21 9 0 19 7 22 15 10 24 21 9 34 -44 9 -37 9 -55 0
-73 -11 -22 -10 -22 4 -4 20 25 20 42 1 96 -8 23 -15 69 -15 102 l0 60 66 69
c52 53 70 66 83 60 9 -5 54 -46 101 -90 63 -61 105 -91 162 -118 l77 -37 44
-95 c56 -119 66 -154 73 -261 9 -118 -9 -223 -42 -245 -22 -14 -25 -22 -22
-72 3 -55 4 -56 41 -69 66 -23 190 -36 236 -24 22 5 60 15 84 21 70 17 87 33
87 82 0 36 -6 49 -35 77 -19 18 -32 37 -29 42 3 4 -3 8 -12 8 -14 0 -7 -11 24
-43 36 -37 42 -49 42 -85 0 -40 -3 -44 -35 -58 -63 -26 -73 -21 -78 39 l-3 52
-2 -57 c-2 -60 -1 -59 -67 -72 -39 -8 -125 8 -137 25 -5 8 -7 36 -5 63 3 35 2
44 -6 31 -5 -9 -7 -37 -4 -61 5 -50 -2 -53 -58 -30 -33 14 -35 17 -35 65 0 40
4 51 19 56 11 3 24 20 31 38 14 40 30 245 28 357 l-2 85 -5 -80 c-6 -77 -6
-78 -14 -37 -5 23 -29 83 -53 134 -28 56 -41 94 -35 98 6 3 -15 18 -45 33 -52
26 -55 29 -38 42 17 12 16 13 -9 8 -47 -9 -73 5 -167 94 -104 99 -115 107
-150 118 -22 6 -23 6 -8 -6z"/>
<path d="M2245 1050 c3 -5 15 -15 27 -21 13 -7 18 -7 14 -1 -3 6 -1 12 6 15 7
2 2 2 -10 0 -15 -2 -21 0 -17 7 3 5 -1 10 -10 10 -9 0 -13 -4 -10 -10z"/>
<path d="M1894 1021 c21 -24 35 -29 16 -6 -17 20 -10 20 135 -5 65 -12 122
-19 128 -17 12 4 -150 33 -238 43 l-60 7 19 -22z"/>
<path d="M2405 1006 c50 -18 105 -40 123 -50 42 -22 54 -13 22 17 -18 17 -20
17 -9 3 12 -17 12 -19 -1 -14 -8 4 -54 23 -102 42 -48 20 -96 36 -105 36 -10
-1 23 -16 72 -34z"/>
<path d="M2500 1026 c0 -2 8 -10 18 -17 15 -13 16 -12 3 4 -13 16 -21 21 -21
13z"/>
<path d="M2300 1017 c0 -3 12 -12 26 -22 15 -9 23 -12 20 -6 -7 11 -46 35 -46
28z"/>
<path d="M1680 989 c50 -21 271 -70 293 -66 20 4 19 4 -4 6 -14 0 -88 17 -163
36 -142 36 -169 41 -126 24z"/>
<path d="M2215 980 c17 -4 39 -8 50 -8 16 0 15 2 -5 8 -14 4 -36 8 -50 8 -22
0 -22 -1 5 -8z"/>
<path d="M2371 963 c8 -13 20 -23 28 -23 8 0 12 1 10 3 -2 1 -15 11 -28 22
l-24 20 14 -22z"/>
<path d="M2298 963 c7 -3 16 -2 19 1 4 3 -2 6 -13 5 -11 0 -14 -3 -6 -6z"/>
<path d="M1645 863 c-4 -13 4 -26 32 -47 95 -74 130 -120 157 -207 14 -46 24
-84 22 -86 -1 -1 -32 39 -69 90 -37 51 -81 108 -98 127 -28 32 -30 33 -25 10
3 -14 6 -32 7 -40 0 -10 3 -8 8 5 7 16 24 -3 111 -120 68 -91 113 -165 133
-212 16 -41 31 -72 33 -70 3 2 -18 57 -45 123 -27 65 -58 151 -70 190 -21 72
-39 94 -162 206 -14 12 -24 29 -22 36 7 19 -4 14 -12 -5z"/>
<path d="M1031 622 c-8 -15 -61 -215 -86 -322 -4 -21 -3 -21 9 5 8 17 29 91
47 165 17 74 36 143 41 153 5 9 6 17 4 17 -3 0 -10 -8 -15 -18z"/>
<path d="M1738 573 c-2 -27 0 -68 5 -93 5 -25 12 -92 15 -150 l7 -105 6 115
c4 63 11 124 15 135 8 18 9 17 15 -10 6 -29 7 -29 8 -3 1 24 -52 158 -63 158
-2 0 -6 -21 -8 -47z m37 -96 c-10 -70 -25 -40 -24 48 l1 70 15 -34 c10 -24 12
-49 8 -84z"/>
<path d="M1821 314 c0 -11 3 -14 6 -6 3 7 2 16 -1 19 -3 4 -6 -2 -5 -13z"/>
<path d="M491 282 c-18 -33 -13 -58 14 -76 29 -19 46 -22 20 -3 -13 10 -17 22
-12 43 8 40 -7 64 -22 36z m10 -38 c-9 -28 -9 -29 -10 -3 -1 14 2 29 6 32 11
12 13 2 4 -29z"/>
<path d="M630 254 c-13 -34 -13 -74 1 -74 5 0 7 5 4 11 -12 18 5 77 23 82 16
4 16 5 -1 6 -10 1 -21 -10 -27 -25z"/>
<path d="M1831 264 c0 -11 3 -14 6 -6 3 7 2 16 -1 19 -3 4 -6 -2 -5 -13z"/>
<path d="M1842 210 c0 -14 2 -19 5 -12 2 6 2 18 0 25 -3 6 -5 1 -5 -13z"/>
<path d="M870 193 c-19 -9 -73 -19 -120 -24 l-85 -7 85 2 c63 1 97 7 130 23
25 12 41 22 35 22 -5 0 -26 -7 -45 -16z"/>
<path d="M1780 206 c0 -2 14 -14 30 -26 17 -12 30 -19 30 -16 0 2 -13 14 -30
26 -16 12 -30 19 -30 16z"/>
</g>
</svg>
