<?xml version="1.0" standalone="no"?>
<!DOCTYPE svg PUBLIC "-//W3C//DTD SVG 20010904//EN"
 "http://www.w3.org/TR/2001/REC-SVG-20010904/DTD/svg10.dtd">
<svg version="1.0" xmlns="http://www.w3.org/2000/svg"
 width="500.000000pt" height="500.000000pt" viewBox="0 0 500.000000 500.000000"
 preserveAspectRatio="xMidYMid meet">

<g transform="translate(0.000000,500.000000) scale(0.100000,-0.100000)"
fill="#000000" stroke="none">
<path d="M1885 3730 c-71 -55 -161 -116 -200 -136 -75 -39 -154 -94 -155 -107
0 -4 15 3 33 16 17 14 82 54 142 90 61 36 153 100 205 141 52 42 104 76 114
76 17 0 15 -6 -15 -36 -40 -42 -252 -222 -291 -247 -15 -9 -35 -17 -45 -17
-32 -1 -97 -37 -135 -75 -37 -37 -52 -31 -25 10 10 14 12 36 8 70 -5 45 -10
52 -41 67 -48 24 -93 23 -116 -3 -10 -12 -54 -48 -96 -80 -42 -32 -94 -80
-115 -106 -21 -27 -41 -50 -44 -53 -3 -3 -43 -54 -89 -115 -46 -60 -99 -127
-117 -148 -18 -20 -33 -40 -33 -45 0 -10 62 60 118 133 186 243 207 267 309
346 56 43 111 79 121 79 11 0 34 -5 51 -11 25 -9 31 -16 28 -30 -3 -12 -1 -17
5 -13 7 5 9 -2 5 -17 -18 -70 -19 -138 -3 -191 25 -86 21 -112 -30 -205 -25
-47 -44 -86 -42 -89 3 -2 18 21 33 51 30 57 44 65 65 39 8 -8 23 -20 34 -26
12 -6 4 5 -17 23 -35 31 -38 36 -28 62 15 38 14 81 -3 145 l-15 54 34 37 c33
37 61 52 156 85 25 9 54 24 65 34 10 9 53 45 94 78 41 34 106 91 144 128 38
36 75 66 83 66 7 0 30 -15 50 -34 36 -33 37 -35 23 -62 -8 -16 -18 -31 -21
-34 -6 -5 -14 -23 -53 -115 -10 -22 -44 -68 -76 -102 -54 -58 -59 -61 -66 -40
-9 31 -53 87 -67 87 -7 0 -2 -8 9 -18 29 -23 44 -54 44 -91 0 -34 -11 -39 -30
-16 -15 18 -79 19 -102 1 -51 -38 -44 -116 13 -152 45 -28 49 -41 14 -50 -46
-11 -94 5 -136 47 -21 21 -39 35 -39 31 0 -14 63 -74 88 -83 13 -5 34 -9 47
-9 21 0 35 -17 35 -43 0 -8 -21 -12 -60 -12 -37 -1 -64 -6 -72 -14 -11 -12
-10 -13 5 -7 46 16 69 17 120 6 30 -6 62 -17 71 -23 16 -12 13 -18 -34 -67
-45 -48 -51 -58 -47 -86 5 -28 0 -37 -32 -66 -21 -18 -53 -51 -72 -73 -22 -27
-11 -19 33 23 36 34 72 62 80 62 7 0 37 -22 66 -48 52 -46 53 -48 41 -80 -7
-20 -10 -66 -7 -112 l5 -78 -39 -22 c-22 -12 -37 -24 -35 -26 3 -3 21 5 41 17
l37 22 31 -32 c40 -41 74 -59 129 -67 24 -4 47 -12 51 -18 5 -7 8 -4 8 7 0 9
6 17 13 17 7 0 29 11 50 25 40 28 57 26 57 -5 0 -13 -20 -33 -56 -57 -46 -30
-57 -34 -65 -22 -7 11 -9 11 -9 1 0 -11 -12 -13 -52 -8 l-53 5 50 -12 50 -13
-49 -32 c-31 -20 -58 -30 -75 -28 -14 2 -20 1 -13 -1 23 -8 12 -18 -76 -69
-154 -91 -148 -89 -206 -69 -46 17 -97 46 -196 112 -52 35 -112 92 -148 142
-18 24 -32 38 -32 31 0 -9 -13 -11 -47 -7 -33 4 -40 3 -23 -3 14 -4 37 -8 51
-9 29 -1 108 -86 110 -118 0 -10 5 -27 10 -38 7 -15 8 -12 3 13 -6 34 5 42 26
17 6 -8 37 -31 67 -51 l55 -37 -35 -35 c-19 -19 -40 -32 -46 -28 -6 4 -19 27
-30 51 -21 47 -33 60 -24 25 5 -18 0 -20 -43 -21 -27 -1 -41 -3 -31 -6 15 -4
14 -9 -14 -46 l-31 -42 39 43 c48 53 85 57 108 12 20 -39 43 -38 85 5 33 34
34 34 59 18 14 -9 31 -24 38 -32 9 -11 12 -12 13 -3 0 10 7 9 30 -3 16 -8 38
-15 49 -15 34 0 302 155 514 298 l39 26 -35 31 c-179 158 -297 261 -365 320
-64 55 -83 77 -88 104 -6 32 -3 38 54 93 51 49 66 58 84 52 13 -4 25 -10 28
-14 3 -4 50 -44 105 -90 55 -45 120 -98 144 -118 24 -21 57 -48 75 -62 17 -14
70 -62 117 -107 47 -46 90 -83 96 -83 5 0 77 36 159 80 227 123 491 251 521
253 24 2 33 -7 70 -73 24 -41 43 -80 43 -87 0 -11 -167 -117 -250 -158 -104
-52 -309 -178 -304 -186 4 -6 11 -5 17 4 7 7 24 21 39 30 26 16 27 16 47 -19
14 -24 37 -42 71 -57 42 -19 50 -26 50 -49 0 -31 -22 -38 -49 -15 -24 20 -151
98 -151 93 0 -3 35 -28 78 -57 133 -89 204 -141 300 -217 l93 -75 40 13 c48
16 55 11 36 -27 -25 -48 -89 -214 -84 -219 2 -2 26 49 52 113 27 65 49 119 51
121 1 2 11 -2 23 -10 18 -11 24 -10 43 12 l23 24 -23 -19 c-24 -19 -51 -14
-60 13 -3 11 96 67 105 59 2 -3 -1 -16 -8 -29 l-12 -23 26 23 25 23 28 -40
c16 -22 34 -41 41 -41 6 0 25 11 41 25 17 14 33 25 36 25 3 0 22 -24 41 -54
66 -104 81 -108 127 -31 30 50 34 53 49 39 10 -9 26 -13 36 -10 15 5 30 -8 66
-59 26 -36 47 -68 47 -72 0 -4 -12 -18 -28 -30 l-27 -23 36 20 37 21 26 -45
c47 -81 97 -97 147 -47 16 16 29 40 29 53 0 18 -5 13 -20 -19 -34 -76 -97 -70
-145 14 -16 26 -31 50 -35 53 -3 3 -22 28 -40 55 -19 28 -51 71 -71 97 l-37
47 -154 5 c-84 2 -175 11 -202 18 l-48 14 71 53 c42 31 81 69 94 93 22 40 22
40 72 34 28 -3 67 -6 87 -6 32 0 37 -3 41 -27 3 -21 4 -18 6 12 l1 40 -74 -3
c-41 -2 -83 1 -94 7 -17 9 -21 7 -27 -16 -11 -46 -125 -145 -218 -191 -46 -23
-103 -49 -126 -57 -48 -17 -54 -14 -151 67 -25 20 -56 46 -70 56 l-24 20 59
12 c33 7 80 19 105 27 63 21 194 82 188 88 -3 3 -43 -13 -89 -35 -79 -37 -218
-80 -265 -80 -12 0 -34 10 -49 22 l-28 22 29 14 c21 9 23 12 7 8 -19 -3 -23 0
-23 19 0 19 7 23 51 29 42 6 58 14 94 50 51 52 65 93 65 194 l0 72 47 30 c58
37 68 37 82 3 6 -16 21 -39 32 -53 14 -17 12 -10 -6 23 -15 26 -31 66 -37 89
-9 41 -71 156 -92 170 -6 4 -21 8 -33 8 -18 0 -23 6 -23 25 0 33 40 59 77 51
105 -26 102 -24 96 -60 -5 -35 10 -76 29 -76 6 0 4 8 -5 18 -22 24 -22 65 1
84 9 8 39 28 65 43 26 15 46 29 44 32 -5 4 -74 -33 -99 -55 -15 -13 -20 -13
-42 2 -14 9 -30 25 -36 36 -10 19 -8 20 39 20 45 0 53 3 75 33 15 19 26 42 25
53 0 12 -6 5 -15 -17 -16 -38 -48 -59 -89 -59 -30 0 -39 14 -20 30 23 19 29
74 11 108 -26 50 -72 65 -132 42 -39 -15 -25 -21 20 -9 96 26 151 -70 85 -150
l-20 -24 -22 22 c-13 11 -27 21 -32 21 -5 0 0 -7 12 -15 12 -9 31 -29 43 -45
l21 -30 -46 7 c-29 4 -54 1 -69 -7 -18 -9 -29 -9 -47 0 l-24 11 23 -20 c15
-13 22 -30 22 -53 0 -31 -4 -36 -42 -52 -24 -11 -69 -32 -102 -47 -63 -32 -86
-36 -86 -16 0 21 -21 89 -26 84 -3 -3 1 -28 10 -55 18 -61 33 -48 -192 -164
-86 -44 -167 -87 -180 -95 -29 -18 -43 -10 -117 69 -33 35 -104 99 -157 142
-54 44 -98 84 -98 89 0 5 52 62 115 126 63 63 115 117 115 118 0 2 -7 3 -16 3
-9 0 -52 16 -96 35 -44 20 -82 34 -84 32 -3 -2 37 -21 86 -43 l91 -39 -58 -55
c-32 -30 -82 -81 -110 -113 -34 -38 -57 -56 -65 -51 -7 4 -52 41 -100 81 -67
57 -93 73 -115 71 -30 -2 -93 26 -93 42 0 15 82 76 175 129 49 28 92 51 96 51
3 0 11 -10 17 -22 11 -22 11 -22 6 4 -8 39 28 58 144 74 l97 13 -89 -5 c-91
-6 -118 -13 -175 -51 -47 -32 -89 -30 -134 8 -37 30 -37 30 -21 61 9 17 42 58
75 90 41 42 64 76 79 116 12 31 32 74 46 94 13 21 24 46 24 56 0 37 -80 92
-133 92 -12 0 -80 -45 -152 -100z m17 -367 c18 -15 35 -31 38 -34 3 -4 22 -18
42 -32 l38 -25 -67 -42 c-54 -33 -71 -40 -83 -31 -8 6 -34 24 -57 39 -39 25
-42 30 -43 71 0 28 6 51 17 63 24 27 75 23 115 -9z m-58 -208 c-19 -13 -34
-11 -34 4 0 4 10 13 23 18 28 13 36 -3 11 -22z m205 -488 c19 -21 20 -25 6
-37 -8 -7 -15 -20 -15 -29 0 -40 58 -57 67 -21 7 25 15 25 39 -1 19 -21 18
-21 -9 -45 -33 -28 -56 -30 -97 -9 -48 25 -63 78 -40 139 12 32 20 32 49 3z
m1045 -89 c29 -41 17 -115 -23 -145 -9 -7 -33 -13 -53 -13 -28 0 -44 7 -67 31
-37 36 -39 62 -9 84 22 14 23 14 31 -9 4 -13 15 -27 24 -30 35 -14 60 44 26
62 -14 8 -12 12 13 25 38 21 40 21 58 -5z m506 -475 c6 -5 -38 -43 -49 -43 -4
0 -17 13 -29 30 l-22 30 47 -7 c27 -3 50 -8 53 -10z m220 -14 c0 -20 -67 -119
-79 -116 -13 2 -90 103 -91 118 0 4 38 6 85 6 47 -1 85 -4 85 -8z m54 -12 c6
-9 7 -19 3 -23 -9 -9 -37 15 -37 33 0 18 20 12 34 -10z"/>
<path d="M3631 3680 c-96 -53 -107 -73 -76 -147 14 -34 38 -233 29 -242 -7 -8
-39 32 -88 112 -30 47 -75 101 -118 140 -95 84 -107 86 -16 1 40 -37 95 -102
122 -144 26 -41 61 -88 76 -105 16 -17 33 -50 39 -75 9 -42 8 -47 -16 -72 -15
-16 -30 -28 -33 -28 -3 0 -16 24 -29 53 -24 55 -76 141 -97 160 -6 7 -47 46
-91 87 -91 88 -60 48 43 -55 50 -50 82 -94 112 -152 23 -44 42 -87 42 -94 0
-7 -12 -24 -27 -37 l-28 -24 32 19 c17 10 47 33 67 50 38 36 38 36 56 -22 7
-22 21 -54 31 -71 24 -40 24 -41 -8 -49 -33 -8 -129 -83 -167 -131 -23 -29
-33 -35 -55 -30 -26 5 -26 5 -3 -6 18 -9 28 -9 42 0 16 10 19 8 25 -17 11 -51
-25 -141 -74 -185 -18 -16 -23 -17 -38 -5 -10 9 -4 -10 17 -48 18 -35 37 -63
42 -63 15 0 67 60 89 101 25 50 24 71 -6 99 -29 27 -32 50 -7 50 11 0 13 3 5
8 -6 4 -14 27 -18 52 -6 41 -4 47 24 74 33 32 42 26 14 -8 -18 -21 -18 -21 5
-2 12 11 22 25 22 32 0 17 58 61 99 75 29 10 37 8 87 -25 32 -21 67 -56 84
-83 39 -61 39 -88 0 -43 -42 50 -37 27 6 -25 31 -38 35 -51 35 -97 0 -40 -9
-73 -35 -132 -25 -54 -36 -91 -35 -120 l2 -41 7 50 c3 28 18 73 32 100 49 94
58 148 36 202 -6 15 -10 33 -9 40 6 40 -87 151 -157 187 -17 9 -39 28 -50 43
-31 46 -70 208 -77 323 -4 67 -14 127 -28 168 -25 71 -22 82 39 124 42 30 91
43 121 34 10 -3 38 -39 62 -78 24 -40 62 -96 83 -125 21 -29 38 -55 38 -59 0
-3 26 -42 58 -86 82 -114 93 -134 119 -207 20 -58 26 -53 8 7 l-7 22 39 -22
c78 -46 97 -72 139 -192 15 -40 118 -241 136 -263 5 -7 21 -43 34 -80 14 -39
22 -53 18 -33 -3 19 -20 64 -37 100 -17 36 -34 73 -38 82 -6 13 2 12 49 -9 74
-32 81 -39 108 -98 13 -27 24 -45 24 -38 0 45 -66 128 -109 138 -71 15 -131
88 -181 221 -41 110 -65 143 -129 179 -38 21 -60 42 -75 70 -11 22 -29 49 -39
60 -10 11 -39 52 -64 90 -25 39 -59 88 -74 110 -16 22 -50 75 -75 117 -47 79
-84 118 -113 118 -9 0 -40 -14 -70 -30z"/>
<path d="M3025 3688 c-29 -17 -44 -40 -45 -68 0 -15 3 -20 8 -13 4 6 34 16 67
21 l60 10 -65 1 -64 1 22 23 c18 18 33 22 74 20 33 -1 46 2 37 8 -20 12 -70
11 -94 -3z"/>
<path d="M3150 3671 c8 -5 31 -12 50 -16 19 -4 46 -14 59 -22 13 -8 20 -10 17
-4 -4 6 -19 17 -34 25 -31 15 -116 32 -92 17z"/>
<path d="M3146 3616 c17 -8 40 -26 53 -42 12 -16 31 -40 43 -54 l20 -25 -17
30 c-32 54 -43 68 -72 86 -15 11 -35 19 -43 19 -8 -1 -1 -7 16 -14z"/>
<path d="M3062 3538 c36 -36 76 -83 87 -105 11 -21 20 -32 21 -25 0 19 -52 91
-92 127 -71 65 -80 67 -16 3z"/>
<path d="M1410 3391 c-15 -30 -32 -77 -24 -68 9 9 44 87 39 87 -2 0 -9 -9 -15
-19z"/>
<path d="M3170 3374 c0 -11 -9 -29 -19 -38 -25 -23 -33 -58 -22 -90 11 -26 -8
-54 -29 -41 -5 3 -10 4 -10 2 0 -8 111 -89 116 -85 2 3 -17 19 -42 38 -41 29
-44 34 -31 48 12 11 13 21 6 40 -12 31 -4 60 27 92 17 18 20 29 14 40 -8 12
-10 11 -10 -6z"/>
<path d="M2523 3350 c33 -4 105 -10 160 -13 l102 -5 -105 13 c-58 7 -130 13
-160 13 l-55 -1 58 -7z"/>
<path d="M2855 3311 c38 -11 71 -18 73 -16 5 5 -62 23 -109 30 -18 3 -3 -4 36
-14z"/>
<path d="M1631 3294 c0 -11 3 -14 6 -6 3 7 2 16 -1 19 -3 4 -6 -2 -5 -13z"/>
<path d="M1356 3273 c-6 -14 -5 -15 5 -6 7 7 10 15 7 18 -3 3 -9 -2 -12 -12z"/>
<path d="M2940 3286 c0 -3 14 -12 30 -21 40 -21 41 -59 2 -79 -56 -29 -163
-46 -300 -48 -119 -2 -124 -3 -37 -5 55 -2 109 -5 121 -8 11 -2 37 -29 58 -60
20 -30 39 -55 42 -55 7 0 -2 15 -42 71 l-33 45 79 15 80 16 44 -37 c24 -20 51
-44 61 -53 9 -10 26 -22 38 -28 19 -9 19 -7 -3 12 -14 11 -45 39 -70 60 -24
21 -48 39 -52 39 -19 0 -6 18 17 24 18 5 27 15 32 37 4 23 10 28 24 24 37 -12
18 6 -28 27 -27 12 -51 24 -55 26 -5 2 -8 1 -8 -2z"/>
<path d="M2152 3244 c10 -10 20 -16 22 -13 3 3 -5 11 -17 18 -21 13 -21 12 -5
-5z"/>
<path d="M1327 3221 c-9 -16 -17 -33 -17 -38 0 -4 9 7 21 26 11 18 18 35 17
37 -2 2 -12 -10 -21 -25z"/>
<path d="M3416 3225 c8 -37 14 -45 14 -19 0 10 -5 26 -10 34 -8 11 -9 7 -4
-15z"/>
<path d="M3850 3216 c0 -2 8 -10 18 -17 15 -13 16 -12 3 4 -13 16 -21 21 -21
13z"/>
<path d="M2453 3143 c15 -2 39 -2 55 0 15 2 2 4 -28 4 -30 0 -43 -2 -27 -4z"/>
<path d="M1265 3108 c-10 -18 -29 -46 -44 -61 -14 -16 -19 -26 -11 -22 18 6
84 104 77 112 -3 3 -13 -10 -22 -29z"/>
<path d="M3920 3136 c0 -2 14 -14 30 -26 17 -12 30 -19 30 -16 0 2 -13 14 -30
26 -16 12 -30 19 -30 16z"/>
<path d="M1608 3075 c9 -6 35 -17 57 -24 22 -7 48 -20 58 -29 9 -8 17 -10 17
-5 0 15 -24 33 -57 42 -15 5 -27 12 -26 18 1 5 -13 9 -32 9 -28 0 -31 -2 -17
-11z"/>
<path d="M3993 3083 c7 -12 91 -43 114 -43 7 0 13 5 13 11 0 5 -4 8 -9 4 -9
-5 -49 7 -105 30 -13 6 -17 5 -13 -2z"/>
<path d="M1417 3006 c-4 -10 -7 -25 -6 -34 0 -11 4 -9 10 7 5 13 8 29 6 35 -2
5 -6 2 -10 -8z"/>
<path d="M1104 2928 c-44 -46 -111 -118 -149 -160 -58 -66 -73 -78 -100 -78
-49 0 -64 24 -67 110 -3 63 -5 70 -12 45 -5 -16 -33 -70 -62 -118 -30 -48 -57
-100 -60 -115 -5 -24 28 31 88 146 12 23 26 42 30 42 4 0 8 -20 8 -44 0 -52
24 -76 75 -76 38 0 40 2 112 85 33 39 98 109 145 158 46 48 82 87 78 87 -4 0
-42 -37 -86 -82z"/>
<path d="M2861 2995 c0 -18 28 -61 29 -44 0 8 -7 24 -15 35 -8 10 -14 15 -14
9z"/>
<path d="M825 2979 c-4 -6 -5 -12 -2 -15 2 -3 7 2 10 11 7 17 1 20 -8 4z"/>
<path d="M4038 2949 c7 -9 37 -61 67 -115 30 -55 55 -95 55 -91 0 19 -81 164
-108 193 -15 17 -21 23 -14 13z"/>
<path d="M1453 2946 c15 -7 25 -15 21 -18 -3 -4 4 -4 16 -1 21 5 20 7 -10 19
-40 17 -65 17 -27 0z"/>
<path d="M802 2920 c-7 -11 -12 -25 -12 -32 1 -7 8 0 16 15 18 33 14 46 -4 17z"/>
<path d="M1534 2914 c24 -24 19 -38 -21 -65 -30 -19 -39 -31 -41 -58 -6 -62
53 -171 93 -171 8 0 33 27 55 60 22 33 38 60 34 60 -4 0 -13 -8 -20 -17 -11
-16 -16 -10 -43 50 -17 38 -31 86 -31 107 0 25 -5 40 -16 44 -24 9 -27 7 -10
-10z"/>
<path d="M1577 2899 c7 -7 15 -10 18 -7 3 3 -2 9 -12 12 -14 6 -15 5 -6 -5z"/>
<path d="M1335 2864 c-30 -27 -32 -31 -9 -16 28 19 62 53 53 52 -2 -1 -22 -17
-44 -36z"/>
<path d="M1379 2853 c-13 -16 -12 -17 4 -4 16 13 21 21 13 21 -2 0 -10 -8 -17
-17z"/>
<path d="M3660 2829 c-7 -11 -10 -23 -7 -25 2 -2 9 7 15 21 14 30 7 33 -8 4z"/>
<path d="M1356 2821 c-3 -4 -2 -28 3 -52 l9 -44 1 53 c1 51 -2 61 -13 43z"/>
<path d="M1258 2803 c-30 -34 -109 -220 -108 -253 1 -8 14 21 30 65 36 96 66
157 92 185 10 11 15 20 10 20 -5 0 -16 -8 -24 -17z"/>
<path d="M3631 2754 c0 -11 3 -14 6 -6 3 7 2 16 -1 19 -3 4 -6 -2 -5 -13z"/>
<path d="M1331 2734 c0 -11 3 -14 6 -6 3 7 2 16 -1 19 -3 4 -6 -2 -5 -13z"/>
<path d="M3593 2698 c67 -66 73 -98 31 -163 l-25 -40 30 34 31 35 -5 -100 c-4
-81 -3 -92 6 -59 6 22 9 81 7 132 -3 83 -6 95 -33 133 -16 23 -46 51 -65 63
-29 17 -25 11 23 -35z"/>
<path d="M4160 2723 c0 -4 5 -15 10 -23 8 -13 10 -13 10 2 0 9 -4 20 -10 23
-5 3 -10 3 -10 -2z"/>
<path d="M1370 2711 c0 -6 4 -13 10 -16 6 -3 7 1 4 9 -7 18 -14 21 -14 7z"/>
<path d="M1322 2690 c0 -14 2 -19 5 -12 2 6 2 18 0 25 -3 6 -5 1 -5 -13z"/>
<path d="M4180 2664 c0 -7 7 -27 15 -45 10 -24 14 -28 14 -14 0 21 -28 78 -29
59z"/>
<path d="M572 2593 c-24 -14 -41 -28 -38 -30 5 -5 86 44 86 52 0 7 -1 7 -48
-22z"/>
<path d="M641 2515 c-8 -176 -10 -203 -24 -250 -8 -27 -17 -59 -21 -70 -5 -13
-2 -11 8 5 29 48 47 159 44 275 -3 87 -4 95 -7 40z"/>
<path d="M4211 2570 c-1 -8 6 -40 15 -70 9 -30 20 -80 24 -110 l7 -55 1 45 c1
25 -10 81 -23 125 -13 44 -24 73 -24 65z"/>
<path d="M1312 2550 c0 -14 2 -19 5 -12 2 6 2 18 0 25 -3 6 -5 1 -5 -13z"/>
<path d="M451 2521 c-17 -16 -31 -33 -31 -37 0 -4 17 8 37 27 21 18 40 35 42
37 2 1 0 2 -6 2 -6 0 -25 -13 -42 -29z"/>
<path d="M1132 2505 c-28 -62 -3 -186 50 -246 58 -67 63 -84 63 -214 -1 -92
-7 -152 -29 -255 -41 -197 -60 -238 -160 -349 -17 -19 -25 -31 -17 -26 10 6
12 2 7 -16 -6 -24 -6 -24 7 1 16 34 48 81 70 105 42 45 70 123 103 284 19 91
34 194 34 229 0 46 4 62 14 62 7 0 20 8 27 18 13 15 12 16 -3 4 -22 -18 -38
-7 -38 26 -1 15 -7 38 -15 52 -8 14 -14 28 -15 32 0 4 26 5 58 3 l57 -4 -60 9
c-49 8 -66 16 -92 44 -17 19 -37 53 -43 76 -15 56 -18 125 -5 123 6 -1 24 -4
40 -7 27 -6 27 -5 -5 8 -29 11 -35 18 -32 40 4 33 -2 33 -16 1z"/>
<path d="M4051 2519 c-1 -8 6 -24 15 -35 15 -19 15 -19 6 1 -5 11 -12 27 -15
35 -5 13 -6 13 -6 -1z"/>
<path d="M4461 2525 c0 -5 6 -30 13 -55 8 -25 15 -36 15 -25 -1 21 -27 98 -28
80z"/>
<path d="M1554 2511 c7 -11 46 -35 46 -28 0 3 -12 12 -26 22 -15 9 -23 12 -20
6z"/>
<path d="M1790 2474 c0 -6 65 -34 77 -34 7 1 -66 40 -74 40 -2 0 -3 -2 -3 -6z"/>
<path d="M392 2425 c-30 -62 -27 -71 4 -12 14 27 24 51 22 53 -3 2 -14 -17
-26 -41z"/>
<path d="M3224 2436 c22 -20 37 -38 35 -40 -2 -2 -35 -15 -74 -30 -38 -15 -79
-31 -90 -37 -40 -18 27 1 110 33 88 33 111 48 78 48 -12 0 -24 4 -28 10 -3 5
-20 19 -38 30 -28 19 -28 17 7 -14z"/>
<path d="M1650 2446 c0 -3 9 -10 20 -16 11 -6 20 -8 20 -6 0 3 -9 10 -20 16
-11 6 -20 8 -20 6z"/>
<path d="M1890 2430 c8 -5 20 -10 25 -10 6 0 3 5 -5 10 -8 5 -19 10 -25 10 -5
0 -3 -5 5 -10z"/>
<path d="M4091 2415 c0 -11 4 -29 9 -40 l9 -20 0 20 c0 11 -4 29 -9 40 l-9 20
0 -20z"/>
<path d="M4611 2425 c1 -19 18 -51 18 -35 0 8 -4 22 -9 30 -5 8 -9 11 -9 5z"/>
<path d="M1959 2405 c18 -8 38 -15 45 -14 15 1 -46 28 -64 28 -8 0 0 -6 19
-14z"/>
<path d="M4491 2394 c0 -11 3 -14 6 -6 3 7 2 16 -1 19 -3 4 -6 -2 -5 -13z"/>
<path d="M4500 2358 c0 -9 4 -27 10 -40 5 -13 14 -49 20 -81 7 -32 14 -56 17
-53 7 6 -25 153 -38 176 -7 13 -8 12 -9 -2z"/>
<path d="M4635 2345 c4 -16 11 -52 16 -80 8 -48 8 -48 4 13 -3 35 -10 71 -16
80 -8 13 -9 10 -4 -13z"/>
<path d="M321 2258 c-23 -56 -37 -98 -32 -93 12 13 82 187 77 192 -2 2 -22
-42 -45 -99z"/>
<path d="M960 2235 c-35 -53 -60 -98 -57 -102 4 -3 10 3 14 13 5 10 29 51 54
89 57 89 61 95 56 95 -2 0 -33 -43 -67 -95z"/>
<path d="M4126 2310 c3 -14 11 -32 16 -40 6 -10 7 -7 2 10 -3 14 -11 32 -16
40 -6 10 -7 7 -2 -10z"/>
<path d="M2450 2287 c-140 -81 -170 -100 -176 -109 -7 -11 69 31 118 64 14 10
29 18 32 18 4 0 25 12 47 26 39 24 42 25 60 8 23 -21 26 -12 3 10 -20 20 -19
21 -84 -17z"/>
<path d="M3038 2313 c6 -2 18 -2 25 0 6 3 1 5 -13 5 -14 0 -19 -2 -12 -5z"/>
<path d="M2385 2192 c-61 -37 -157 -102 -215 -143 -58 -41 -133 -92 -167 -113
-67 -41 -84 -57 -33 -31 17 9 35 13 40 10 6 -3 10 0 10 7 0 7 21 26 47 42 50
30 55 30 193 11 l35 -5 -30 10 c-16 6 -55 14 -85 18 l-55 7 65 45 c203 138
223 150 249 145 21 -4 22 -4 6 3 -18 8 -15 11 24 31 31 16 46 20 54 12 6 -6
15 -11 21 -11 13 0 -26 29 -39 30 -6 0 -60 -31 -120 -68z"/>
<path d="M4262 2240 c0 -14 2 -19 5 -12 2 6 2 18 0 25 -3 6 -5 1 -5 -13z"/>
<path d="M4151 2214 c0 -11 3 -14 6 -6 3 7 2 16 -1 19 -3 4 -6 -2 -5 -13z"/>
<path d="M2579 2203 c73 -56 82 -61 42 -24 -24 23 -48 41 -54 41 -6 0 -1 -8
12 -17z"/>
<path d="M3831 2194 c0 -16 4 -38 9 -49 6 -13 7 -5 3 25 -7 53 -13 66 -12 24z"/>
<path d="M4262 2180 c0 -19 2 -27 5 -17 2 9 2 25 0 35 -3 9 -5 1 -5 -18z"/>
<path d="M2493 2183 c15 -2 39 -2 55 0 15 2 2 4 -28 4 -30 0 -43 -2 -27 -4z"/>
<path d="M521 2067 c-35 -56 -75 -120 -90 -142 -38 -58 -45 -73 -21 -46 26 30
183 282 178 286 -2 2 -32 -42 -67 -98z"/>
<path d="M4552 2135 c0 -16 2 -22 5 -12 2 9 2 23 0 30 -3 6 -5 -1 -5 -18z"/>
<path d="M250 2090 c-13 -27 -21 -52 -18 -55 3 -3 15 18 27 46 28 67 21 74 -9
9z"/>
<path d="M2670 2137 c0 -2 15 -16 33 -33 l32 -29 -29 33 c-28 30 -36 37 -36
29z"/>
<path d="M4661 2111 c-1 -13 6 -50 15 -83 9 -38 13 -76 9 -101 -16 -89 -54
-137 -70 -86 -4 11 -9 18 -12 15 -3 -3 2 -17 11 -31 12 -19 24 -25 49 -24 20
1 25 3 11 6 l-21 4 21 42 c25 50 26 135 4 222 -9 33 -16 49 -17 36z"/>
<path d="M2754 2112 c8 -13 66 -56 66 -49 0 3 -17 17 -37 33 -20 15 -33 23
-29 16z"/>
<path d="M4247 2065 c-4 -25 -9 -57 -13 -72 -4 -21 -3 -24 5 -13 11 16 26 118
19 126 -3 2 -8 -16 -11 -41z"/>
<path d="M4562 2075 c0 -16 4 -43 8 -60 l8 -30 0 30 c0 17 -4 44 -8 60 l-8 30
0 -30z"/>
<path d="M860 2070 c-6 -11 -8 -20 -6 -20 3 0 10 9 16 20 6 11 8 20 6 20 -3 0
-10 -9 -16 -20z"/>
<path d="M2124 2074 c-18 -14 -18 -15 4 -4 12 6 22 13 22 15 0 8 -5 6 -26 -11z"/>
<path d="M1695 2060 c11 -36 44 -97 45 -81 0 11 3 11 18 0 15 -13 16 -12 3 3
-7 10 -18 15 -24 11 -6 -4 -8 0 -5 8 3 8 -6 30 -19 49 -21 29 -24 31 -18 10z"/>
<path d="M2744 2072 c4 -7 34 -34 66 -61 l59 -49 -92 -10 -92 -10 108 1 109 2
-30 25 c-96 82 -135 113 -128 102z"/>
<path d="M2065 2040 c-3 -6 1 -7 9 -4 18 7 21 14 7 14 -6 0 -13 -4 -16 -10z"/>
<path d="M816 2005 c-16 -20 -24 -41 -20 -48 4 -6 3 -9 -1 -4 -9 8 -22 -9 -96
-131 -28 -46 -49 -85 -46 -88 3 -3 19 21 37 53 58 104 92 153 101 148 5 -3 18
16 30 42 12 26 24 51 26 56 10 19 -7 3 -31 -28z"/>
<path d="M210 1994 c-6 -16 -16 -42 -22 -57 -6 -15 -9 -30 -6 -33 3 -2 15 21
26 53 12 31 19 59 17 61 -2 3 -9 -8 -15 -24z"/>
<path d="M1998 2004 c-38 -20 -36 -28 2 -9 17 9 30 18 30 20 0 7 -1 6 -32 -11z"/>
<path d="M2880 2017 c0 -2 15 -14 33 -27 20 -15 27 -17 18 -6 -13 16 -51 41
-51 33z"/>
<path d="M4272 1980 c0 -14 2 -19 5 -12 2 6 2 18 0 25 -3 6 -5 1 -5 -13z"/>
<path d="M4730 1985 c14 -8 30 -14 35 -14 6 0 -1 6 -15 14 -14 8 -29 14 -35
14 -5 0 1 -6 15 -14z"/>
<path d="M4581 1954 c1 -16 5 -40 9 -54 6 -17 7 -9 3 25 -6 56 -14 74 -12 29z"/>
<path d="M1905 1950 c-16 -11 -25 -20 -19 -20 11 0 64 39 54 40 -3 0 -18 -9
-35 -20z"/>
<path d="M2350 1955 c30 -8 71 -14 90 -14 26 1 19 4 -30 14 -85 18 -131 17
-60 0z"/>
<path d="M4817 1942 c32 -24 43 -40 48 -69 9 -54 13 -62 14 -30 1 41 -26 92
-57 108 -47 24 -48 22 -5 -9z"/>
<path d="M1746 1940 c8 -33 51 -107 67 -116 9 -6 9 -5 0 7 -6 8 -26 41 -43 74
-17 33 -28 49 -24 35z"/>
<path d="M1790 1935 c13 -14 28 -25 34 -25 6 0 -1 11 -16 25 -15 14 -30 25
-34 25 -4 0 3 -11 16 -25z"/>
<path d="M4216 1934 c-4 -14 -5 -29 -2 -31 3 -3 8 7 12 21 3 15 4 29 1 32 -2
3 -8 -7 -11 -22z"/>
<path d="M2558 1933 c18 -2 45 -2 60 0 15 2 0 4 -33 4 -33 0 -45 -2 -27 -4z"/>
<path d="M2910 1932 c0 -5 10 -17 23 -26 l22 -15 -25 -22 c-39 -34 -110 -66
-175 -79 -33 -7 -54 -15 -47 -17 27 -10 149 30 206 68 l59 39 54 -42 c78 -62
146 -108 158 -108 6 0 19 16 28 35 23 49 21 58 -4 13 -11 -21 -22 -38 -25 -38
-12 0 -71 42 -212 153 -34 27 -62 44 -62 39z"/>
<path d="M2990 1936 c0 -2 8 -10 18 -17 15 -13 16 -12 3 4 -13 16 -21 21 -21
13z"/>
<path d="M776 1905 c-9 -26 -7 -32 5 -12 6 10 9 21 6 23 -2 3 -7 -2 -11 -11z"/>
<path d="M2030 1901 c0 -24 216 -121 285 -127 39 -3 39 -3 -10 10 -80 22 -157
53 -218 90 -31 19 -57 31 -57 27z"/>
<path d="M3035 1903 c24 -25 119 -83 135 -83 10 0 24 8 31 18 11 14 11 15 -1
5 -22 -20 -44 -15 -96 20 -59 40 -83 54 -69 40z"/>
<path d="M173 1810 c0 -47 2 -66 4 -42 2 23 2 61 0 85 -2 23 -4 4 -4 -43z"/>
<path d="M1904 1874 c-18 -14 -18 -15 4 -4 12 6 22 13 22 15 0 8 -5 6 -26 -11z"/>
<path d="M752 1845 c-7 -14 -12 -31 -12 -38 1 -7 7 3 16 22 17 39 13 54 -4 16z"/>
<path d="M3902 1837 c-19 -20 -22 -34 -21 -98 0 -41 7 -90 15 -109 9 -21 12
-25 9 -10 -3 14 -8 59 -12 101 -5 69 -4 80 16 108 26 37 23 40 -7 8z"/>
<path d="M353 1808 c-36 -52 -46 -68 -40 -68 4 0 44 56 70 97 19 31 -2 9 -30
-29z"/>
<path d="M4249 1823 c0 -16 -5 -44 -12 -63 -11 -33 -15 -35 -67 -41 l-55 -6
57 -1 c46 -2 59 2 67 16 12 23 26 122 17 122 -3 0 -6 -12 -7 -27z"/>
<path d="M4886 1728 c4 -80 2 -89 -18 -111 -29 -30 -204 -102 -312 -128 -72
-17 -75 -19 -28 -14 l53 4 -32 -57 c-18 -31 -37 -66 -43 -77 -18 -34 -53 -75
-64 -75 -23 0 -148 171 -135 184 4 3 16 7 27 8 12 0 -15 4 -59 8 -44 4 -100
10 -125 13 -44 6 -44 6 -10 -4 19 -6 41 -13 48 -15 17 -5 -23 -64 -43 -64 -7
0 -30 19 -50 42 -36 43 -36 43 -13 50 15 4 17 6 6 7 -34 2 -126 42 -152 66
-14 13 -26 20 -26 16 0 -14 34 -40 80 -60 30 -13 60 -39 88 -76 26 -32 51 -55
62 -55 18 0 70 46 70 62 0 5 17 8 38 8 33 0 40 -4 57 -37 35 -64 103 -151 125
-158 12 -4 28 -1 36 6 14 11 88 132 119 194 16 31 47 29 80 -5 35 -36 79 -41
95 -9 7 11 9 23 7 26 -3 2 -10 -5 -17 -16 -15 -28 -38 -26 -78 7 l-34 28 69
28 c37 16 74 31 82 34 10 4 9 -3 -4 -27 -9 -18 -14 -35 -11 -39 4 -3 13 13 22
36 11 28 26 44 46 53 49 20 62 61 49 155 l-10 79 5 -87z"/>
<path d="M722 1773 c-22 -42 -73 -195 -69 -206 2 -6 14 22 27 63 13 41 31 94
41 118 18 41 18 59 1 25z"/>
<path d="M2433 1763 c42 -2 112 -2 155 0 42 1 7 3 -78 3 -85 0 -120 -2 -77 -3z"/>
<path d="M181 1710 c0 -8 4 -24 9 -35 5 -13 9 -14 9 -5 0 8 -4 24 -9 35 -5 13
-9 14 -9 5z"/>
<path d="M636 1711 c-10 -16 -36 -91 -31 -91 6 0 46 93 41 97 -2 2 -7 0 -10
-6z"/>
<path d="M287 1703 c-4 -3 -7 -11 -7 -17 0 -6 5 -5 12 2 6 6 9 14 7 17 -3 3
-9 2 -12 -2z"/>
<path d="M261 1614 c-6 -32 -11 -76 -12 -98 -1 -77 -17 -86 -19 -11 -1 39 -8
86 -16 105 -8 20 -12 24 -9 10 3 -14 8 -56 11 -95 2 -38 9 -86 15 -105 16 -52
-1 -88 -43 -93 l-33 -4 37 -1 c35 -2 38 0 47 36 11 38 42 304 37 309 -2 2 -8
-22 -15 -53z"/>
<path d="M842 1550 c0 -19 2 -27 5 -17 2 9 2 25 0 35 -3 9 -5 1 -5 -18z"/>
<path d="M556 1530 c-9 -22 -16 -46 -16 -53 1 -6 10 10 20 37 11 28 18 51 16
53 -2 2 -11 -14 -20 -37z"/>
<path d="M630 1496 c-6 -30 -10 -72 -8 -93 2 -28 6 -15 15 51 14 102 10 125
-7 42z"/>
<path d="M128 1473 c-90 -68 -99 -92 -96 -235 2 -84 7 -121 17 -130 12 -11 13
-10 6 7 -15 36 -18 230 -5 255 10 18 14 20 21 9 7 -10 8 -6 4 12 -6 23 1 32
59 75 36 26 66 49 66 51 0 8 -13 0 -72 -44z"/>
<path d="M865 1448 c4 -13 11 -27 16 -33 5 -5 4 5 -2 23 -12 36 -24 44 -14 10z"/>
<path d="M4418 1463 c12 -2 30 -2 40 0 9 3 -1 5 -23 4 -22 0 -30 -2 -17 -4z"/>
<path d="M516 1404 c-4 -14 -5 -28 -3 -31 3 -2 8 8 11 23 4 14 5 28 3 31 -3 2
-8 -8 -11 -23z"/>
<path d="M1143 1348 c28 -29 54 -52 56 -50 6 3 -91 102 -101 102 -4 0 16 -24
45 -52z"/>
<path d="M1019 1333 c-23 -62 -43 -94 -63 -106 -11 -6 -66 -14 -121 -18 l-100
-6 102 -1 c99 -2 104 -1 133 26 26 23 79 132 65 132 -3 0 -10 -12 -16 -27z"/>
<path d="M127 1339 c7 -7 15 -10 18 -7 3 3 -2 9 -12 12 -14 6 -15 5 -6 -5z"/>
<path d="M504 1287 c2 -60 5 -70 31 -95 l29 -27 -23 27 c-18 21 -26 46 -32 95
l-7 68 2 -68z"/>
<path d="M620 1308 c0 -16 11 -39 26 -55 15 -15 21 -20 14 -11 -7 10 -18 35
-26 55 -12 34 -13 35 -14 11z"/>
<path d="M1193 1261 c-7 -10 -39 -32 -72 -47 -33 -16 -61 -32 -61 -36 0 -4 34
9 75 29 51 26 75 43 75 55 0 23 -2 23 -17 -1z"/>
<path d="M690 1220 c8 -5 22 -9 30 -9 10 0 8 3 -5 9 -27 12 -43 12 -25 0z"/>
<path d="M1193 1160 c0 -25 2 -35 4 -22 2 12 2 32 0 45 -2 12 -4 2 -4 -23z"/>
<path d="M580 1160 c8 -5 22 -9 30 -9 10 0 8 3 -5 9 -27 12 -43 12 -25 0z"/>
<path d="M975 1160 c-27 -7 -28 -8 -5 -8 14 0 34 3 45 8 25 11 2 11 -40 0z"/>
<path d="M723 1143 c37 -2 97 -2 135 0 37 2 6 3 -68 3 -74 0 -105 -1 -67 -3z"/>
<path d="M1181 1093 c-3 -74 -51 -127 -141 -154 -22 -7 -40 -16 -40 -21 0 -5
-18 -36 -40 -68 -21 -33 -36 -60 -32 -60 4 0 25 29 47 64 32 52 46 66 78 77
68 23 112 62 126 112 7 25 11 51 8 59 -3 7 -6 3 -6 -9z"/>
<path d="M82 1064 c15 -15 30 -26 33 -23 2 3 -10 16 -28 29 l-32 23 27 -29z"/>
<path d="M160 995 c17 -25 33 -45 36 -45 3 0 -2 10 -10 22 -21 29 -20 42 2 33
9 -4 43 -17 76 -29 32 -11 58 -25 59 -31 0 -5 -14 -18 -32 -29 -32 -18 -32
-18 -57 5 -13 12 -24 18 -24 13 0 -5 12 -18 27 -28 24 -18 27 -18 53 -2 36 21
50 20 50 -2 0 -17 82 -185 102 -209 6 -7 20 -13 32 -13 19 0 19 1 -4 13 -25
12 -113 172 -126 229 l-6 27 47 -15 c25 -9 48 -14 51 -12 2 3 -17 12 -43 21
-106 36 -190 66 -226 80 l-37 16 30 -44z"/>
<path d="M573 919 c5 -19 3 -21 -26 -16 -103 18 -104 18 -58 3 24 -8 62 -18
85 -22 23 -3 43 -9 46 -13 3 -4 34 -4 70 -1 l65 5 -73 7 c-71 7 -102 19 -102
41 0 6 31 8 88 5 48 -3 76 -2 62 2 -14 4 -56 8 -94 9 -65 1 -68 0 -63 -20z"/>
<path d="M768 913 c6 -2 18 -2 25 0 6 3 1 5 -13 5 -14 0 -19 -2 -12 -5z"/>
<path d="M880 910 c-41 -4 -68 -8 -60 -10 8 -1 -1 -6 -20 -9 l-36 -6 46 -34
45 -34 -29 32 -30 31 30 1 c16 0 61 9 99 19 75 19 71 20 -45 10z"/>
<path d="M584 813 c-15 -21 -38 -53 -51 -70 -13 -18 -20 -33 -16 -33 4 1 29
32 55 70 50 75 57 95 12 33z"/>
<path d="M870 805 c7 -8 17 -15 22 -15 6 0 5 7 -2 15 -7 8 -17 15 -22 15 -6 0
-5 -7 2 -15z"/>
</g>
</svg>
