<?xml version="1.0" standalone="no"?>
<!DOCTYPE svg PUBLIC "-//W3C//DTD SVG 20010904//EN"
 "http://www.w3.org/TR/2001/REC-SVG-20010904/DTD/svg10.dtd">
<svg version="1.0" xmlns="http://www.w3.org/2000/svg"
 width="360.000000pt" height="244.000000pt" viewBox="0 0 360.000000 244.000000"
 preserveAspectRatio="xMidYMid meet">

<g transform="translate(0.000000,244.000000) scale(0.100000,-0.100000)"
fill="#000000" stroke="none">
<path d="M2750 2393 c-6 -21 -37 -146 -70 -277 -33 -132 -62 -241 -64 -243 -2
-2 -57 5 -122 17 -66 11 -153 22 -194 25 -41 2 -61 2 -45 -1 17 -2 106 -16
198 -31 92 -14 170 -23 173 -21 3 3 36 126 74 274 39 148 72 275 75 282 2 6 0
12 -5 12 -5 0 -14 -17 -20 -37z"/>
<path d="M2880 2425 c0 -2 15 -12 33 -21 129 -66 374 -250 565 -423 l112 -102
-6 -42 c-16 -123 -28 -192 -50 -287 -33 -143 -105 -381 -115 -378 -4 2 -69 86
-145 188 -217 293 -428 545 -446 534 -8 -5 -109 -202 -120 -234 -3 -9 -32 -5
-103 13 l-100 25 -5 -36 -5 -37 -17 25 c-10 13 -18 18 -18 11 0 -11 -5 -9 -20
4 -19 18 -20 17 -20 -3 0 -11 -4 -23 -9 -26 -12 -8 -73 62 -90 102 -8 18 -15
31 -17 29 -2 -2 13 -42 34 -88 21 -46 41 -92 45 -101 4 -13 -13 -25 -84 -59
-49 -23 -89 -45 -89 -49 0 -4 54 -32 120 -63 110 -51 134 -68 113 -80 -5 -2
-128 -1 -275 2 l-267 6 -43 41 c-24 22 -52 46 -63 54 -11 8 9 -13 45 -47 l65
-62 146 -1 c140 0 148 -1 185 -26 106 -70 213 -204 280 -349 19 -41 39 -73 44
-70 15 9 12 110 -6 179 -19 73 -64 160 -111 216 -40 47 -34 49 63 19 81 -25
92 -33 155 -122 60 -86 105 -194 122 -293 13 -79 29 -103 41 -62 10 39 5 171
-10 223 -7 28 -11 37 -9 20 13 -87 17 -184 8 -200 -8 -14 -12 -7 -17 35 -4 29
-18 81 -31 116 -24 63 -102 195 -124 208 -6 4 -11 11 -11 16 0 31 154 -99 215
-180 61 -83 122 -213 135 -291 16 -97 9 -281 -14 -334 -41 -97 -105 -157 -200
-189 -36 -12 -51 -14 -56 -5 -4 6 -7 -1 -7 -16 0 -35 -10 -40 -113 -64 -237
-56 -560 -44 -770 27 l-53 18 50 32 c28 18 59 42 69 54 11 12 -2 6 -31 -14
-289 -204 -747 -221 -1048 -38 -100 60 -98 57 -81 120 15 58 11 121 -11 176
-14 35 -72 84 -100 84 -14 0 -16 5 -10 28 18 71 25 149 25 279 0 125 3 150 24
205 42 113 40 106 22 84 -8 -10 -25 -49 -38 -85 -19 -56 -22 -85 -21 -192 l2
-127 -68 -83 c-64 -80 -70 -85 -122 -96 -90 -19 -233 -13 -257 11 -9 10 53
131 125 241 76 115 228 272 342 350 40 28 105 79 144 113 92 81 200 145 302
179 115 37 331 44 455 15 95 -23 119 -22 40 2 -135 40 -343 45 -461 10 -80
-24 -206 -88 -276 -142 -34 -26 -115 -87 -180 -136 -153 -116 -302 -266 -381
-386 -117 -175 -212 -395 -212 -489 0 -27 4 -31 25 -31 32 0 88 28 185 93 109
73 172 129 253 225 46 54 73 80 75 70 2 -9 -9 -64 -23 -123 -29 -123 -27 -159
16 -221 47 -68 162 -167 238 -205 38 -19 70 -37 70 -40 2 -17 -146 -34 -294
-34 -169 1 -257 14 -313 46 -22 12 -32 15 -30 7 2 -7 35 -24 74 -37 64 -23 83
-25 264 -25 141 0 213 4 262 16 65 15 69 15 150 -9 202 -59 485 -42 673 41
l56 25 87 -29 c127 -42 305 -63 477 -57 209 9 362 40 389 79 8 11 41 29 72 40
48 16 65 18 100 9 24 -6 71 -10 106 -9 49 1 53 2 18 5 -25 1 -69 8 -98 14
l-54 11 39 33 c21 18 47 49 58 69 22 41 25 41 115 -3 73 -35 75 -49 8 -54
l-53 -3 57 -2 c31 -1 59 2 62 6 10 16 -31 49 -96 77 l-65 28 15 41 c20 56 28
244 13 315 -19 84 -93 229 -161 315 -66 84 -155 155 -238 193 l-53 23 25 31
c14 17 26 34 26 38 0 4 -34 25 -75 46 -41 22 -75 43 -75 46 0 3 25 11 56 18
30 7 57 18 60 25 3 7 -9 50 -26 96 -17 45 -29 85 -26 87 4 4 102 -20 178 -43
14 -4 30 21 80 121 l63 125 42 -42 c51 -54 227 -278 403 -515 74 -100 138
-182 141 -183 4 0 9 8 12 17 3 10 21 63 41 119 64 183 126 460 126 564 0 46
-2 48 -97 141 -142 137 -342 288 -549 412 -60 36 -74 42 -74 32z m-420 -789
c1 5 10 -2 21 -15 14 -17 23 -21 27 -14 4 7 17 -14 29 -47 l21 -58 -57 -16
c-57 -16 -89 -32 -81 -39 3 -2 40 -23 83 -46 42 -23 77 -46 77 -50 0 -4 -11
-18 -24 -30 -19 -18 -30 -21 -60 -15 -30 5 -35 10 -31 25 5 15 -14 28 -115 79
l-122 61 84 40 c45 23 85 42 87 44 2 2 -4 23 -13 46 l-17 42 25 -16 c23 -16
25 -16 31 4 5 16 10 18 21 8 8 -6 14 -8 14 -3z m-98 -324 c87 -16 198 -231
198 -382 l0 -45 -44 90 c-53 112 -116 195 -209 280 l-72 65 45 -1 c25 0 61 -3
82 -7z m-2033 -706 l125 1 -35 -30 c-166 -143 -353 -243 -335 -179 2 9 8 33
11 52 4 19 19 66 33 103 24 66 26 68 51 60 14 -4 82 -8 150 -7z m335 -36 c19
-17 40 -47 47 -67 12 -37 8 -177 -6 -191 -9 -9 -82 72 -106 120 -19 36 -26
119 -13 152 9 25 40 19 78 -14z"/>
<path d="M2254 1867 c17 -42 45 -94 46 -86 0 10 -51 119 -56 119 -2 0 2 -15
10 -33z"/>
<path d="M1650 1500 c8 -5 20 -10 25 -10 6 0 3 5 -5 10 -8 5 -19 10 -25 10 -5
0 -3 -5 5 -10z"/>
<path d="M1730 1466 c0 -3 9 -10 20 -16 11 -6 20 -8 20 -6 0 3 -9 10 -20 16
-11 6 -20 8 -20 6z"/>
<path d="M1930 1236 c0 -3 19 -15 43 -27 149 -75 346 -289 446 -488 21 -40 21
-45 6 -60 -23 -23 -216 -20 -304 5 -60 18 -68 23 -118 89 -30 39 -79 112 -109
163 -53 89 -81 125 -48 60 58 -112 156 -251 238 -336 103 -107 294 -232 400
-261 l39 -10 -6 74 c-4 61 -3 73 9 68 16 -6 101 -111 129 -159 19 -33 55 -62
55 -44 0 6 -7 13 -15 16 -8 3 -26 26 -41 51 -15 25 -54 74 -88 108 -48 48 -67
76 -85 126 -79 216 -208 398 -370 519 -64 48 -181 117 -181 106z m356 -603
c80 -4 106 -2 131 11 l31 16 16 -43 c44 -122 60 -227 34 -227 -46 0 -314 167
-381 237 l-39 40 54 -14 c29 -8 98 -17 154 -20z"/>
<path d="M865 728 c-36 -27 -46 -29 -92 -25 -54 6 -73 -6 -28 -17 35 -9 106
11 141 39 43 35 25 37 -21 3z"/>
<path d="M1375 704 c25 -19 110 -44 149 -44 32 0 103 36 92 47 -3 3 -15 -2
-26 -12 -29 -26 -116 -24 -173 4 -50 24 -71 27 -42 5z"/>
<path d="M965 630 c-9 -15 13 -40 35 -40 22 0 44 25 35 40 -3 5 -19 10 -35 10
-16 0 -32 -5 -35 -10z"/>
<path d="M515 588 c-36 -26 -117 -98 -110 -98 3 0 29 19 58 43 29 23 63 50 77
59 14 9 21 17 15 17 -5 0 -23 -9 -40 -21z"/>
<path d="M1690 562 c-106 -58 -108 -210 -4 -269 50 -29 88 -29 144 0 73 37
101 125 64 203 -35 73 -133 105 -204 66z m149 -19 c40 -30 63 -81 58 -132 -6
-57 -33 -92 -91 -115 -45 -19 -47 -19 -92 0 -65 26 -89 62 -89 129 0 62 22
100 76 128 41 22 100 17 138 -10z"/>
<path d="M965 475 c-46 -23 -51 -23 -73 -9 -19 12 -23 13 -20 2 2 -7 18 -17
34 -22 23 -7 36 -23 63 -78 46 -95 117 -170 197 -209 62 -31 64 -31 90 -14 39
25 56 78 62 190 2 55 9 106 14 113 14 16 3 15 -34 -4 -39 -20 -80 -14 -165 26
-77 36 -102 36 -168 5z m178 -39 c25 -14 48 -22 51 -19 3 4 6 2 6 -3 0 -5 18
-8 39 -8 26 1 42 -3 45 -12 6 -17 -3 -44 -15 -44 -16 0 -59 23 -59 32 0 5 -4
7 -9 3 -5 -3 -12 -1 -15 3 -7 12 -88 7 -114 -7 -19 -10 -20 -8 -19 23 1 19 5
32 8 30 4 -2 12 3 19 11 15 18 9 19 63 -9z m60 -75 c40 -15 97 -71 97 -95 -1
-36 -37 -104 -60 -111 -32 -10 -120 37 -170 91 -36 40 -41 49 -34 77 3 18 12
35 18 39 16 11 120 10 149 -1z"/>
<path d="M349 433 c-36 -40 -85 -108 -71 -99 11 7 105 126 99 126 -2 0 -14
-12 -28 -27z"/>
<path d="M2690 286 c0 -2 8 -10 18 -17 15 -13 16 -12 3 4 -13 16 -21 21 -21
13z"/>
<path d="M3130 270 c0 -6 -32 -11 -72 -11 l-73 -2 55 -7 c56 -7 100 2 100 20
0 5 -2 10 -5 10 -3 0 -5 -4 -5 -10z"/>
<path d="M250 265 c0 -5 5 -17 10 -25 5 -8 10 -10 10 -5 0 6 -5 17 -10 25 -5
8 -10 11 -10 5z"/>
</g>
</svg>
