<?xml version="1.0" standalone="no"?>
<!DOCTYPE svg PUBLIC "-//W3C//DTD SVG 20010904//EN"
 "http://www.w3.org/TR/2001/REC-SVG-20010904/DTD/svg10.dtd">
<svg version="1.0" xmlns="http://www.w3.org/2000/svg"
 width="183.000000pt" height="275.000000pt" viewBox="0 0 183.000000 275.000000"
 preserveAspectRatio="xMidYMid meet">

<g transform="translate(0.000000,275.000000) scale(0.100000,-0.100000)"
fill="#000000" stroke="none">
<path d="M616 2562 c-3 -5 1 -9 9 -9 8 0 12 4 9 9 -3 4 -7 8 -9 8 -2 0 -6 -4
-9 -8z"/>
<path d="M586 2505 c-9 -26 -7 -32 5 -12 6 10 9 21 6 23 -2 3 -7 -2 -11 -11z"/>
<path d="M304 2494 c9 -8 16 -23 17 -32 0 -10 3 -12 5 -5 7 15 -13 53 -27 53
-6 0 -3 -7 5 -16z"/>
<path d="M632 2480 c0 -14 2 -19 5 -12 2 6 2 18 0 25 -3 6 -5 1 -5 -13z"/>
<path d="M331 2424 c0 -11 3 -14 6 -6 3 7 2 16 -1 19 -3 4 -6 -2 -5 -13z"/>
<path d="M622 2420 c0 -14 2 -19 5 -12 2 6 2 18 0 25 -3 6 -5 1 -5 -13z"/>
<path d="M546 2415 c-9 -26 -7 -32 5 -12 6 10 9 21 6 23 -2 3 -7 -2 -11 -11z"/>
<path d="M284 2330 c0 -52 1 -74 3 -47 2 26 2 68 0 95 -2 26 -3 4 -3 -48z"/>
<path d="M341 2384 c0 -11 3 -14 6 -6 3 7 2 16 -1 19 -3 4 -6 -2 -5 -13z"/>
<path d="M612 2365 c0 -16 2 -22 5 -12 2 9 2 23 0 30 -3 6 -5 -1 -5 -18z"/>
<path d="M351 2344 c0 -11 3 -14 6 -6 3 7 2 16 -1 19 -3 4 -6 -2 -5 -13z"/>
<path d="M502 2315 c-17 -37 -14 -45 4 -12 9 16 14 31 11 33 -2 2 -9 -7 -15
-21z"/>
<path d="M361 2304 c0 -11 3 -14 6 -6 3 7 2 16 -1 19 -3 4 -6 -2 -5 -13z"/>
<path d="M601 2309 c-1 -9 -7 -19 -13 -22 -7 -2 -28 -26 -47 -52 -25 -35 -28
-43 -13 -34 11 7 18 17 16 21 -3 5 2 11 10 14 9 3 16 12 16 19 0 7 10 19 21
27 13 8 20 20 16 29 -4 11 -6 11 -6 -2z"/>
<path d="M371 2264 c0 -11 3 -14 6 -6 3 7 2 16 -1 19 -3 4 -6 -2 -5 -13z"/>
<path d="M658 2263 c17 -2 47 -2 65 0 17 2 3 4 -33 4 -36 0 -50 -2 -32 -4z"/>
<path d="M580 2256 c0 -2 9 -6 20 -9 11 -3 18 -1 14 4 -5 9 -34 13 -34 5z"/>
<path d="M768 2253 c7 -3 16 -2 19 1 4 3 -2 6 -13 5 -11 0 -14 -3 -6 -6z"/>
<path d="M466 2235 c-9 -26 -7 -32 5 -12 6 10 9 21 6 23 -2 3 -7 -2 -11 -11z"/>
<path d="M810 2240 c8 -5 20 -10 25 -10 6 0 3 5 -5 10 -8 5 -19 10 -25 10 -5
0 -3 -5 5 -10z"/>
<path d="M658 2233 c18 -2 45 -2 60 0 15 2 0 4 -33 4 -33 0 -45 -2 -27 -4z"/>
<path d="M573 2223 c9 -2 23 -2 30 0 6 3 -1 5 -18 5 -16 0 -22 -2 -12 -5z"/>
<path d="M910 2221 c0 -6 4 -13 10 -16 6 -3 7 1 4 9 -7 18 -14 21 -14 7z"/>
<path d="M344 2206 c-3 -8 -4 -27 -2 -43 3 -23 5 -20 9 15 5 43 2 53 -7 28z"/>
<path d="M630 2210 c8 -5 20 -10 25 -10 6 0 3 5 -5 10 -8 5 -19 10 -25 10 -5
0 -3 -5 5 -10z"/>
<path d="M780 2210 c-21 -7 -21 -8 -5 -9 11 0 27 4 35 9 18 11 5 11 -30 0z"/>
<path d="M273 2140 c0 -41 2 -58 4 -37 2 20 2 54 0 75 -2 20 -4 3 -4 -38z"/>
<path d="M822 2202 c-8 -6 -1 -14 24 -25 21 -10 32 -12 28 -5 -5 8 -2 9 9 5
28 -11 19 1 -13 18 -34 17 -31 17 -48 7z m38 -12 c8 -5 11 -10 5 -10 -5 0 -17
5 -25 10 -8 5 -10 10 -5 10 6 0 17 -5 25 -10z"/>
<path d="M439 2174 c-5 -15 -8 -29 -5 -31 2 -2 8 10 14 26 13 38 5 41 -9 5z"/>
<path d="M907 2189 c7 -9 11 -18 8 -21 -3 -3 3 -11 12 -19 16 -13 17 -12 4 4
-8 10 -9 17 -3 17 13 0 25 -18 29 -44 3 -16 -1 -15 -34 8 l-38 28 40 -36 c24
-21 41 -30 43 -23 11 40 12 40 35 21 l22 -19 -19 22 c-10 13 -22 20 -27 18 -4
-3 -17 7 -28 21 -12 15 -21 23 -21 19 0 -4 -8 -1 -17 6 -16 12 -17 12 -6 -2z"/>
<path d="M367 2128 c-29 -29 -59 -63 -66 -75 -19 -36 -7 -27 28 23 21 29 38
43 48 40 8 -3 11 -1 8 4 -3 6 6 21 22 35 15 13 25 25 21 25 -4 0 -31 -24 -61
-52z"/>
<path d="M495 2169 c-4 -6 -5 -12 -2 -15 2 -3 7 2 10 11 7 17 1 20 -8 4z"/>
<path d="M1177 2133 c8 -6 13 -46 16 -113 l3 -105 0 109 c-1 88 -4 110 -16
113 -11 3 -12 2 -3 -4z"/>
<path d="M410 2101 c0 -7 -5 -9 -12 -5 -7 4 -10 4 -6 -1 20 -21 -101 -162
-129 -151 -7 3 -13 1 -13 -4 0 -6 10 -10 21 -10 16 0 20 -5 16 -20 -3 -11 -1
-23 4 -26 5 -3 9 13 9 35 0 34 5 44 40 71 39 31 87 106 76 118 -3 3 -6 0 -6
-7z"/>
<path d="M1038 2063 c9 -24 24 -43 32 -43 12 0 13 2 1 9 -11 7 -10 11 5 20 17
11 17 11 -3 6 -13 -4 -23 -2 -23 2 0 5 -7 18 -15 29 -11 14 -10 8 3 -23z"/>
<path d="M1140 2080 c-13 -8 -12 -10 3 -10 9 0 17 5 17 10 0 12 -1 12 -20 0z"/>
<path d="M461 2064 c0 -11 3 -14 6 -6 3 7 2 16 -1 19 -3 4 -6 -2 -5 -13z"/>
<path d="M945 2060 c-3 -11 -18 -29 -32 -40 -14 -11 -21 -20 -15 -20 12 0 62
57 62 71 0 16 -8 10 -15 -11z"/>
<path d="M1162 1981 c-2 -71 -4 -82 -16 -71 -24 19 -61 9 -60 -17 0 -18 -5
-23 -23 -23 -58 0 -86 88 -41 130 12 11 17 20 10 20 -16 0 -42 -41 -42 -68 0
-27 -104 -128 -129 -124 -13 2 -14 1 -2 -7 11 -7 29 3 70 40 30 27 59 49 63
49 18 0 5 -18 -49 -69 l-58 -54 58 48 c33 27 62 44 65 39 4 -5 18 -18 32 -29
19 -15 22 -16 11 -2 -12 15 -11 17 8 17 12 0 25 -8 28 -17 6 -15 7 -14 13 3 4
10 4 28 0 39 -15 40 32 27 90 -26 30 -27 48 -47 39 -44 -10 4 -20 1 -24 -5 -4
-7 -21 1 -48 22 -23 18 -34 23 -24 11 15 -17 16 -25 7 -42 -6 -12 -8 -21 -4
-21 4 0 -6 -10 -22 -22 -16 -13 -32 -22 -36 -21 -5 2 -8 -4 -8 -13 0 -13 3
-14 14 -5 8 7 22 8 36 3 20 -7 21 -10 7 -15 -19 -7 -23 -28 -5 -24 7 1 14 -8
16 -20 2 -14 -2 -23 -10 -23 -10 0 -9 -3 2 -10 8 -5 20 -10 25 -10 6 0 3 5 -5
10 -10 6 -11 10 -2 10 18 0 15 37 -5 48 -15 9 -14 11 4 23 17 10 19 17 12 36
-6 16 -5 23 4 23 22 0 40 -18 34 -33 -4 -10 0 -14 11 -12 17 3 18 27 1 33 -5
2 -9 12 -9 23 0 27 38 25 50 -3 6 -17 9 -18 9 -6 1 9 -3 19 -9 23 -5 3 -7 11
-5 18 3 7 -13 25 -35 41 l-39 29 -4 91 -3 91 -2 -84z m28 -202 c0 -3 -11 -4
-25 -1 -21 4 -23 7 -13 25 10 20 11 20 24 2 8 -10 14 -22 14 -26z m-40 -34 c0
-8 -9 -15 -20 -15 -13 0 -18 5 -14 15 4 8 12 15 20 15 8 0 14 -7 14 -15z"/>
<path d="M261 2032 c0 -13 -18 -39 -38 -59 -38 -35 -38 -36 -5 -13 19 12 36
29 39 37 4 11 8 11 13 3 5 -8 9 -7 13 5 4 9 3 13 -2 10 -5 -3 -12 5 -14 17
l-4 23 -2 -23z"/>
<path d="M648 2043 c7 -3 16 -2 19 1 4 3 -2 6 -13 5 -11 0 -14 -3 -6 -6z"/>
<path d="M761 2028 c9 -7 15 -19 13 -26 -1 -7 0 -8 3 -2 2 5 10 7 15 4 7 -4 8
-2 4 4 -4 7 -17 17 -29 22 -19 10 -20 9 -6 -2z"/>
<path d="M557 1991 c-31 -29 -47 -37 -57 -31 -8 6 -19 10 -25 9 -12 0 56 -38
70 -38 6 -1 3 4 -5 9 -12 9 -8 17 29 50 24 22 41 40 37 40 -4 0 -26 -18 -49
-39z"/>
<path d="M1091 2017 c2 -1 13 -9 24 -17 19 -14 19 -14 6 3 -7 9 -18 17 -24 17
-6 0 -8 -1 -6 -3z"/>
<path d="M828 1993 c12 -2 30 -2 40 0 9 3 -1 5 -23 4 -22 0 -30 -2 -17 -4z"/>
<path d="M775 1972 c4 -7 -1 -25 -11 -40 l-17 -27 21 19 c17 15 22 16 26 5 13
-40 14 -41 13 -7 -1 20 -4 34 -6 32 -2 -2 -10 4 -18 14 -8 9 -12 11 -8 4z"/>
<path d="M343 1923 c-9 -21 -18 -58 -21 -83 l-4 -45 23 23 c20 19 24 33 24 82
0 33 -1 60 -3 60 -2 0 -10 -17 -19 -37z m7 -68 c0 -8 -2 -15 -4 -15 -2 0 -6 7
-10 15 -3 8 -1 15 4 15 6 0 10 -7 10 -15z"/>
<path d="M241 1888 c0 -13 3 -17 6 -10 2 6 10 9 16 5 7 -4 6 1 -2 10 -18 22
-21 21 -20 -5z"/>
<path d="M618 1903 c7 -3 16 -2 19 1 4 3 -2 6 -13 5 -11 0 -14 -3 -6 -6z"/>
<path d="M211 1884 c0 -11 3 -14 6 -6 3 7 2 16 -1 19 -3 4 -6 -2 -5 -13z"/>
<path d="M658 1893 c7 -3 16 -2 19 1 4 3 -2 6 -13 5 -11 0 -14 -3 -6 -6z"/>
<path d="M715 1890 l-30 -8 33 -1 c17 0 32 4 32 9 0 6 -1 9 -2 9 -2 -1 -16 -5
-33 -9z"/>
<path d="M425 1881 c-3 -5 -1 -12 5 -16 5 -3 10 1 10 9 0 18 -6 21 -15 7z"/>
<path d="M766 1865 c4 -8 11 -15 16 -15 6 0 5 6 -2 15 -7 8 -14 15 -16 15 -2
0 -1 -7 2 -15z"/>
<path d="M496 1857 c3 -10 9 -15 12 -12 3 3 0 11 -7 18 -10 9 -11 8 -5 -6z"/>
<path d="M558 1863 c12 -2 32 -2 45 0 12 2 2 4 -23 4 -25 0 -35 -2 -22 -4z"/>
<path d="M816 1848 c5 -23 3 -28 -12 -28 -15 0 -16 -2 -5 -9 11 -7 10 -13 -3
-32 -11 -18 -12 -28 -5 -39 9 -13 10 -12 5 3 -3 9 -1 17 4 17 4 0 11 14 15 30
6 25 9 29 21 19 8 -6 14 -19 15 -28 0 -11 2 -12 6 -3 3 7 -3 22 -13 34 -11 11
-17 21 -15 22 3 0 -1 10 -7 21 -11 18 -12 17 -6 -7z"/>
<path d="M221 1855 c1 -19 18 -51 18 -35 0 8 -4 22 -9 30 -5 8 -9 11 -9 5z"/>
<path d="M382 1808 c-17 -29 -28 -57 -24 -62 3 -6 9 2 13 16 4 15 16 37 28 49
18 20 28 49 17 49 -2 0 -18 -23 -34 -52z"/>
<path d="M710 1853 c19 -3 39 -11 43 -19 4 -8 12 -14 18 -14 5 0 4 9 -3 20
-10 15 -23 20 -53 18 l-40 -1 35 -4z"/>
<path d="M282 1820 c0 -19 2 -27 5 -17 2 9 2 25 0 35 -3 9 -5 1 -5 -18z"/>
<path d="M1071 1834 c0 -11 3 -14 6 -6 3 7 2 16 -1 19 -3 4 -6 -2 -5 -13z"/>
<path d="M441 1814 c0 -11 3 -14 6 -6 3 7 2 16 -1 19 -3 4 -6 -2 -5 -13z"/>
<path d="M1041 1784 c0 -11 3 -14 6 -6 3 7 2 16 -1 19 -3 4 -6 -2 -5 -13z"/>
<path d="M1061 1784 c0 -11 3 -14 6 -6 3 7 2 16 -1 19 -3 4 -6 -2 -5 -13z"/>
<path d="M1082 1780 c0 -14 2 -19 5 -12 2 6 2 18 0 25 -3 6 -5 1 -5 -13z"/>
<path d="M489 1775 c5 -11 17 -29 26 -40 l16 -20 -10 20 c-5 11 -17 29 -26 40
l-16 20 10 -20z"/>
<path d="M733 1773 c-3 -10 -13 -26 -21 -36 -14 -16 -14 -17 0 -12 15 6 44 65
32 65 -2 0 -7 -8 -11 -17z"/>
<path d="M420 1771 c0 -6 4 -13 10 -16 6 -3 7 1 4 9 -7 18 -14 21 -14 7z"/>
<path d="M451 1735 c-1 -26 -4 -35 -10 -27 -6 10 -10 8 -16 -10 -4 -12 -7 -26
-6 -30 2 -15 -19 -8 -39 12 -11 11 -24 20 -30 20 -5 0 -10 5 -10 10 0 6 5 10
11 10 5 0 7 5 4 11 -5 7 -13 4 -26 -7 -10 -9 -16 -20 -14 -24 3 -5 -1 -11 -7
-13 -9 -4 -10 -6 -1 -6 6 -1 15 3 18 9 4 6 15 4 30 -6 14 -9 23 -19 20 -23 -2
-4 13 -8 35 -9 31 -1 43 3 59 24 12 15 21 32 21 38 0 6 -9 -4 -20 -21 -21 -35
-34 -41 -46 -21 -4 7 -3 8 4 4 16 -10 34 30 29 67 -3 29 -4 28 -6 -8z"/>
<path d="M871 1734 c0 -11 3 -14 6 -6 3 7 2 16 -1 19 -3 4 -6 -2 -5 -13z"/>
<path d="M1237 1737 c-3 -9 -2 -19 4 -23 15 -9 18 -2 9 20 -6 17 -7 18 -13 3z"/>
<path d="M221 1703 c-1 -21 7 -41 24 -60 23 -26 26 -27 36 -10 5 9 14 15 20
12 5 -3 6 1 2 11 -5 14 -8 14 -23 -6 -15 -20 -17 -20 -30 -5 -7 9 -17 33 -21
53 l-7 37 -1 -32z"/>
<path d="M1021 1714 c0 -11 3 -14 6 -6 3 7 2 16 -1 19 -3 4 -6 -2 -5 -13z"/>
<path d="M540 1693 c11 -24 30 -31 30 -11 0 6 -3 8 -7 5 -3 -4 -12 1 -20 11
-13 15 -13 15 -3 -5z"/>
<path d="M687 1703 c-4 -3 4 -14 16 -24 22 -18 22 -18 2 -34 -11 -9 -13 -13
-5 -9 8 4 25 16 36 26 21 19 21 19 27 -3 4 -17 -12 -40 -80 -113 l-86 -91 95
95 c70 69 93 98 86 107 -6 7 -8 19 -4 28 7 19 -14 15 -31 -5 -11 -13 -15 -12
-32 7 -10 12 -21 20 -24 16z"/>
<path d="M860 1690 c0 -11 4 -20 9 -20 5 0 7 9 4 20 -3 11 -7 20 -9 20 -2 0
-4 -9 -4 -20z"/>
<path d="M1178 1703 c7 -3 16 -2 19 1 4 3 -2 6 -13 5 -11 0 -14 -3 -6 -6z"/>
<path d="M1273 1695 c0 -8 4 -15 9 -15 4 0 8 4 8 9 0 6 -4 12 -8 15 -5 3 -9
-1 -9 -9z"/>
<path d="M622 1670 c-18 -17 -28 -30 -24 -30 5 0 23 14 40 30 41 39 27 39 -16
0z"/>
<path d="M785 1680 c-3 -6 1 -7 9 -4 18 7 21 14 7 14 -6 0 -13 -4 -16 -10z"/>
<path d="M1006 1675 c-9 -26 -7 -32 5 -12 6 10 9 21 6 23 -2 3 -7 -2 -11 -11z"/>
<path d="M1076 1675 c-3 -9 -11 -13 -16 -10 -7 4 -8 -3 -4 -22 8 -34 15 -42
21 -25 3 6 11 12 19 12 18 0 18 34 0 49 -11 9 -15 8 -20 -4z m24 -19 c0 -8 -7
-16 -15 -20 -15 -5 -21 14 -8 27 11 12 23 8 23 -7z"/>
<path d="M1031 1664 c0 -11 3 -14 6 -6 3 7 2 16 -1 19 -3 4 -6 -2 -5 -13z"/>
<path d="M890 1666 c0 -3 14 -12 30 -21 17 -9 30 -13 30 -11 0 3 -13 12 -30
21 -16 9 -30 13 -30 11z"/>
<path d="M1255 1659 c-4 -6 -13 -8 -20 -6 -10 4 -10 0 -1 -19 9 -19 12 -21 14
-6 6 27 20 38 34 24 9 -9 7 -19 -11 -44 l-22 -33 30 34 c16 18 27 40 24 47 -6
17 -39 19 -48 3z"/>
<path d="M813 1653 c9 -2 25 -2 35 0 9 3 1 5 -18 5 -19 0 -27 -2 -17 -5z"/>
<path d="M871 1648 c2 -2 18 -14 34 -28 l30 -25 -24 28 c-14 15 -29 27 -34 27
-6 0 -8 -1 -6 -2z"/>
<path d="M443 1633 c16 -4 22 -16 17 -38 -1 -6 3 -6 10 1 16 16 1 44 -24 43
-16 -1 -17 -2 -3 -6z"/>
<path d="M493 1624 c14 -17 15 -26 6 -55 -5 -19 -15 -42 -20 -53 -7 -12 -7
-16 0 -12 5 4 14 0 18 -9 7 -12 11 -11 22 8 13 21 13 21 -4 7 -17 -14 -18 -13
-12 28 3 24 8 46 11 49 10 10 36 -6 36 -23 0 -14 -2 -15 -17 -3 -16 12 -17 12
-6 -2 7 -9 10 -18 7 -22 -3 -3 0 -4 8 -3 7 1 29 17 48 36 27 26 29 30 9 18
-25 -16 -27 -15 -52 8 -15 14 -27 22 -27 18 0 -4 -10 1 -22 12 -23 19 -23 19
-5 -2z"/>
<path d="M1035 1619 c-5 -15 -9 -18 -15 -9 -6 9 -10 6 -16 -11 -4 -13 -7 -30
-5 -38 1 -7 -2 -10 -8 -7 -5 4 -12 2 -16 -4 -3 -5 -16 -10 -28 -11 -12 0 -16
-3 -10 -6 10 -3 9 -11 -2 -34 -22 -41 -11 -36 14 6 11 19 26 34 32 33 13 -3
75 89 66 98 -3 3 -8 -4 -12 -17z m-24 -42 c-10 -9 -11 -8 -5 6 3 10 9 15 12
12 3 -3 0 -11 -7 -18z"/>
<path d="M1207 1629 c7 -7 15 -10 18 -7 3 3 -2 9 -12 12 -14 6 -15 5 -6 -5z"/>
<path d="M660 1620 c-9 -6 -10 -10 -3 -10 6 0 15 5 18 10 8 12 4 12 -15 0z"/>
<path d="M966 1615 c4 -8 11 -15 16 -15 6 0 5 6 -2 15 -7 8 -14 15 -16 15 -2
0 -1 -7 2 -15z"/>
<path d="M382 1608 c-6 -7 -10 -36 -9 -65 2 -49 3 -50 15 -27 7 13 21 24 31
24 23 0 37 -30 19 -42 -9 -5 -10 -8 -1 -8 21 0 25 20 10 44 -11 16 -12 27 -5
40 8 14 7 17 -1 12 -6 -4 -11 -2 -11 4 0 6 -11 -2 -25 -17 l-24 -28 -1 27 c0
15 8 31 18 37 9 6 12 11 6 11 -6 0 -16 -6 -22 -12z m48 -43 c0 -2 -10 -10 -22
-16 -21 -11 -22 -11 -9 4 13 16 31 23 31 12z"/>
<path d="M898 1553 c7 -3 16 -2 19 1 4 3 -2 6 -13 5 -11 0 -14 -3 -6 -6z"/>
<path d="M859 1533 c-13 -16 -12 -17 4 -4 9 7 17 15 17 17 0 8 -8 3 -21 -13z"/>
<path d="M390 1460 c-12 -16 -18 -30 -13 -30 4 0 16 14 25 30 22 39 15 39 -12
0z"/>
<path d="M831 1454 c0 -11 3 -14 6 -6 3 7 2 16 -1 19 -3 4 -6 -2 -5 -13z"/>
<path d="M504 1448 c-4 -7 -4 -10 1 -6 4 4 28 -7 53 -24 25 -17 42 -26 38 -20
-3 6 2 13 11 15 13 3 11 5 -6 6 -21 1 -22 3 -10 19 12 16 12 16 -6 0 -17 -16
-20 -16 -46 3 -21 15 -29 16 -35 7z"/>
<path d="M870 1453 c0 -7 5 -15 11 -18 15 -10 -21 -47 -38 -40 -8 3 -11 0 -7
-6 7 -13 -65 -91 -78 -83 -4 3 -8 -3 -8 -13 0 -14 -2 -15 -9 -4 -5 8 -11 9
-15 3 -3 -5 4 -18 16 -28 12 -11 18 -13 13 -5 -5 9 16 37 68 90 70 70 75 77
61 95 -7 11 -14 15 -14 9z"/>
<path d="M470 1400 c-12 -16 -31 -31 -43 -31 -17 -1 -18 -2 -4 -6 9 -2 15 -9
12 -14 -4 -5 -4 -9 -2 -9 2 0 18 20 36 45 18 25 30 45 27 45 -2 0 -14 -13 -26
-30z"/>
<path d="M520 1417 c0 -2 16 -17 36 -32 34 -26 36 -27 52 -9 16 17 16 17 0 5
-14 -11 -23 -9 -53 14 -19 15 -35 25 -35 22z"/>
<path d="M780 1416 c0 -2 7 -7 16 -10 8 -3 12 -2 9 4 -6 10 -25 14 -25 6z"/>
<path d="M658 1390 c18 -11 41 -34 52 -52 15 -26 20 -28 19 -13 0 20 -71 85
-93 85 -6 0 4 -9 22 -20z"/>
<path d="M745 1390 c-10 -11 -16 -22 -14 -24 2 -2 12 7 22 20 22 29 17 32 -8
4z"/>
<path d="M490 1370 c-12 -16 -19 -30 -16 -30 2 0 14 14 26 30 12 17 19 30 16
30 -2 0 -14 -13 -26 -30z"/>
<path d="M741 1334 c0 -11 3 -14 6 -6 3 7 2 16 -1 19 -3 4 -6 -2 -5 -13z"/>
<path d="M400 1300 c-12 -16 -19 -30 -16 -30 2 0 14 14 26 30 12 17 19 30 16
30 -2 0 -14 -13 -26 -30z"/>
<path d="M435 1296 l-26 -34 20 -41 c27 -51 26 -65 -1 -84 -17 -12 -19 -16 -7
-16 9 -1 22 10 29 24 12 23 11 31 -8 71 l-22 45 26 35 c15 18 24 34 21 34 -3
0 -18 -15 -32 -34z"/>
<path d="M694 1243 c-12 -20 -13 -24 -2 -16 12 10 19 8 42 -16 27 -28 27 -30
11 -55 -10 -14 -15 -26 -12 -26 2 0 12 12 22 26 17 26 16 27 -15 59 -18 18
-29 38 -26 44 15 24 -3 9 -20 -16z"/>
<path d="M320 1225 c-19 -31 -21 -40 -10 -65 7 -17 18 -30 24 -30 6 0 4 -5 -4
-10 -8 -5 -12 -10 -8 -10 4 0 3 -12 -2 -27 l-10 -28 17 22 c11 13 33 23 53 26
l35 4 -37 1 c-42 2 -44 17 -11 69 15 23 15 26 1 15 -13 -10 -17 -10 -22 0 -3
7 -4 4 -1 -7 2 -11 0 -27 -5 -34 -7 -12 -11 -10 -21 11 -10 23 -8 32 11 62 12
20 19 36 17 36 -3 0 -15 -16 -27 -35z"/>
<path d="M367 1247 c-3 -8 1 -14 8 -14 7 0 11 6 8 14 -3 7 -6 13 -8 13 -2 0
-5 -6 -8 -13z"/>
<path d="M776 1220 c12 -14 24 -32 27 -40 5 -13 6 -13 6 1 1 8 -11 26 -26 40
l-28 24 21 -25z"/>
<path d="M392 1200 c7 -10 14 -18 15 -16 6 6 -9 36 -18 36 -5 0 -4 -9 3 -20z"/>
<path d="M617 1131 c-30 -44 -50 -77 -43 -75 11 5 109 154 101 154 -2 0 -28
-36 -58 -79z"/>
<path d="M780 1140 c-6 -11 -8 -20 -6 -20 3 0 10 9 16 20 6 11 8 20 6 20 -3 0
-10 -9 -16 -20z"/>
<path d="M1409 1143 c-13 -17 -13 -17 6 -3 11 8 22 16 24 17 2 2 0 3 -6 3 -6
0 -17 -8 -24 -17z"/>
<path d="M368 1133 c6 -2 18 -2 25 0 6 3 1 5 -13 5 -14 0 -19 -2 -12 -5z"/>
<path d="M1610 1133 c8 -3 19 -11 23 -17 6 -7 7 -6 4 4 -2 8 -12 16 -23 17
-13 2 -15 1 -4 -4z"/>
<path d="M1294 1048 c-49 -45 -91 -83 -94 -86 -3 -3 10 3 28 14 17 10 32 22
32 27 0 4 5 5 12 1 6 -4 8 -3 4 4 -3 5 22 35 56 66 35 31 60 56 57 56 -4 0
-47 -37 -95 -82z"/>
<path d="M710 1100 c-6 -11 -8 -20 -6 -20 3 0 10 9 16 20 6 11 8 20 6 20 -3 0
-10 -9 -16 -20z"/>
<path d="M1370 1075 l-45 -46 35 12 c19 7 29 14 22 17 -10 3 -7 11 9 28 12 13
26 21 32 17 6 -3 7 -1 3 5 -10 16 -6 18 -56 -33z"/>
<path d="M1510 1110 c-18 -12 -2 -12 25 0 13 6 15 9 5 9 -8 0 -22 -4 -30 -9z"/>
<path d="M475 1104 c6 -5 23 -20 40 -34 29 -24 29 -24 10 -2 -11 13 -29 28
-40 34 -11 6 -15 6 -10 2z"/>
<path d="M750 1090 c-6 -11 -8 -20 -6 -20 3 0 10 9 16 20 6 11 8 20 6 20 -3 0
-10 -9 -16 -20z"/>
<path d="M1436 1089 c-11 -11 -15 -19 -10 -19 16 0 37 17 33 27 -2 6 -13 2
-23 -8z"/>
<path d="M446 1081 c17 -10 45 -36 62 -57 18 -21 32 -34 32 -28 0 15 -96 104
-112 104 -7 0 1 -9 18 -19z"/>
<path d="M1600 1075 c-13 -14 -28 -25 -34 -25 -13 0 -192 -174 -206 -201 -15
-27 -13 -42 4 -27 7 7 12 17 10 23 -6 16 8 30 44 45 20 8 29 16 22 20 -12 7
93 110 112 110 5 0 15 6 21 13 47 51 60 67 55 67 -2 0 -15 -11 -28 -25z"/>
<path d="M633 1053 c9 -2 23 -2 30 0 6 3 -1 5 -18 5 -16 0 -22 -2 -12 -5z"/>
<path d="M720 1040 c-6 -11 -8 -20 -6 -20 3 0 10 9 16 20 6 11 8 20 6 20 -3 0
-10 -9 -16 -20z"/>
<path d="M547 1020 c7 -26 -14 -51 -35 -43 -11 4 -8 -2 7 -15 33 -30 52 -27
81 13 14 18 36 36 50 38 21 3 19 4 -7 6 -22 0 -33 -4 -33 -12 0 -24 -47 -60
-67 -52 -17 8 -17 8 2 13 11 2 25 8 30 14 6 6 3 7 -9 2 -16 -6 -17 -5 -6 16
10 18 14 20 21 9 6 -10 9 -10 9 -2 0 11 -29 33 -43 33 -3 0 -3 -9 0 -20z"/>
<path d="M1628 1033 c12 -2 30 -2 40 0 9 3 -1 5 -23 4 -22 0 -30 -2 -17 -4z"/>
<path d="M1685 998 l-30 -31 32 22 c33 22 51 42 36 40 -4 -1 -21 -15 -38 -31z"/>
<path d="M1630 1016 c0 -9 30 -14 35 -6 4 6 -3 10 -14 10 -12 0 -21 -2 -21 -4z"/>
<path d="M276 995 c-9 -26 -7 -32 5 -12 6 10 9 21 6 23 -2 3 -7 -2 -11 -11z"/>
<path d="M1590 975 c-25 -13 -41 -24 -37 -25 11 0 87 39 87 45 0 7 0 7 -50
-20z"/>
<path d="M470 980 c0 -6 -6 -8 -12 -4 -7 4 -10 4 -6 -1 4 -4 2 -15 -4 -24 -8
-10 -3 -8 12 4 14 11 26 21 28 21 2 1 -1 5 -7 9 -6 3 -11 1 -11 -5z"/>
<path d="M417 952 c-20 -22 -22 -63 -4 -81 10 -10 8 -16 -9 -30 -25 -20 -48
-60 -40 -69 3 -3 6 0 6 6 0 6 14 27 31 47 24 27 29 39 20 48 -16 16 -14 49 5
75 18 27 13 29 -9 4z"/>
<path d="M1160 935 c-13 -14 -22 -27 -19 -29 2 -2 14 10 27 25 29 36 24 38 -8
4z"/>
<path d="M506 925 c-9 -26 -7 -32 5 -12 6 10 9 21 6 23 -2 3 -7 -2 -11 -11z"/>
<path d="M1490 930 c-8 -5 -10 -10 -5 -10 6 0 17 5 25 10 8 5 11 10 5 10 -5 0
-17 -5 -25 -10z"/>
<path d="M251 914 c0 -11 3 -14 6 -6 3 7 2 16 -1 19 -3 4 -6 -2 -5 -13z"/>
<path d="M432 910 c0 -14 2 -19 5 -12 2 6 2 18 0 25 -3 6 -5 1 -5 -13z"/>
<path d="M1174 909 c-10 -12 -18 -24 -18 -28 1 -3 -1 -13 -4 -21 -5 -11 -8 -8
-14 10 -7 22 -7 22 -4 -5 3 -16 -2 -39 -10 -49 -8 -11 -14 -24 -14 -30 0 -5
14 12 31 40 18 27 41 57 52 67 14 12 16 17 6 17 -11 0 -11 2 1 10 8 5 10 10 4
10 -6 0 -19 -9 -30 -21z"/>
<path d="M1284 909 c14 -11 26 -25 26 -31 0 -7 -11 -1 -24 11 -14 13 -31 21
-38 18 -9 -4 -8 -6 3 -6 9 -1 24 -10 35 -22 18 -20 18 -21 -1 -35 -17 -12 -17
-14 -2 -14 10 0 22 12 28 27 8 22 6 30 -12 50 -13 12 -27 23 -32 23 -5 0 2 -9
17 -21z"/>
<path d="M1530 900 c-30 -16 -51 -29 -47 -30 10 0 107 49 107 55 0 7 1 7 -60
-25z"/>
<path d="M241 874 c0 -11 3 -14 6 -6 3 7 2 16 -1 19 -3 4 -6 -2 -5 -13z"/>
<path d="M485 879 c-4 -6 -12 -8 -19 -6 -7 3 -13 -3 -13 -13 -1 -10 5 -21 14
-24 19 -8 18 -8 27 27 7 28 2 35 -9 16z m-5 -29 c0 -5 -2 -10 -4 -10 -3 0 -8
5 -11 10 -3 6 -1 10 4 10 6 0 11 -4 11 -10z"/>
<path d="M1440 860 c-8 -5 -10 -10 -5 -10 6 0 17 5 25 10 8 5 11 10 5 10 -5 0
-17 -5 -25 -10z"/>
<path d="M1321 844 c-1 -24 -19 -34 -59 -34 -22 0 -24 2 -12 11 12 9 12 10 -3
5 -10 -3 -20 -6 -22 -6 -3 0 -9 -10 -16 -21 -8 -16 -8 -20 0 -14 8 5 10 -2 6
-22 -6 -27 -5 -27 9 5 11 24 21 32 41 32 22 0 25 -3 20 -20 -4 -11 -2 -20 4
-20 6 0 10 3 9 8 -1 4 6 19 16 34 10 15 16 35 13 45 -4 15 -5 14 -6 -3z"/>
<path d="M1398 843 c7 -3 16 -2 19 1 4 3 -2 6 -13 5 -11 0 -14 -3 -6 -6z"/>
<path d="M231 780 c-2 -65 -8 -77 -40 -81 -14 -2 -26 -10 -27 -17 -1 -7 0 -8
3 -2 2 5 16 10 30 10 23 0 25 -3 19 -32 -4 -26 -3 -29 5 -15 6 9 15 15 21 11
6 -4 6 1 -1 14 -16 30 -13 39 5 16 8 -10 12 -12 7 -4 -4 8 -11 47 -14 85 -6
70 -6 70 -8 15z"/>
<path d="M404 798 l-19 -23 25 20 c14 11 27 21 29 22 2 2 0 3 -6 3 -5 0 -18
-10 -29 -22z"/>
<path d="M458 813 c21 -8 13 -51 -14 -72 -15 -12 -23 -21 -19 -21 5 0 17 7 27
17 10 9 18 12 18 6 0 -13 -27 -36 -65 -56 -16 -9 -25 -16 -19 -17 6 0 28 11
48 25 20 13 36 20 36 15 0 -18 -66 -59 -120 -74 -44 -13 -47 -15 -15 -10 22 3
53 12 69 20 35 17 36 17 36 2 0 -7 9 -31 20 -53 18 -36 20 -30 4 10 -5 11 1
15 20 15 17 0 30 -8 40 -27 18 -33 21 -25 4 12 -9 19 -19 25 -45 25 -28 0 -33
3 -33 24 0 28 25 54 33 34 2 -7 2 14 0 47 -2 42 0 56 7 45 5 -8 10 -10 10 -5
-1 17 -26 45 -41 44 -10 0 -11 -2 -1 -6z"/>
<path d="M1326 785 c-11 -8 -15 -15 -9 -15 6 0 16 7 23 15 16 19 11 19 -14 0z"/>
<path d="M380 751 c0 -11 4 -22 9 -25 4 -3 6 6 3 19 -5 30 -12 33 -12 6z"/>
<path d="M1096 753 c-6 -14 -5 -15 5 -6 7 7 10 15 7 18 -3 3 -9 -2 -12 -12z"/>
<path d="M360 723 c0 -6 8 -17 18 -24 16 -13 16 -13 2 6 -8 11 -16 22 -17 24
-2 2 -3 0 -3 -6z"/>
<path d="M1070 710 c-6 -11 -8 -20 -6 -20 3 0 10 9 16 20 6 11 8 20 6 20 -3 0
-10 -9 -16 -20z"/>
<path d="M1187 711 c-4 -17 -3 -21 5 -13 5 5 8 16 6 23 -3 8 -7 3 -11 -10z"/>
<path d="M1217 718 c2 -5 15 -8 29 -8 13 0 24 3 24 8 0 4 -13 7 -29 7 -16 0
-27 -3 -24 -7z"/>
<path d="M520 683 c0 -15 -2 -16 -10 -3 -6 9 -10 10 -10 3 0 -6 -8 -14 -17
-16 -10 -3 -3 -5 15 -6 26 -1 32 3 32 19 0 11 -2 20 -5 20 -3 0 -5 -8 -5 -17z"/>
<path d="M1134 675 c-18 -14 -18 -15 0 -8 18 6 18 5 1 -20 -9 -15 -21 -24 -26
-21 -5 3 -9 0 -9 -5 0 -6 -4 -11 -10 -11 -5 0 -18 -7 -27 -15 -10 -8 -27 -22
-38 -31 -19 -15 -18 -15 8 0 15 9 38 23 52 32 l25 16 1 -43 c0 -41 1 -42 11
-19 6 14 10 37 9 52 -2 16 6 35 18 47 13 13 16 21 9 21 -9 0 -8 4 2 10 8 5 10
10 4 10 -5 0 -19 -7 -30 -15z"/>
<path d="M1026 645 l-27 -35 23 1 c13 0 17 3 10 6 -9 3 -7 12 9 34 29 41 17
36 -15 -6z"/>
<path d="M348 663 c7 -3 16 -2 19 1 4 3 -2 6 -13 5 -11 0 -14 -3 -6 -6z"/>
<path d="M308 653 c7 -3 16 -2 19 1 4 3 -2 6 -13 5 -11 0 -14 -3 -6 -6z"/>
<path d="M545 650 c3 -5 8 -10 11 -10 2 0 4 5 4 10 0 6 -5 10 -11 10 -5 0 -7
-4 -4 -10z"/>
<path d="M255 639 c-4 -5 -11 -7 -16 -4 -5 4 -10 1 -10 -4 -1 -6 -2 -16 -3
-23 -2 -21 -24 -20 -31 2 -4 12 -9 19 -12 17 -2 -3 0 -15 6 -26 9 -16 8 -27
-6 -48 -21 -35 -15 -29 32 27 20 24 44 45 52 46 22 4 26 11 9 17 -9 4 -18 2
-21 -4z"/>
<path d="M1217 607 c-9 -11 -17 -24 -18 -27 0 -3 -2 -16 -3 -29 -3 -23 -2 -23
11 -5 7 10 11 24 9 31 -3 7 -1 13 3 13 9 0 24 30 19 36 -2 1 -11 -7 -21 -19z"/>
<path d="M800 575 c-41 -25 -71 -45 -66 -45 4 0 34 16 66 35 31 19 68 39 81
44 13 5 17 10 9 10 -8 1 -49 -19 -90 -44z"/>
<path d="M271 601 c-1 -7 -12 -26 -26 -43 -26 -31 -32 -53 -15 -63 6 -3 7 1 4
9 -8 22 36 82 47 64 11 -17 10 1 -1 27 -5 11 -9 14 -9 6z"/>
<path d="M957 601 c-10 -4 -18 -11 -18 -16 0 -6 -12 -10 -27 -9 -15 0 -19 -1
-9 -3 29 -7 15 -24 -49 -60 -32 -18 -54 -33 -48 -33 18 0 118 64 151 98 32 33
32 36 0 23z"/>
<path d="M1170 580 c-9 -6 -10 -10 -3 -10 6 0 15 5 18 10 8 12 4 12 -15 0z"/>
<path d="M1064 558 c-5 -7 -3 -8 5 -3 9 5 12 -1 9 -21 -2 -23 -17 -38 -68 -72
-36 -23 -70 -40 -77 -38 -6 3 -14 -2 -17 -10 -9 -24 -28 -16 -21 9 7 21 7 21
-8 2 -8 -10 -13 -25 -10 -32 6 -15 128 47 183 94 29 26 36 38 33 58 -6 27 -17
32 -29 13z"/>
<path d="M541 555 c0 -5 6 -21 14 -35 8 -14 14 -20 14 -15 0 6 -6 21 -14 35
-8 14 -14 21 -14 15z"/>
<path d="M1130 550 c0 -6 7 -10 15 -10 8 0 15 2 15 4 0 2 -7 6 -15 10 -8 3
-15 1 -15 -4z"/>
<path d="M290 545 c0 -5 5 -17 10 -25 5 -8 10 -10 10 -5 0 6 -5 17 -10 25 -5
8 -10 11 -10 5z"/>
<path d="M481 545 c0 -5 6 -21 14 -35 8 -14 14 -20 14 -15 0 6 -6 21 -14 35
-8 14 -14 21 -14 15z"/>
<path d="M1005 524 c-51 -34 -69 -52 -29 -29 35 20 82 54 74 55 -3 0 -23 -12
-45 -26z"/>
<path d="M939 509 l-24 -20 28 17 c15 9 27 18 27 20 0 8 -8 4 -31 -17z"/>
<path d="M762 500 c0 -14 2 -19 5 -12 2 6 2 18 0 25 -3 6 -5 1 -5 -13z"/>
<path d="M1168 506 c-10 -7 -18 -22 -18 -33 0 -22 -102 -124 -167 -168 -43
-28 -59 -44 -25 -26 63 35 202 165 202 189 0 9 7 24 17 34 19 21 15 23 -9 4z"/>
<path d="M605 497 c17 -62 17 -68 -1 -83 -11 -9 -13 -12 -6 -9 8 4 25 -3 40
-16 l27 -24 -23 26 c-14 16 -19 29 -14 33 6 3 22 -8 36 -26 l25 -33 23 25 23
24 -23 -19 c-22 -18 -23 -18 -40 6 -9 13 -15 26 -13 28 1 2 -4 8 -13 13 -9 5
-23 24 -31 41 -9 18 -13 24 -10 14z"/>
<path d="M310 497 c0 -4 11 -29 24 -56 l25 -48 -24 -11 c-20 -9 -26 -7 -39 11
-16 22 -16 22 -5 -3 6 -14 13 -26 14 -28 2 -2 17 3 33 12 26 13 32 13 42 1 9
-11 6 -17 -17 -29 -18 -10 -22 -15 -11 -16 9 0 25 -3 35 -6 14 -5 15 -4 4 4
-12 8 -12 14 -3 25 10 11 9 17 -4 28 -8 7 -29 38 -44 68 -16 31 -29 52 -30 48z"/>
<path d="M570 485 c0 -5 5 -17 10 -25 5 -8 10 -10 10 -5 0 6 -5 17 -10 25 -5
8 -10 11 -10 5z"/>
<path d="M255 450 c9 -16 18 -30 21 -30 2 0 -2 14 -11 30 -9 17 -18 30 -21 30
-2 0 2 -13 11 -30z"/>
<path d="M517 450 c8 -48 23 -75 18 -33 -2 18 -8 40 -14 50 -8 14 -9 10 -4
-17z"/>
<path d="M200 456 c0 -11 40 -86 45 -86 3 0 -4 19 -16 43 -23 45 -29 54 -29
43z"/>
<path d="M770 445 c-9 -11 -9 -15 -1 -15 6 0 11 5 11 10 0 6 11 3 25 -6 14 -9
25 -14 25 -11 0 2 -11 12 -24 20 -21 14 -26 14 -36 2z"/>
<path d="M840 446 c0 -2 8 -10 18 -17 15 -13 16 -12 3 4 -13 16 -21 21 -21 13z"/>
<path d="M700 430 c-32 -5 -30 -6 24 -13 32 -4 61 -5 64 -2 3 3 -6 5 -20 5
-15 0 -28 3 -30 8 -1 4 -19 5 -38 2z"/>
<path d="M846 411 c5 -10 1 -12 -17 -7 -23 6 -23 6 1 -6 36 -17 36 -17 12 -34
-12 -8 -20 -19 -17 -24 3 -5 -7 -16 -22 -24 -15 -8 -23 -15 -17 -16 16 0 49
27 49 42 0 7 8 14 18 16 14 3 17 -4 18 -35 1 -21 3 -30 6 -20 7 27 -5 81 -23
103 -8 10 -12 13 -8 5z"/>
<path d="M528 365 c-24 -22 -52 -37 -77 -41 -23 -4 -38 -10 -36 -15 7 -10 83
16 106 37 14 12 22 13 41 4 21 -10 21 -10 6 3 -25 20 -22 30 5 17 20 -10 21
-10 4 3 -14 11 -15 16 -5 20 7 3 9 6 3 6 -5 0 -27 -15 -47 -34z"/>
<path d="M720 375 c-10 -12 -10 -18 1 -32 12 -15 12 -16 -6 -10 -20 7 -20 7
-1 -8 11 -8 25 -15 30 -15 6 0 4 5 -4 10 -13 8 -13 10 -1 10 11 0 9 4 -5 15
-19 15 -19 15 0 30 11 8 15 15 9 15 -6 0 -16 -7 -23 -15z"/>
<path d="M800 386 c0 -2 7 -7 16 -10 8 -3 12 -2 9 4 -6 10 -25 14 -25 6z"/>
<path d="M1100 364 c0 -9 -10 -25 -22 -35 l-23 -20 28 17 c15 9 27 25 27 35 0
11 -2 19 -5 19 -3 0 -5 -7 -5 -16z"/>
<path d="M1132 355 c0 -16 2 -22 5 -12 2 9 2 23 0 30 -3 6 -5 -1 -5 -18z"/>
<path d="M264 343 c11 -13 29 -22 40 -22 20 1 20 2 1 6 -11 3 -29 12 -40 22
-20 16 -20 16 -1 -6z"/>
<path d="M656 345 c-25 -19 -16 -19 20 0 16 8 22 15 14 15 -8 -1 -24 -7 -34
-15z"/>
<path d="M893 320 c0 -25 2 -35 4 -22 2 12 2 32 0 45 -2 12 -4 2 -4 -23z"/>
<path d="M1089 294 c-19 -14 -57 -39 -86 -55 -43 -25 -56 -28 -73 -19 -11 6
-20 8 -20 6 0 -3 9 -10 21 -16 17 -10 31 -5 87 29 67 40 122 80 111 81 -3 0
-21 -12 -40 -26z"/>
<path d="M1015 284 l-30 -26 33 22 c17 12 32 23 32 26 0 7 -4 5 -35 -22z"/>
<path d="M444 291 c7 -11 46 -35 46 -28 0 3 -12 12 -26 22 -15 9 -23 12 -20 6z"/>
<path d="M835 257 l-31 -22 48 0 c28 0 50 5 52 12 3 8 -1 10 -11 6 -12 -5 -14
-3 -8 8 6 11 5 12 -6 2 -18 -18 -34 -16 -19 2 16 19 12 18 -25 -8z"/>
<path d="M929 258 c15 -20 36 -23 46 -8 3 6 -1 7 -10 4 -8 -4 -23 0 -33 7 -15
13 -16 12 -3 -3z"/>
<path d="M550 230 c8 -5 22 -9 30 -9 10 0 8 3 -5 9 -27 12 -43 12 -25 0z"/>
<path d="M608 213 c6 -2 18 -2 25 0 6 3 1 5 -13 5 -14 0 -19 -2 -12 -5z"/>
<path d="M738 213 c7 -3 16 -2 19 1 4 3 -2 6 -13 5 -11 0 -14 -3 -6 -6z"/>
</g>
</svg>
