<?xml version="1.0" standalone="no"?>
<!DOCTYPE svg PUBLIC "-//W3C//DTD SVG 20010904//EN"
 "http://www.w3.org/TR/2001/REC-SVG-20010904/DTD/svg10.dtd">
<svg version="1.0" xmlns="http://www.w3.org/2000/svg"
 width="439.000000pt" height="568.000000pt" viewBox="0 0 439.000000 568.000000"
 preserveAspectRatio="xMidYMid meet">

<g transform="translate(0.000000,568.000000) scale(0.100000,-0.100000)"
fill="#000000" stroke="none">
<path d="M3015 5007 c-41 -41 -64 -115 -66 -217 -1 -41 -4 -80 -6 -86 -3 -7
-43 2 -116 27 -485 164 -923 93 -1342 -216 -148 -109 -305 -276 -359 -382 -43
-86 13 -235 159 -418 43 -54 55 -75 51 -95 -20 -100 -29 -205 -30 -330 -1
-274 45 -475 169 -737 132 -279 295 -708 283 -745 -2 -5 -18 10 -35 34 -78
109 -236 253 -377 343 -233 149 -490 224 -671 195 -174 -28 -284 -125 -285
-252 0 -64 12 -91 66 -144 92 -89 249 -147 482 -178 212 -29 409 -85 567 -161
86 -41 211 -122 202 -131 -2 -2 -26 6 -53 18 -60 26 -173 35 -243 18 -166 -40
-275 -196 -242 -347 17 -74 66 -167 106 -201 18 -15 40 -47 49 -72 60 -159
211 -254 406 -255 132 0 183 24 293 141 45 47 108 103 139 124 186 124 424
111 601 -33 141 -115 294 -143 465 -86 51 17 77 34 126 83 74 72 96 125 96
227 0 75 -30 159 -72 202 -13 14 -36 50 -52 81 -36 71 -72 101 -143 122 -70
20 -141 15 -215 -16 -50 -20 -62 -22 -95 -12 -21 6 -55 26 -76 43 -39 32 -39
32 -32 88 23 186 112 383 289 641 105 152 195 300 261 425 31 61 63 117 70
125 7 8 23 35 35 60 13 25 60 101 105 170 233 353 385 717 431 1033 18 125 15
354 -6 421 -15 51 -109 145 -210 212 -219 147 -573 314 -663 314 -20 0 -40
-11 -62 -33z m192 -28 c216 -85 547 -277 646 -373 62 -60 76 -92 89 -199 31
-259 -56 -624 -232 -978 -57 -114 -202 -361 -208 -354 -2 2 3 34 11 72 9 37
18 97 21 133 6 63 6 63 -18 -35 -34 -140 -79 -264 -130 -359 -172 -319 -180
-331 -352 -591 -136 -205 -222 -370 -258 -497 -28 -99 -61 -302 -51 -318 11
-18 25 0 25 31 0 16 2 29 5 29 3 0 29 -13 58 -30 61 -34 116 -39 162 -14 17 9
62 19 101 21 108 8 186 -24 218 -89 22 -44 20 -49 -14 -31 -67 33 -213 35
-293 4 -60 -23 -142 -8 -176 33 -15 17 -31 21 -31 7 0 -20 51 -61 91 -71 37
-10 56 -9 133 10 186 47 328 3 393 -123 23 -44 28 -65 28 -132 0 -70 -4 -87
-30 -134 -63 -114 -176 -171 -340 -171 -97 1 -163 25 -260 96 -138 102 -223
134 -352 134 -158 0 -284 -60 -423 -202 -128 -131 -173 -152 -308 -146 -124 6
-193 32 -267 100 -75 68 -115 152 -115 239 1 109 50 183 160 237 70 34 198 43
283 18 68 -20 127 -21 127 -3 0 8 -14 13 -37 13 -21 1 -74 9 -118 19 -142 32
-265 1 -361 -93 -52 -50 -84 -122 -84 -185 l0 -30 -24 22 c-40 38 -79 130 -84
201 -8 117 54 212 172 265 97 44 184 42 304 -7 50 -21 53 -21 88 -5 50 24 68
72 61 162 -13 164 -124 485 -298 864 -145 313 -179 450 -185 731 -5 287 32
469 142 689 53 106 42 107 -20 2 -34 -59 -96 -204 -96 -227 0 -24 -20 -26 -41
-2 -42 49 -122 172 -150 231 -39 83 -40 156 -2 212 46 69 161 202 216 249 165
143 428 292 591 336 249 68 489 67 753 -4 130 -36 209 -70 238 -104 22 -26
138 -92 162 -92 10 0 84 -84 121 -136 40 -57 163 -304 193 -386 33 -91 64
-214 74 -301 4 -31 12 -60 17 -63 6 -4 7 11 3 37 -13 97 -9 143 23 229 57 156
77 320 51 413 -10 36 -17 42 -93 77 -46 21 -103 44 -127 50 -24 7 -61 20 -84
31 -22 10 -87 38 -145 62 -58 24 -125 56 -149 71 l-44 28 6 116 c11 238 59
281 234 211z m88 -507 c137 -49 275 -113 286 -134 20 -38 12 -205 -14 -308
-26 -99 -43 -150 -51 -150 -3 0 -12 26 -21 58 -41 139 -191 442 -257 518 -25
28 -34 44 -25 44 1 0 38 -13 82 -28z m-2485 -2131 c0 -61 208 -117 279 -75 26
16 30 15 102 -21 141 -71 335 -215 427 -317 96 -105 165 -209 173 -259 8 -53
-2 -115 -24 -136 -13 -13 -23 -9 -78 33 -69 51 -246 139 -348 173 -114 39
-259 71 -424 96 -240 36 -370 87 -455 179 -44 48 -57 89 -47 144 21 116 157
200 323 201 65 1 72 -1 72 -18z m120 -5 c25 -8 67 -19 95 -26 54 -12 62 -16
51 -27 -26 -26 -197 9 -231 47 -18 19 -17 20 11 20 16 0 49 -6 74 -14z"/>
<path d="M1900 4286 c0 -22 6 -26 58 -36 110 -21 225 -71 259 -112 11 -12 3
-16 -55 -27 -136 -25 -242 -54 -242 -67 0 -22 18 -25 57 -9 21 9 91 29 156 45
65 15 122 31 125 35 20 20 -144 122 -273 170 -81 31 -85 31 -85 1z"/>
<path d="M3075 4230 c-109 -21 -265 -66 -265 -78 0 -4 46 -22 103 -40 56 -18
129 -46 162 -62 72 -35 65 -34 65 -12 0 14 -28 27 -132 61 -73 24 -137 47
-141 51 -14 13 119 38 236 46 104 7 107 8 107 30 0 28 -1 28 -135 4z"/>
<path d="M2976 3860 c-57 -50 -79 -59 -92 -39 -3 6 -27 24 -52 40 -69 43 -118
40 -177 -11 -25 -22 -54 -40 -64 -40 -9 0 -30 14 -47 31 -36 39 -88 62 -117
53 -12 -4 -37 -20 -55 -35 -35 -31 -93 -59 -122 -59 -9 0 -48 20 -86 45 -75
49 -96 54 -135 27 -42 -28 -99 -81 -99 -92 0 -15 9 -12 37 10 36 28 42 25 32
-17 -44 -191 -58 -558 -26 -687 25 -99 72 -181 147 -257 81 -82 153 -124 249
-145 118 -26 281 -2 377 57 54 33 141 133 177 205 85 169 146 451 163 749 4
63 10 115 14 115 4 0 13 -7 20 -15 13 -16 40 -21 40 -7 0 8 -80 87 -111 110
-13 10 -26 4 -73 -38z m89 -125 c-19 -331 -85 -631 -175 -798 -51 -93 -140
-180 -140 -136 0 25 -78 137 -133 191 -70 69 -118 99 -212 130 -60 19 -91 23
-210 23 -77 0 -154 -3 -171 -7 -42 -9 -44 -2 -44 192 0 147 20 340 50 478 11
49 13 52 44 52 20 0 44 -10 66 -28 50 -41 74 -52 115 -52 41 0 84 20 135 61
49 41 78 38 138 -16 60 -54 75 -53 147 6 29 24 57 39 75 39 25 0 99 -45 115
-69 3 -6 21 -11 40 -11 25 0 45 10 82 44 45 42 49 43 66 28 17 -15 18 -28 12
-127z m-695 -629 c98 -27 174 -72 238 -141 50 -53 132 -176 132 -197 0 -10
-93 -46 -151 -58 -32 -7 -95 -11 -147 -8 -79 4 -99 9 -164 41 -104 51 -184
131 -236 236 -23 46 -42 94 -42 107 0 20 6 24 48 29 26 3 54 8 62 10 31 8 207
-5 260 -19z"/>
<path d="M1769 2893 c5 -10 21 -33 35 -52 14 -19 26 -39 26 -44 0 -4 35 -68
79 -140 179 -302 242 -428 316 -637 77 -220 118 -485 81 -535 -11 -16 -22 -17
-78 -12 -76 7 -167 39 -207 73 -37 31 -48 65 -61 184 -11 105 -33 192 -80 320
-18 47 -41 111 -51 143 -29 86 -130 301 -221 471 -93 175 -132 227 -60 81 256
-520 369 -822 392 -1043 6 -64 17 -115 27 -133 35 -58 119 -100 241 -120 85
-13 106 -7 126 35 22 48 20 119 -9 262 -53 260 -153 511 -313 784 -63 108
-240 380 -248 380 -3 0 0 -8 5 -17z"/>
<path d="M815 2245 c-5 -2 -21 -6 -35 -9 -61 -13 -90 -83 -55 -133 34 -49 160
-83 234 -63 156 42 97 183 -84 203 -27 3 -54 4 -60 2z m141 -50 c67 -33 82
-65 50 -101 -42 -50 -180 -43 -246 12 -97 82 64 155 196 89z"/>
<path d="M860 2160 c0 -12 28 -21 35 -11 2 5 -4 11 -15 14 -11 3 -20 2 -20 -3z"/>
</g>
</svg>
